<svg width="60" height="60" viewBox="0 0 60 60" fill="none" xmlns="http://www.w3.org/2000/svg">
  <!-- Background circle -->
  <circle cx="30" cy="30" r="30" fill="url(#avatar-gradient)"/>
  
  <!-- Gradient definitions -->
  <defs>
    <linearGradient id="avatar-gradient" x1="0%" y1="0%" x2="100%" y2="100%">
      <stop offset="0%" style="stop-color:#667eea;stop-opacity:1" />
      <stop offset="100%" style="stop-color:#764ba2;stop-opacity:1" />
    </linearGradient>
  </defs>
  
  <!-- Head -->
  <circle cx="30" cy="25" r="12" fill="#f4d03f"/>
  
  <!-- Hair -->
  <path d="M18,20 Q30,15 42,20 Q40,18 38,17 Q36,16 34,16 Q32,16 30,16 Q28,16 26,17 Q24,18 22,19 Q20,20 18,20" fill="#2c3e50"/>
  
  <!-- Eyes -->
  <circle cx="26" cy="23" r="2" fill="#2c3e50"/>
  <circle cx="34" cy="23" r="2" fill="#2c3e50"/>
  <circle cx="26" cy="23" r="1" fill="white"/>
  <circle cx="34" cy="23" r="1" fill="white"/>
  
  <!-- Nose -->
  <path d="M30,25 L28,28 L30,27 L32,28 Z" fill="#e67e22"/>
  
  <!-- Mouth -->
  <path d="M28,30 Q30,32 32,30" stroke="#e74c3c" stroke-width="1.5" fill="none" stroke-linecap="round"/>
  
  <!-- Glasses -->
  <circle cx="26" cy="23" r="4" fill="none" stroke="#34495e" stroke-width="1.5"/>
  <circle cx="34" cy="23" r="4" fill="none" stroke="#34495e" stroke-width="1.5"/>
  <line x1="30" y1="23" x2="30" y2="23" stroke="#34495e" stroke-width="1.5"/>
  
  <!-- Body -->
  <rect x="22" y="37" width="16" height="20" rx="8" fill="#3498db"/>
  
  <!-- Shirt collar -->
  <path d="M24,37 L36,37 L35,40 L25,40 Z" fill="#2980b9"/>
  
  <!-- Tie -->
  <path d="M29,40 L31,40 L30,50 L29,50 Z" fill="#e74c3c"/>
  <path d="M29,50 L31,50 L30,55 L29,55 Z" fill="#c0392b"/>
  
  <!-- Initial -->
  <text x="30" y="52" text-anchor="middle" font-family="Arial, sans-serif" font-size="12" font-weight="bold" fill="white">M</text>
</svg> 