<svg width="60" height="60" viewBox="0 0 60 60" fill="none" xmlns="http://www.w3.org/2000/svg">
  <!-- Background circle -->
  <circle cx="30" cy="30" r="30" fill="url(#avatar-gradient)"/>
  
  <!-- Gradient definitions -->
  <defs>
    <linearGradient id="avatar-gradient" x1="0%" y1="0%" x2="100%" y2="100%">
      <stop offset="0%" style="stop-color:#f093fb;stop-opacity:1" />
      <stop offset="100%" style="stop-color:#f5576c;stop-opacity:1" />
    </linearGradient>
  </defs>
  
  <!-- Head -->
  <circle cx="30" cy="25" r="12" fill="#f4d03f"/>
  
  <!-- Hair -->
  <path d="M18,18 Q30,12 42,18 Q40,16 38,15 Q36,14 34,14 Q32,14 30,14 Q28,14 26,15 Q24,16 22,17 Q20,18 18,18" fill="#8b4513"/>
  <path d="M20,16 Q30,10 40,16 Q38,14 36,13 Q34,12 32,12 Q30,12 28,13 Q26,14 24,15 Q22,16 20,16" fill="#a0522d"/>
  
  <!-- Eyes -->
  <circle cx="26" cy="23" r="2" fill="#2c3e50"/>
  <circle cx="34" cy="23" r="2" fill="#2c3e50"/>
  <circle cx="26" cy="23" r="1" fill="white"/>
  <circle cx="34" cy="23" r="1" fill="white"/>
  
  <!-- Eyelashes -->
  <path d="M24,21 L25,20 M26,21 L27,20 M28,21 L29,20" stroke="#2c3e50" stroke-width="1" stroke-linecap="round"/>
  <path d="M32,21 L33,20 M34,21 L35,20 M36,21 L37,20" stroke="#2c3e50" stroke-width="1" stroke-linecap="round"/>
  
  <!-- Nose -->
  <path d="M30,25 L28,28 L30,27 L32,28 Z" fill="#e67e22"/>
  
  <!-- Mouth -->
  <path d="M28,30 Q30,32 32,30" stroke="#e74c3c" stroke-width="1.5" fill="none" stroke-linecap="round"/>
  
  <!-- Cheeks -->
  <circle cx="22" cy="26" r="2" fill="#ffb6c1" opacity="0.6"/>
  <circle cx="38" cy="26" r="2" fill="#ffb6c1" opacity="0.6"/>
  
  <!-- Body -->
  <rect x="22" y="37" width="16" height="20" rx="8" fill="#e91e63"/>
  
  <!-- Blouse -->
  <path d="M24,37 L36,37 L35,40 L25,40 Z" fill="#c2185b"/>
  
  <!-- Necklace -->
  <circle cx="30" cy="40" r="1" fill="#ffd700"/>
  <path d="M29,40 L31,40" stroke="#ffd700" stroke-width="1"/>
  
  <!-- Earrings -->
  <circle cx="20" cy="22" r="1.5" fill="#ffd700"/>
  <circle cx="40" cy="22" r="1.5" fill="#ffd700"/>
  
  <!-- Initial -->
  <text x="30" y="52" text-anchor="middle" font-family="Arial, sans-serif" font-size="12" font-weight="bold" fill="white">E</text>
</svg> 