<svg width="300" height="300" viewBox="0 0 300 300" fill="none" xmlns="http://www.w3.org/2000/svg">
  <!-- Background -->
  <rect width="300" height="300" fill="url(#bgGrad)"/>
  
  <!-- Main T-Shirt -->
  <g transform="translate(80, 60)">
    <!-- T-Shirt Body -->
    <path d="M20 0 L40 0 L50 10 L60 0 L80 0 L80 20 L70 30 L70 120 L30 120 L30 30 L20 20 Z" 
          fill="url(#shirtGrad)" 
          filter="url(#shirtShadow)"/>
    
    <!-- T-Shirt Sleeves -->
    <path d="M0 20 L20 20 L20 40 L0 40 Z" fill="url(#shirtGrad)" filter="url(#shirtShadow)"/>
    <path d="M80 20 L100 20 L100 40 L80 40 Z" fill="url(#shirtGrad)" filter="url(#shirtShadow)"/>
    
    <!-- Neck Opening -->
    <ellipse cx="50" cy="15" rx="8" ry="6" fill="url(#bgGrad)"/>
    
    <!-- Design on Front -->
    <g transform="translate(35, 45)">
      <!-- Logo/Design Area -->
      <rect x="0" y="0" width="30" height="25" fill="url(#designGrad)" rx="4"/>
      <text x="15" y="12" font-family="Inter" font-size="6" font-weight="700" fill="white" text-anchor="middle">LOGO</text>
      <text x="15" y="22" font-family="Inter" font-size="4" font-weight="500" fill="white" text-anchor="middle">DESIGN</text>
    </g>
    
    <!-- Text Design -->
    <text x="50" y="85" font-family="Inter" font-size="8" font-weight="600" fill="#1f2937" text-anchor="middle">CUSTOM PRINT</text>
    <text x="50" y="95" font-family="Inter" font-size="6" font-weight="400" fill="#6b7280" text-anchor="middle">Premium Quality</text>
  </g>
  
  <!-- Hanger -->
  <g transform="translate(125, 30)">
    <path d="M0 0 L20 0 L20 5 L15 10 L5 10 L0 5 Z" fill="url(#hangerGrad)"/>
    <line x1="10" y1="10" x2="10" y2="25" stroke="url(#hangerGrad)" stroke-width="2" stroke-linecap="round"/>
  </g>
  
  <!-- Additional T-Shirts (Stacked) -->
  <g transform="translate(180, 80)" opacity="0.6">
    <!-- T-Shirt 2 -->
    <path d="M15 5 L25 5 L30 10 L35 5 L45 5 L45 15 L40 20 L40 80 L20 80 L20 20 L15 15 Z" 
          fill="url(#shirtGrad2)" 
          filter="url(#shirtShadow)"/>
    <path d="M5 15 L15 15 L15 25 L5 25 Z" fill="url(#shirtGrad2)" filter="url(#shirtShadow)"/>
    <path d="M45 15 L55 15 L55 25 L45 25 Z" fill="url(#shirtGrad2)" filter="url(#shirtShadow)"/>
    <ellipse cx="30" cy="12" rx="4" ry="3" fill="url(#bgGrad)"/>
  </g>
  
  <g transform="translate(200, 100)" opacity="0.4">
    <!-- T-Shirt 3 -->
    <path d="M10 10 L18 10 L22 14 L26 10 L34 10 L34 18 L30 22 L30 60 L18 60 L18 22 L10 18 Z" 
          fill="url(#shirtGrad3)" 
          filter="url(#shirtShadow)"/>
    <path d="M2 18 L10 18 L10 24 L2 24 Z" fill="url(#shirtGrad3)" filter="url(#shirtShadow)"/>
    <path d="M34 18 L42 18 L42 24 L34 24 Z" fill="url(#shirtGrad3)" filter="url(#shirtShadow)"/>
    <ellipse cx="22" cy="16" rx="3" ry="2" fill="url(#bgGrad)"/>
  </g>
  
  <!-- Floating Elements -->
  <g transform="translate(250, 120)">
    <circle cx="0" cy="0" r="12" fill="url(#floatGrad)" opacity="0.8"/>
    <text x="0" y="3" font-family="Arial" font-size="10" font-weight="bold" fill="white" text-anchor="middle">👕</text>
  </g>
  
  <g transform="translate(30, 180)">
    <rect x="0" y="0" width="18" height="18" fill="url(#floatGrad)" opacity="0.6" rx="9"/>
    <text x="9" y="12" font-family="Arial" font-size="12" font-weight="bold" fill="white" text-anchor="middle">🎨</text>
  </g>
  
  <!-- Size Tags -->
  <g transform="translate(40, 220)">
    <rect x="0" y="0" width="25" height="15" fill="url(#tagGrad)" rx="7"/>
    <text x="12.5" y="10" font-family="Inter" font-size="8" font-weight="600" fill="white" text-anchor="middle">S</text>
  </g>
  
  <g transform="translate(75, 220)">
    <rect x="0" y="0" width="25" height="15" fill="url(#tagGrad)" rx="7"/>
    <text x="12.5" y="10" font-family="Inter" font-size="8" font-weight="600" fill="white" text-anchor="middle">M</text>
  </g>
  
  <g transform="translate(110, 220)">
    <rect x="0" y="0" width="25" height="15" fill="url(#tagGrad)" rx="7"/>
    <text x="12.5" y="10" font-family="Inter" font-size="8" font-weight="600" fill="white" text-anchor="middle">L</text>
  </g>
  
  <g transform="translate(145, 220)">
    <rect x="0" y="0" width="25" height="15" fill="url(#tagGrad)" rx="7"/>
    <text x="12.5" y="10" font-family="Inter" font-size="8" font-weight="600" fill="white" text-anchor="middle">XL</text>
  </g>
  
  <!-- Decorative Elements -->
  <g transform="translate(20, 250)">
    <rect x="0" y="0" width="50" height="3" fill="url(#decorGrad)" rx="1.5"/>
  </g>
  
  <g transform="translate(230, 50)">
    <circle cx="0" cy="0" r="8" fill="url(#decorGrad)" opacity="0.4"/>
  </g>
  
  <defs>
    <linearGradient id="bgGrad" x1="0%" y1="0%" x2="100%" y2="100%">
      <stop offset="0%" style="stop-color:#f8fafc;stop-opacity:1" />
      <stop offset="100%" style="stop-color:#f1f5f9;stop-opacity:1" />
    </linearGradient>
    
    <linearGradient id="shirtGrad" x1="0%" y1="0%" x2="100%" y2="100%">
      <stop offset="0%" style="stop-color:#ffffff;stop-opacity:1" />
      <stop offset="100%" style="stop-color:#f3f4f6;stop-opacity:1" />
    </linearGradient>
    
    <linearGradient id="shirtGrad2" x1="0%" y1="0%" x2="100%" y2="100%">
      <stop offset="0%" style="stop-color:#dbeafe;stop-opacity:1" />
      <stop offset="100%" style="stop-color:#bfdbfe;stop-opacity:1" />
    </linearGradient>
    
    <linearGradient id="shirtGrad3" x1="0%" y1="0%" x2="100%" y2="100%">
      <stop offset="0%" style="stop-color:#fef3c7;stop-opacity:1" />
      <stop offset="100%" style="stop-color:#fde68a;stop-opacity:1" />
    </linearGradient>
    
    <linearGradient id="designGrad" x1="0%" y1="0%" x2="100%" y2="100%">
      <stop offset="0%" style="stop-color:#6366f1;stop-opacity:1" />
      <stop offset="100%" style="stop-color:#4f46e5;stop-opacity:1" />
    </linearGradient>
    
    <linearGradient id="hangerGrad" x1="0%" y1="0%" x2="100%" y2="100%">
      <stop offset="0%" style="stop-color:#6b7280;stop-opacity:1" />
      <stop offset="100%" style="stop-color:#4b5563;stop-opacity:1" />
    </linearGradient>
    
    <linearGradient id="floatGrad" x1="0%" y1="0%" x2="100%" y2="100%">
      <stop offset="0%" style="stop-color:#fbbf24;stop-opacity:1" />
      <stop offset="100%" style="stop-color:#f59e0b;stop-opacity:1" />
    </linearGradient>
    
    <linearGradient id="tagGrad" x1="0%" y1="0%" x2="100%" y2="100%">
      <stop offset="0%" style="stop-color:#10b981;stop-opacity:1" />
      <stop offset="100%" style="stop-color:#059669;stop-opacity:1" />
    </linearGradient>
    
    <linearGradient id="decorGrad" x1="0%" y1="0%" x2="100%" y2="100%">
      <stop offset="0%" style="stop-color:#6366f1;stop-opacity:1" />
      <stop offset="100%" style="stop-color:#8b5cf6;stop-opacity:1" />
    </linearGradient>
    
    <filter id="shirtShadow" x="-20%" y="-20%" width="140%" height="140%">
      <feDropShadow dx="0" dy="4" stdDeviation="8" flood-color="#000000" flood-opacity="0.1"/>
    </filter>
  </defs>
</svg> 