<svg width="300" height="300" viewBox="0 0 300 300" fill="none" xmlns="http://www.w3.org/2000/svg">
  <!-- Background -->
  <rect width="300" height="300" fill="url(#bgGrad)"/>
  
  <!-- Main Banner -->
  <g transform="translate(30, 40)">
    <!-- Banner Base -->
    <rect x="0" y="0" width="240" height="160" fill="url(#bannerGrad)" rx="8" filter="url(#bannerShadow)"/>
    
    <!-- Banner Header -->
    <rect x="0" y="0" width="240" height="40" fill="url(#headerGrad)" rx="8"/>
    
    <!-- Header Content -->
    <text x="120" y="15" font-family="Inter" font-size="12" font-weight="800" fill="white" text-anchor="middle">GRAND OPENING</text>
    <text x="120" y="30" font-family="Inter" font-size="8" font-weight="500" fill="white" text-anchor="middle" opacity="0.9">SPECIAL EVENT</text>
    
    <!-- Main Content Area -->
    <g transform="translate(20, 50)">
      <!-- Logo/Icon -->
      <circle cx="20" cy="20" r="15" fill="url(#logoGrad)"/>
      <text x="20" y="25" font-family="Arial" font-size="12" font-weight="bold" fill="white" text-anchor="middle">🎉</text>
      
      <!-- Main Text -->
      <text x="50" y="20" font-family="Inter" font-size="14" font-weight="700" fill="white">WELCOME TO</text>
      <text x="50" y="35" font-family="Inter" font-size="14" font-weight="700" fill="white">OUR NEW STORE!</text>
      
      <!-- Subtitle -->
      <text x="50" y="50" font-family="Inter" font-size="8" font-weight="400" fill="white" opacity="0.8">Join us for amazing deals and celebrations</text>
    </g>
    
    <!-- Call to Action -->
    <g transform="translate(20, 120)">
      <rect x="0" y="0" width="200" height="30" fill="url(#ctaGrad)" rx="15"/>
      <text x="100" y="20" font-family="Inter" font-size="10" font-weight="700" fill="white" text-anchor="middle">VISIT US TODAY!</text>
    </g>
    
    <!-- Contact Info -->
    <g transform="translate(20, 155)">
      <text x="0" y="0" font-family="Inter" font-size="7" font-weight="500" fill="white" opacity="0.8">📞 (555) 123-4567 | 📧 info@company.com</text>
    </g>
    
    <!-- Grommet Holes -->
    <circle cx="15" cy="20" r="3" fill="white" opacity="0.3"/>
    <circle cx="225" cy="20" r="3" fill="white" opacity="0.3"/>
    <circle cx="15" cy="140" r="3" fill="white" opacity="0.3"/>
    <circle cx="225" cy="140" r="3" fill="white" opacity="0.3"/>
  </g>
  
  <!-- Rolled Banner -->
  <g transform="translate(200, 80)" opacity="0.7">
    <!-- Banner Roll -->
    <rect x="0" y="0" width="60" height="100" fill="url(#bannerGrad2)" rx="30"/>
    
    <!-- Roll Details -->
    <circle cx="30" cy="20" r="8" fill="url(#rollGrad)"/>
    <circle cx="30" cy="80" r="8" fill="url(#rollGrad)"/>
    
    <!-- Rolled Edge -->
    <path d="M0 0 Q30 10 60 0" stroke="url(#rollGrad)" stroke-width="2" fill="none"/>
    <path d="M0 100 Q30 90 60 100" stroke="url(#rollGrad)" stroke-width="2" fill="none"/>
  </g>
  
  <!-- Banner Stand -->
  <g transform="translate(120, 200)">
    <!-- Stand Base -->
    <rect x="-40" y="0" width="80" height="8" fill="url(#standGrad)" rx="4"/>
    
    <!-- Stand Pole -->
    <rect x="-3" y="-60" width="6" height="60" fill="url(#standGrad)"/>
    
    <!-- Banner Holder -->
    <rect x="-20" y="-70" width="40" height="10" fill="url(#standGrad)" rx="5"/>
  </g>
  
  <!-- Floating Elements -->
  <g transform="translate(250, 150)">
    <circle cx="0" cy="0" r="12" fill="url(#floatGrad)" opacity="0.8"/>
    <text x="0" y="3" font-family="Arial" font-size="10" font-weight="bold" fill="white" text-anchor="middle">🎯</text>
  </g>
  
  <g transform="translate(30, 220)">
    <rect x="0" y="0" width="18" height="18" fill="url(#floatGrad)" opacity="0.6" rx="9"/>
    <text x="9" y="12" font-family="Arial" font-size="12" font-weight="bold" fill="white" text-anchor="middle">📢</text>
  </g>
  
  <!-- Size Indicators -->
  <g transform="translate(40, 250)">
    <text x="0" y="0" font-family="Inter" font-size="8" font-weight="600" fill="#6b7280">3' x 6'</text>
  </g>
  
  <g transform="translate(120, 250)">
    <text x="0" y="0" font-family="Inter" font-size="8" font-weight="600" fill="#6b7280">4' x 8'</text>
  </g>
  
  <g transform="translate(200, 250)">
    <text x="0" y="0" font-family="Inter" font-size="8" font-weight="600" fill="#6b7280">5' x 10'</text>
  </g>
  
  <!-- Decorative Elements -->
  <g transform="translate(20, 280)">
    <rect x="0" y="0" width="60" height="3" fill="url(#decorGrad)" rx="1.5"/>
  </g>
  
  <g transform="translate(220, 50)">
    <circle cx="0" cy="0" r="6" fill="url(#decorGrad)" opacity="0.4"/>
  </g>
  
  <g transform="translate(180, 30)">
    <rect x="0" y="0" width="12" height="12" fill="url(#decorGrad)" opacity="0.3" rx="6"/>
  </g>
  
  <defs>
    <linearGradient id="bgGrad" x1="0%" y1="0%" x2="100%" y2="100%">
      <stop offset="0%" style="stop-color:#f8fafc;stop-opacity:1" />
      <stop offset="100%" style="stop-color:#f1f5f9;stop-opacity:1" />
    </linearGradient>
    
    <linearGradient id="bannerGrad" x1="0%" y1="0%" x2="100%" y2="100%">
      <stop offset="0%" style="stop-color:#1e40af;stop-opacity:1" />
      <stop offset="100%" style="stop-color:#1e3a8a;stop-opacity:1" />
    </linearGradient>
    
    <linearGradient id="bannerGrad2" x1="0%" y1="0%" x2="100%" y2="100%">
      <stop offset="0%" style="stop-color:#dc2626;stop-opacity:1" />
      <stop offset="100%" style="stop-color:#b91c1c;stop-opacity:1" />
    </linearGradient>
    
    <linearGradient id="headerGrad" x1="0%" y1="0%" x2="100%" y2="100%">
      <stop offset="0%" style="stop-color:#ef4444;stop-opacity:1" />
      <stop offset="100%" style="stop-color:#dc2626;stop-opacity:1" />
    </linearGradient>
    
    <linearGradient id="logoGrad" x1="0%" y1="0%" x2="100%" y2="100%">
      <stop offset="0%" style="stop-color:#fbbf24;stop-opacity:1" />
      <stop offset="100%" style="stop-color:#f59e0b;stop-opacity:1" />
    </linearGradient>
    
    <linearGradient id="ctaGrad" x1="0%" y1="0%" x2="100%" y2="100%">
      <stop offset="0%" style="stop-color:#10b981;stop-opacity:1" />
      <stop offset="100%" style="stop-color:#059669;stop-opacity:1" />
    </linearGradient>
    
    <linearGradient id="rollGrad" x1="0%" y1="0%" x2="100%" y2="100%">
      <stop offset="0%" style="stop-color:#6b7280;stop-opacity:1" />
      <stop offset="100%" style="stop-color:#4b5563;stop-opacity:1" />
    </linearGradient>
    
    <linearGradient id="standGrad" x1="0%" y1="0%" x2="100%" y2="100%">
      <stop offset="0%" style="stop-color:#374151;stop-opacity:1" />
      <stop offset="100%" style="stop-color:#1f2937;stop-opacity:1" />
    </linearGradient>
    
    <linearGradient id="floatGrad" x1="0%" y1="0%" x2="100%" y2="100%">
      <stop offset="0%" style="stop-color:#fbbf24;stop-opacity:1" />
      <stop offset="100%" style="stop-color:#f59e0b;stop-opacity:1" />
    </linearGradient>
    
    <linearGradient id="decorGrad" x1="0%" y1="0%" x2="100%" y2="100%">
      <stop offset="0%" style="stop-color:#6366f1;stop-opacity:1" />
      <stop offset="100%" style="stop-color:#8b5cf6;stop-opacity:1" />
    </linearGradient>
    
    <filter id="bannerShadow" x="-20%" y="-20%" width="140%" height="140%">
      <feDropShadow dx="0" dy="8" stdDeviation="16" flood-color="#000000" flood-opacity="0.2"/>
    </filter>
  </defs>
</svg> 