<svg width="400" height="250" viewBox="0 0 400 250" fill="none" xmlns="http://www.w3.org/2000/svg">
  <!-- Background -->
  <rect width="400" height="250" fill="url(#gradient-bg)"/>
  
  <!-- Gradient definitions -->
  <defs>
    <linearGradient id="gradient-bg" x1="0%" y1="0%" x2="100%" y2="100%">
      <stop offset="0%" style="stop-color:#f093fb;stop-opacity:1" />
      <stop offset="100%" style="stop-color:#f5576c;stop-opacity:1" />
    </linearGradient>
    <linearGradient id="color-palette" x1="0%" y1="0%" x2="100%" y2="100%">
      <stop offset="0%" style="stop-color:#ff6b6b;stop-opacity:1" />
      <stop offset="25%" style="stop-color:#4ecdc4;stop-opacity:1" />
      <stop offset="50%" style="stop-color:#45b7d1;stop-opacity:1" />
      <stop offset="75%" style="stop-color:#96ceb4;stop-opacity:1" />
      <stop offset="100%" style="stop-color:#ffeaa7;stop-opacity:1" />
    </linearGradient>
  </defs>
  
  <!-- Abstract background elements -->
  <circle cx="60" cy="60" r="35" fill="rgba(255,255,255,0.1)"/>
  <circle cx="340" cy="70" r="28" fill="rgba(255,255,255,0.1)"/>
  <circle cx="310" cy="190" r="22" fill="rgba(255,255,255,0.1)"/>
  
  <!-- Design canvas -->
  <g transform="translate(80, 60)">
    <rect x="0" y="0" width="140" height="100" rx="8" fill="white" stroke="#e9ecef" stroke-width="2"/>
    
    <!-- Design elements on canvas -->
    <!-- Header -->
    <rect x="10" y="10" width="120" height="15" rx="3" fill="#007bff"/>
    
    <!-- Content blocks -->
    <rect x="10" y="30" width="60" height="25" rx="3" fill="#28a745"/>
    <rect x="75" y="30" width="55" height="25" rx="3" fill="#ffc107"/>
    
    <!-- Text lines -->
    <rect x="10" y="60" width="100" height="4" rx="2" fill="#6c757d"/>
    <rect x="10" y="68" width="80" height="4" rx="2" fill="#6c757d"/>
    <rect x="10" y="76" width="90" height="4" rx="2" fill="#6c757d"/>
    
    <!-- Call to action -->
    <rect x="10" y="85" width="40" height="12" rx="6" fill="#dc3545"/>
  </g>
  
  <!-- Color palette -->
  <g transform="translate(250, 50)">
    <rect x="0" y="0" width="100" height="20" rx="10" fill="url(#color-palette)"/>
    <circle cx="10" cy="10" r="8" fill="#ff6b6b"/>
    <circle cx="30" cy="10" r="8" fill="#4ecdc4"/>
    <circle cx="50" cy="10" r="8" fill="#45b7d1"/>
    <circle cx="70" cy="10" r="8" fill="#96ceb4"/>
    <circle cx="90" cy="10" r="8" fill="#ffeaa7"/>
  </g>
  
  <!-- Typography elements -->
  <g transform="translate(250, 90)">
    <!-- Font samples -->
    <text x="0" y="15" font-family="Arial, sans-serif" font-size="14" font-weight="bold" fill="#212529">Typography</text>
    <text x="0" y="30" font-family="Arial, sans-serif" font-size="12" fill="#495057">Serif Font</text>
    <text x="0" y="45" font-family="Arial, sans-serif" font-size="12" font-style="italic" fill="#495057">Sans Serif</text>
    <text x="0" y="60" font-family="Arial, sans-serif" font-size="12" font-weight="bold" fill="#495057">Bold Text</text>
  </g>
  
  <!-- Design tools -->
  <g transform="translate(280, 140)">
    <!-- Pen tool -->
    <path d="M0,0 L15,-15 L20,-10 L5,5 Z" fill="#6f42c1"/>
    <circle cx="2" cy="2" r="3" fill="#6f42c1"/>
  </g>
  
  <g transform="translate(310, 160)">
    <!-- Eyedropper -->
    <path d="M0,0 L8,-8 L12,-4 L4,4 Z" fill="#fd7e14"/>
    <circle cx="2" cy="2" r="2" fill="#fd7e14"/>
  </g>
  
  <g transform="translate(340, 140)">
    <!-- Ruler -->
    <rect x="0" y="0" width="25" height="4" rx="2" fill="#20c997"/>
    <line x1="5" y1="0" x2="5" y2="4" stroke="#495057" stroke-width="1"/>
    <line x1="10" y1="0" x2="10" y2="4" stroke="#495057" stroke-width="1"/>
    <line x1="15" y1="0" x2="15" y2="4" stroke="#495057" stroke-width="1"/>
    <line x1="20" y1="0" x2="20" y2="4" stroke="#495057" stroke-width="1"/>
  </g>
  
  <!-- Grid system -->
  <g transform="translate(80, 180)">
    <rect x="0" y="0" width="120" height="40" fill="none" stroke="#dee2e6" stroke-width="1"/>
    <line x1="40" y1="0" x2="40" y2="40" stroke="#dee2e6" stroke-width="1"/>
    <line x1="80" y1="0" x2="80" y2="40" stroke="#dee2e6" stroke-width="1"/>
    <line x1="0" y1="20" x2="120" y2="20" stroke="#dee2e6" stroke-width="1"/>
  </g>
  
  <!-- Design principles icons -->
  <g transform="translate(220, 180)">
    <!-- Balance -->
    <circle cx="0" cy="0" r="12" fill="none" stroke="#6c757d" stroke-width="2"/>
    <circle cx="-6" cy="0" r="4" fill="#6c757d"/>
    <circle cx="6" cy="0" r="4" fill="#6c757d"/>
  </g>
  
  <g transform="translate(250, 180)">
    <!-- Contrast -->
    <rect x="-8" y="-8" width="16" height="16" fill="#212529"/>
    <rect x="-4" y="-4" width="8" height="8" fill="white"/>
  </g>
  
  <g transform="translate(280, 180)">
    <!-- Alignment -->
    <line x1="-10" y1="0" x2="10" y2="0" stroke="#495057" stroke-width="2"/>
    <line x1="-8" y1="-5" x2="8" y2="-5" stroke="#495057" stroke-width="2"/>
    <line x1="-6" y1="5" x2="6" y2="5" stroke="#495057" stroke-width="2"/>
  </g>
  
  <!-- Floating design elements -->
  <g transform="translate(350, 30)">
    <!-- Color wheel -->
    <circle cx="0" cy="0" r="15" fill="none" stroke="#6c757d" stroke-width="2"/>
    <path d="M0,0 L0,-15 A15,15 0 0,1 7.5,-13" fill="#ff6b6b"/>
    <path d="M7.5,-13 A15,15 0 0,1 13,-7.5" fill="#4ecdc4"/>
    <path d="M13,-7.5 A15,15 0 0,1 15,0" fill="#45b7d1"/>
  </g>
  
  <!-- Floating particles -->
  <circle cx="100" cy="40" r="2" fill="rgba(255,255,255,0.6)"/>
  <circle cx="320" cy="50" r="1.5" fill="rgba(255,255,255,0.6)"/>
  <circle cx="200" cy="30" r="1" fill="rgba(255,255,255,0.6)"/>
  <circle cx="240" cy="45" r="1.5" fill="rgba(255,255,255,0.6)"/>
  <circle cx="180" cy="60" r="1" fill="rgba(255,255,255,0.6)"/>
</svg> 