<svg width="400" height="250" viewBox="0 0 400 250" fill="none" xmlns="http://www.w3.org/2000/svg">
  <!-- Background -->
  <rect width="400" height="250" fill="url(#gradient-bg)"/>
  
  <!-- Gradient definitions -->
  <defs>
    <linearGradient id="gradient-bg" x1="0%" y1="0%" x2="100%" y2="100%">
      <stop offset="0%" style="stop-color:#667eea;stop-opacity:1" />
      <stop offset="100%" style="stop-color:#764ba2;stop-opacity:1" />
    </linearGradient>
    <linearGradient id="brand-gradient" x1="0%" y1="0%" x2="100%" y2="100%">
      <stop offset="0%" style="stop-color:#ff6b6b;stop-opacity:1" />
      <stop offset="50%" style="stop-color:#4ecdc4;stop-opacity:1" />
      <stop offset="100%" style="stop-color:#45b7d1;stop-opacity:1" />
    </linearGradient>
  </defs>
  
  <!-- Abstract background elements -->
  <circle cx="50" cy="50" r="30" fill="rgba(255,255,255,0.1)"/>
  <circle cx="350" cy="80" r="25" fill="rgba(255,255,255,0.1)"/>
  <circle cx="320" cy="200" r="20" fill="rgba(255,255,255,0.1)"/>
  
  <!-- Brand logo example -->
  <g transform="translate(100, 80)">
    <!-- Logo container -->
    <rect x="0" y="0" width="120" height="80" rx="8" fill="white" stroke="#e9ecef" stroke-width="2"/>
    
    <!-- Logo design -->
    <circle cx="30" cy="30" r="15" fill="url(#brand-gradient)"/>
    <text x="30" y="35" text-anchor="middle" font-family="Arial, sans-serif" font-size="16" font-weight="bold" fill="white">B</text>
    
    <!-- Company name -->
    <text x="60" y="25" font-family="Arial, sans-serif" font-size="12" font-weight="bold" fill="#212529">BRAND</text>
    <text x="60" y="40" font-family="Arial, sans-serif" font-size="10" fill="#6c757d">SOLUTIONS</text>
    
    <!-- Tagline -->
    <text x="60" y="55" font-family="Arial, sans-serif" font-size="8" fill="#495057">Your Success Partner</text>
    
    <!-- Brand elements -->
    <rect x="10" y="65" width="100" height="2" fill="url(#brand-gradient)"/>
  </g>
  
  <!-- Brand identity elements -->
  <g transform="translate(250, 60)">
    <!-- Color palette -->
    <rect x="0" y="0" width="80" height="20" rx="10" fill="url(#brand-gradient)"/>
    <circle cx="15" cy="10" r="6" fill="#ff6b6b"/>
    <circle cx="35" cy="10" r="6" fill="#4ecdc4"/>
    <circle cx="55" cy="10" r="6" fill="#45b7d1"/>
    <circle cx="75" cy="10" r="6" fill="#96ceb4"/>
  </g>
  
  <!-- Typography samples -->
  <g transform="translate(250, 90)">
    <text x="0" y="15" font-family="Arial, sans-serif" font-size="14" font-weight="bold" fill="#212529">Typography</text>
    <text x="0" y="30" font-family="Arial, sans-serif" font-size="12" fill="#495057">Primary Font</text>
    <text x="0" y="45" font-family="Arial, sans-serif" font-size="12" font-style="italic" fill="#495057">Secondary Font</text>
    <text x="0" y="60" font-family="Arial, sans-serif" font-size="12" font-weight="bold" fill="#495057">Bold Headlines</text>
  </g>
  
  <!-- Marketing materials -->
  <g transform="translate(80, 180)">
    <!-- Business card -->
    <rect x="0" y="0" width="60" height="35" rx="4" fill="white" stroke="#dee2e6" stroke-width="1"/>
    <rect x="5" y="5" width="50" height="8" fill="url(#brand-gradient)"/>
    <text x="30" y="12" text-anchor="middle" font-family="Arial, sans-serif" font-size="8" font-weight="bold" fill="white">BUSINESS CARD</text>
    <text x="8" y="22" font-family="Arial, sans-serif" font-size="6" fill="#495057">John Doe</text>
    <text x="8" y="28" font-family="Arial, sans-serif" font-size="5" fill="#6c757d">CEO, Company</text>
  </g>
  
  <g transform="translate(150, 180)">
    <!-- Brochure -->
    <rect x="0" y="0" width="50" height="35" rx="2" fill="white" stroke="#dee2e6" stroke-width="1"/>
    <rect x="5" y="5" width="40" height="6" fill="url(#brand-gradient)"/>
    <rect x="5" y="15" width="40" height="3" fill="#e9ecef"/>
    <rect x="5" y="20" width="35" height="3" fill="#e9ecef"/>
    <rect x="5" y="25" width="30" height="3" fill="#e9ecef"/>
  </g>
  
  <g transform="translate(210, 180)">
    <!-- Letterhead -->
    <rect x="0" y="0" width="70" height="35" rx="2" fill="white" stroke="#dee2e6" stroke-width="1"/>
    <rect x="5" y="5" width="60" height="8" fill="url(#brand-gradient)"/>
    <text x="35" y="12" text-anchor="middle" font-family="Arial, sans-serif" font-size="8" font-weight="bold" fill="white">LETTERHEAD</text>
    <line x1="5" y1="18" x2="65" y2="18" stroke="#dee2e6" stroke-width="1"/>
    <text x="8" y="26" font-family="Arial, sans-serif" font-size="6" fill="#495057">Professional correspondence</text>
  </g>
  
  <!-- Brand guidelines -->
  <g transform="translate(290, 180)">
    <!-- Guidelines document -->
    <rect x="0" y="0" width="80" height="35" rx="4" fill="white" stroke="#dee2e6" stroke-width="1"/>
    <rect x="5" y="5" width="70" height="6" fill="#6c757d"/>
    <text x="40" y="10" text-anchor="middle" font-family="Arial, sans-serif" font-size="8" font-weight="bold" fill="white">GUIDELINES</text>
    <line x1="5" y1="15" x2="75" y2="15" stroke="#dee2e6" stroke-width="1"/>
    <text x="8" y="22" font-family="Arial, sans-serif" font-size="6" fill="#495057">Logo usage</text>
    <text x="8" y="28" font-family="Arial, sans-serif" font-size="6" fill="#495057">Color standards</text>
  </g>
  
  <!-- Brand positioning -->
  <g transform="translate(180, 120)">
    <!-- Target audience -->
    <circle cx="0" cy="0" r="20" fill="none" stroke="#6c757d" stroke-width="2"/>
    <circle cx="0" cy="0" r="12" fill="none" stroke="#6c757d" stroke-width="2"/>
    <circle cx="0" cy="0" r="4" fill="#6c757d"/>
    
    <!-- Target indicators -->
    <path d="M-25,0 L-20,0 M25,0 L20,0 M0,-25 L0,-20 M0,25 L0,20" stroke="#6c757d" stroke-width="2" stroke-linecap="round"/>
  </g>
  
  <!-- Brand values -->
  <g transform="translate(320, 140)">
    <!-- Value icons -->
    <g transform="translate(0, 0)">
      <circle cx="0" cy="0" r="8" fill="#28a745"/>
      <text x="0" y="3" text-anchor="middle" font-family="Arial, sans-serif" font-size="10" fill="white">✓</text>
    </g>
    <text x="15" y="4" font-family="Arial, sans-serif" font-size="8" fill="#495057">Quality</text>
  </g>
  
  <g transform="translate(320, 155)">
    <g transform="translate(0, 0)">
      <circle cx="0" cy="0" r="8" fill="#007bff"/>
      <text x="0" y="3" text-anchor="middle" font-family="Arial, sans-serif" font-size="10" fill="white">★</text>
    </g>
    <text x="15" y="4" font-family="Arial, sans-serif" font-size="8" fill="#495057">Trust</text>
  </g>
  
  <g transform="translate(320, 170)">
    <g transform="translate(0, 0)">
      <circle cx="0" cy="0" r="8" fill="#ffc107"/>
      <text x="0" y="3" text-anchor="middle" font-family="Arial, sans-serif" font-size="10" fill="white">⚡</text>
    </g>
    <text x="15" y="4" font-family="Arial, sans-serif" font-size="8" fill="#495057">Innovation</text>
  </g>
  
  <!-- Floating brand elements -->
  <g transform="translate(50, 120)">
    <!-- Abstract logo element -->
    <path d="M0,0 L10,-10 L20,0 L10,10 Z" fill="rgba(255,255,255,0.3)"/>
  </g>
  
  <g transform="translate(70, 100)">
    <!-- Another brand element -->
    <circle cx="0" cy="0" r="8" fill="rgba(255,255,255,0.2)"/>
    <text x="0" y="3" text-anchor="middle" font-family="Arial, sans-serif" font-size="10" fill="rgba(255,255,255,0.6)">B</text>
  </g>
  
  <!-- Floating particles -->
  <circle cx="100" cy="40" r="2" fill="rgba(255,255,255,0.6)"/>
  <circle cx="320" cy="50" r="1.5" fill="rgba(255,255,255,0.6)"/>
  <circle cx="200" cy="30" r="1" fill="rgba(255,255,255,0.6)"/>
  <circle cx="240" cy="45" r="1.5" fill="rgba(255,255,255,0.6)"/>
  <circle cx="180" cy="60" r="1" fill="rgba(255,255,255,0.6)"/>
  <circle cx="280" cy="25" r="1" fill="rgba(255,255,255,0.6)"/>
</svg> 