<svg width="400" height="250" viewBox="0 0 400 250" fill="none" xmlns="http://www.w3.org/2000/svg">
  <!-- Background -->
  <rect width="400" height="250" fill="url(#gradient-bg)"/>
  
  <!-- Gradient definitions -->
  <defs>
    <linearGradient id="gradient-bg" x1="0%" y1="0%" x2="100%" y2="100%">
      <stop offset="0%" style="stop-color:#667eea;stop-opacity:1" />
      <stop offset="100%" style="stop-color:#764ba2;stop-opacity:1" />
    </linearGradient>
    <linearGradient id="printer-gradient" x1="0%" y1="0%" x2="100%" y2="100%">
      <stop offset="0%" style="stop-color:#ffffff;stop-opacity:0.9" />
      <stop offset="100%" style="stop-color:#f8f9fa;stop-opacity:0.9" />
    </linearGradient>
    <linearGradient id="paper-gradient" x1="0%" y1="0%" x2="100%" y2="100%">
      <stop offset="0%" style="stop-color:#ffffff;stop-opacity:1" />
      <stop offset="100%" style="stop-color:#f8f9fa;stop-opacity:1" />
    </linearGradient>
  </defs>
  
  <!-- Abstract background elements -->
  <circle cx="50" cy="50" r="30" fill="rgba(255,255,255,0.1)"/>
  <circle cx="350" cy="80" r="25" fill="rgba(255,255,255,0.1)"/>
  <circle cx="320" cy="200" r="20" fill="rgba(255,255,255,0.1)"/>
  
  <!-- Modern printer -->
  <g transform="translate(100, 80)">
    <!-- Printer body -->
    <rect x="0" y="0" width="120" height="80" rx="8" fill="url(#printer-gradient)" stroke="#e9ecef" stroke-width="2"/>
    
    <!-- Printer top panel -->
    <rect x="10" y="10" width="100" height="15" rx="4" fill="#6c757d"/>
    
    <!-- Control panel -->
    <rect x="15" y="15" width="8" height="5" rx="2" fill="#28a745"/>
    <rect x="30" y="15" width="8" height="5" rx="2" fill="#ffc107"/>
    <rect x="45" y="15" width="8" height="5" rx="2" fill="#dc3545"/>
    
    <!-- Paper tray -->
    <rect x="20" y="70" width="80" height="8" rx="2" fill="#dee2e6"/>
    
    <!-- Output tray -->
    <rect x="10" y="85" width="100" height="6" rx="2" fill="#adb5bd"/>
    
    <!-- Paper coming out -->
    <rect x="15" y="95" width="90" height="4" rx="1" fill="url(#paper-gradient)" stroke="#ced4da" stroke-width="0.5"/>
    <rect x="20" y="100" width="80" height="4" rx="1" fill="url(#paper-gradient)" stroke="#ced4da" stroke-width="0.5"/>
  </g>
  
  <!-- Digital elements -->
  <g transform="translate(250, 60)">
    <!-- Digital screen -->
    <rect x="0" y="0" width="80" height="60" rx="6" fill="#212529" stroke="#495057" stroke-width="2"/>
    <rect x="5" y="5" width="70" height="50" rx="3" fill="#007bff"/>
    
    <!-- Digital content -->
    <rect x="10" y="10" width="60" height="8" rx="2" fill="rgba(255,255,255,0.8)"/>
    <rect x="10" y="22" width="40" height="6" rx="2" fill="rgba(255,255,255,0.6)"/>
    <rect x="10" y="32" width="50" height="6" rx="2" fill="rgba(255,255,255,0.6)"/>
    <rect x="10" y="42" width="35" height="6" rx="2" fill="rgba(255,255,255,0.6)"/>
  </g>
  
  <!-- Innovation icons -->
  <g transform="translate(280, 150)">
    <!-- AI/ML icon -->
    <circle cx="0" cy="0" r="15" fill="#17a2b8" opacity="0.8"/>
    <path d="M-8,-8 L8,8 M-8,8 L8,-8" stroke="white" stroke-width="2" stroke-linecap="round"/>
    <circle cx="0" cy="0" r="4" fill="white"/>
  </g>
  
  <g transform="translate(320, 180)">
    <!-- Sustainability icon -->
    <path d="M0,-12 L8,4 L-8,4 Z" fill="#28a745" opacity="0.8"/>
    <circle cx="0" cy="8" r="6" fill="#28a745" opacity="0.8"/>
  </g>
  
  <!-- Trend lines -->
  <path d="M50,200 Q150,180 250,190 T350,170" stroke="rgba(255,255,255,0.3)" stroke-width="2" fill="none"/>
  <path d="M60,210 Q160,190 260,200 T360,180" stroke="rgba(255,255,255,0.2)" stroke-width="2" fill="none"/>
  
  <!-- Floating particles -->
  <circle cx="80" cy="30" r="2" fill="rgba(255,255,255,0.6)"/>
  <circle cx="300" cy="40" r="1.5" fill="rgba(255,255,255,0.6)"/>
  <circle cx="180" cy="20" r="1" fill="rgba(255,255,255,0.6)"/>
  <circle cx="220" cy="35" r="1.5" fill="rgba(255,255,255,0.6)"/>
</svg> 