<svg width="300" height="200" viewBox="0 0 300 200" fill="none" xmlns="http://www.w3.org/2000/svg">
  <!-- Background -->
  <rect width="300" height="200" fill="url(#brochureBg)"/>
  
  <!-- Main Brochure -->
  <g transform="translate(75, 40)">
    <!-- Brochure Base -->
    <rect x="0" y="0" width="150" height="120" fill="white" rx="8" stroke="#e2e8f0" stroke-width="2" filter="url(#brochureShadow)"/>
    
    <!-- Header Section -->
    <rect x="0" y="0" width="150" height="40" fill="url(#headerGrad)" rx="8"/>
    <rect x="0" y="32" width="150" height="8" fill="url(#headerGrad)"/>
    
    <!-- Title -->
    <rect x="15" y="12" width="80" height="6" fill="white" rx="3"/>
    <rect x="15" y="22" width="60" height="4" fill="rgba(255,255,255,0.8)" rx="2"/>
    
    <!-- Logo Area -->
    <circle cx="125" cy="20" r="12" fill="white" opacity="0.9"/>
    <rect x="120" y="16" width="10" height="2" fill="url(#logoGradient)" rx="1"/>
    <rect x="120" y="20" width="10" height="2" fill="url(#logoGradient)" rx="1"/>
    <rect x="120" y="24" width="7" height="2" fill="url(#logoGradient)" rx="1"/>
    
    <!-- Content Sections -->
    <!-- Section 1 -->
    <rect x="15" y="55" width="120" height="3" fill="#1f2937" rx="1.5"/>
    <rect x="15" y="62" width="100" height="2" fill="#4b5563" rx="1"/>
    <rect x="15" y="67" width="110" height="2" fill="#6b7280" rx="1"/>
    <rect x="15" y="72" width="90" height="2" fill="#6b7280" rx="1"/>
    
    <!-- Image Placeholder -->
    <rect x="15" y="80" width="40" height="25" fill="url(#imageGrad)" rx="4"/>
    <circle cx="35" cy="92.5" r="6" fill="white" opacity="0.8"/>
    <path d="M32 92.5 L35 89.5 L38 92.5 L35 95.5 Z" fill="url(#logoGradient)"/>
    
    <!-- Text Columns -->
    <rect x="65" y="82" width="70" height="2" fill="#374151" rx="1"/>
    <rect x="65" y="87" width="65" height="2" fill="#6b7280" rx="1"/>
    <rect x="65" y="92" width="60" height="2" fill="#6b7280" rx="1"/>
    <rect x="65" y="97" width="70" height="2" fill="#6b7280" rx="1"/>
    <rect x="65" y="102" width="50" height="2" fill="#6b7280" rx="1"/>
  </g>
  
  <!-- Side Elements -->
  <g transform="translate(40, 80)">
    <!-- Small Brochure -->
    <rect x="0" y="0" width="25" height="35" fill="white" rx="2" stroke="#cbd5e1" stroke-width="1" filter="url(#smallShadow)"/>
    <rect x="2" y="2" width="21" height="8" fill="url(#sideGrad)" rx="1"/>
    <rect x="3" y="12" width="19" height="1.5" fill="#64748b" rx="0.75"/>
    <rect x="3" y="16" width="15" height="1.5" fill="#94a3b8" rx="0.75"/>
    <rect x="3" y="20" width="18" height="1.5" fill="#94a3b8" rx="0.75"/>
  </g>
  
  <!-- Floating Design Elements -->
  <circle cx="260" cy="60" r="10" fill="#6366f1" opacity="0.15"/>
  <rect x="40" y="40" width="12" height="12" fill="#f59e0b" opacity="0.2" rx="6"/>
  <circle cx="250" cy="160" r="6" fill="#10b981" opacity="0.25"/>
  
  <!-- Color Palette -->
  <g transform="translate(230, 120)">
    <circle cx="0" cy="0" r="8" fill="#6366f1"/>
    <circle cx="20" cy="0" r="8" fill="#f59e0b"/>
    <circle cx="40" cy="0" r="8" fill="#10b981"/>
    <circle cx="10" cy="20" r="8" fill="#ef4444"/>
    <circle cx="30" cy="20" r="8" fill="#8b5cf6"/>
  </g>
  
  <!-- Design Tools -->
  <g transform="translate(20, 140)">
    <!-- Ruler -->
    <rect x="0" y="0" width="40" height="4" fill="#64748b" rx="2"/>
    <rect x="5" y="1" width="1" height="2" fill="white"/>
    <rect x="15" y="1" width="1" height="2" fill="white"/>
    <rect x="25" y="1" width="1" height="2" fill="white"/>
    <rect x="35" y="1" width="1" height="2" fill="white"/>
  </g>
  
  <!-- Definitions -->
  <defs>
    <linearGradient id="brochureBg" x1="0%" y1="0%" x2="100%" y2="100%">
      <stop offset="0%" style="stop-color:#fafafa;stop-opacity:1" />
      <stop offset="100%" style="stop-color:#f4f4f5;stop-opacity:1" />
    </linearGradient>
    
    <linearGradient id="headerGrad" x1="0%" y1="0%" x2="100%" y2="100%">
      <stop offset="0%" style="stop-color:#6366f1;stop-opacity:1" />
      <stop offset="100%" style="stop-color:#8b5cf6;stop-opacity:1" />
    </linearGradient>
    
    <linearGradient id="imageGrad" x1="0%" y1="0%" x2="100%" y2="100%">
      <stop offset="0%" style="stop-color:#f1f5f9;stop-opacity:1" />
      <stop offset="100%" style="stop-color:#e2e8f0;stop-opacity:1" />
    </linearGradient>
    
    <linearGradient id="sideGrad" x1="0%" y1="0%" x2="100%" y2="100%">
      <stop offset="0%" style="stop-color:#f59e0b;stop-opacity:1" />
      <stop offset="100%" style="stop-color:#ef4444;stop-opacity:1" />
    </linearGradient>
    
    <linearGradient id="logoGradient" x1="0%" y1="0%" x2="100%" y2="100%">
      <stop offset="0%" style="stop-color:#6366f1;stop-opacity:1" />
      <stop offset="100%" style="stop-color:#f59e0b;stop-opacity:1" />
    </linearGradient>
    
    <filter id="brochureShadow" x="-20%" y="-20%" width="140%" height="140%">
      <feDropShadow dx="0" dy="8" stdDeviation="12" flood-color="#000000" flood-opacity="0.1"/>
    </filter>
    
    <filter id="smallShadow" x="-20%" y="-20%" width="140%" height="140%">
      <feDropShadow dx="0" dy="2" stdDeviation="4" flood-color="#000000" flood-opacity="0.1"/>
    </filter>
  </defs>
</svg>