<svg width="300" height="200" viewBox="0 0 300 200" fill="none" xmlns="http://www.w3.org/2000/svg">
  <!-- Background -->
  <rect width="300" height="200" fill="url(#bgGradient)"/>
  
  <!-- Business Card Stack -->
  <g transform="translate(50, 60)">
    <!-- Card 3 (Back) -->
    <rect x="10" y="10" width="180" height="100" fill="#1f2937" rx="8" filter="url(#shadow)"/>
    <rect x="20" y="20" width="60" height="4" fill="#6366f1" rx="2"/>
    <rect x="20" y="30" width="40" height="3" fill="#94a3b8" rx="1.5"/>
    <rect x="20" y="38" width="80" height="2" fill="#64748b" rx="1"/>
    <rect x="20" y="44" width="50" height="2" fill="#64748b" rx="1"/>
    
    <!-- Card 2 (Middle) -->
    <rect x="5" y="5" width="180" height="100" fill="white" rx="8" stroke="#e2e8f0" stroke-width="1" filter="url(#shadow)"/>
    <rect x="15" y="15" width="50" height="6" fill="#f59e0b" rx="3"/>
    <rect x="15" y="28" width="80" height="3" fill="#374151" rx="1.5"/>
    <rect x="15" y="35" width="60" height="2" fill="#6b7280" rx="1"/>
    <rect x="15" y="41" width="100" height="2" fill="#9ca3af" rx="1"/>
    <rect x="15" y="47" width="70" height="2" fill="#9ca3af" rx="1"/>
    
    <!-- Logo placeholder -->
    <circle cx="140" cy="35" r="15" fill="url(#logoGrad)"/>
    <rect x="133" y="31" width="14" height="2" fill="white" rx="1"/>
    <rect x="133" y="35" width="14" height="2" fill="white" rx="1"/>
    <rect x="133" y="39" width="10" height="2" fill="white" rx="1"/>
    
    <!-- Card 1 (Front) -->
    <rect x="0" y="0" width="180" height="100" fill="white" rx="8" stroke="#e2e8f0" stroke-width="2" filter="url(#shadow)"/>
    
    <!-- Card Content -->
    <rect x="10" y="10" width="60" height="8" fill="url(#brandGrad)" rx="4"/>
    <text x="12" y="22" font-family="Inter" font-size="8" font-weight="700" fill="white">SHRISTI PRESS</text>
    
    <rect x="10" y="35" width="100" height="3" fill="#1f2937" rx="1.5"/>
    <rect x="10" y="42" width="80" height="2" fill="#4b5563" rx="1"/>
    <rect x="10" y="48" width="120" height="2" fill="#6b7280" rx="1"/>
    <rect x="10" y="54" width="90" height="2" fill="#6b7280" rx="1"/>
    
    <!-- Contact Info Icons -->
    <circle cx="15" cy="70" r="3" fill="#6366f1"/>
    <rect x="25" y="68" width="40" height="2" fill="#9ca3af" rx="1"/>
    
    <circle cx="15" cy="80" r="3" fill="#10b981"/>
    <rect x="25" y="78" width="50" height="2" fill="#9ca3af" rx="1"/>
    
    <circle cx="15" cy="90" r="3" fill="#f59e0b"/>
    <rect x="25" y="88" width="60" height="2" fill="#9ca3af" rx="1"/>
    
    <!-- QR Code -->
    <rect x="140" y="60" width="30" height="30" fill="#1f2937" rx="2"/>
    <rect x="142" y="62" width="26" height="26" fill="white" rx="1"/>
    <!-- QR Pattern -->
    <rect x="144" y="64" width="2" height="2" fill="#1f2937"/>
    <rect x="148" y="64" width="2" height="2" fill="#1f2937"/>
    <rect x="152" y="64" width="2" height="2" fill="#1f2937"/>
    <rect x="156" y="64" width="2" height="2" fill="#1f2937"/>
    <rect x="160" y="64" width="2" height="2" fill="#1f2937"/>
    <rect x="164" y="64" width="2" height="2" fill="#1f2937"/>
  </g>
  
  <!-- Floating Elements -->
  <circle cx="250" cy="50" r="12" fill="#6366f1" opacity="0.2"/>
  <circle cx="270" cy="150" r="8" fill="#f59e0b" opacity="0.3"/>
  <rect x="30" y="30" width="16" height="16" fill="#10b981" opacity="0.2" rx="8"/>
  
  <!-- Definitions -->
  <defs>
    <linearGradient id="bgGradient" x1="0%" y1="0%" x2="100%" y2="100%">
      <stop offset="0%" style="stop-color:#f8fafc;stop-opacity:1" />
      <stop offset="100%" style="stop-color:#f1f5f9;stop-opacity:1" />
    </linearGradient>
    
    <linearGradient id="brandGrad" x1="0%" y1="0%" x2="100%" y2="100%">
      <stop offset="0%" style="stop-color:#6366f1;stop-opacity:1" />
      <stop offset="100%" style="stop-color:#8b5cf6;stop-opacity:1" />
    </linearGradient>
    
    <linearGradient id="logoGrad" x1="0%" y1="0%" x2="100%" y2="100%">
      <stop offset="0%" style="stop-color:#f59e0b;stop-opacity:1" />
      <stop offset="100%" style="stop-color:#ef4444;stop-opacity:1" />
    </linearGradient>
    
    <filter id="shadow" x="-20%" y="-20%" width="140%" height="140%">
      <feDropShadow dx="0" dy="4" stdDeviation="8" flood-color="#000000" flood-opacity="0.1"/>
    </filter>
  </defs>
</svg>