<svg width="48" height="48" viewBox="0 0 48 48" fill="none" xmlns="http://www.w3.org/2000/svg">
  <!-- Background Circle -->
  <circle cx="24" cy="24" r="24" fill="url(#colorBg)"/>
  
  <!-- Paint Palette -->
  <g transform="translate(14, 14)">
    <!-- Palette Shape -->
    <path d="M0 10 Q0 0 10 0 Q20 0 20 10 Q20 15 17 15 Q15 15 15 13 Q15 11 13 11 Q8 11 8 15 Q8 20 3 20 Q0 20 0 10 Z" 
          fill="white" opacity="0.9"/>
    
    <!-- Thumb Hole -->
    <ellipse cx="12" cy="13" rx="2" ry="1.5" fill="url(#thumbGrad)"/>
    
    <!-- Paint Colors -->
    <circle cx="5" cy="5" r="2" fill="#ef4444"/>
    <circle cx="10" cy="3" r="2" fill="#f59e0b"/>
    <circle cx="15" cy="5" r="2" fill="#84cc16"/>
    <circle cx="17" cy="10" r="2" fill="#06b6d4"/>
    <circle cx="12" cy="8" r="2" fill="#8b5cf6"/>
    <circle cx="7" cy="10" r="2" fill="#ec4899"/>
    
    <!-- Paint Spots/Mixing -->
    <ellipse cx="9" cy="6" rx="1" ry="0.5" fill="#fb923c" opacity="0.7"/>
    <ellipse cx="13" cy="5" rx="0.8" ry="0.4" fill="#a78bfa" opacity="0.7"/>
  </g>
  
  <!-- Paint Brush -->
  <g transform="translate(32, 8) rotate(45)">
    <!-- Brush Handle -->
    <rect x="0" y="0" width="2" height="12" fill="url(#handleGrad)" rx="1"/>
    
    <!-- Ferrule (Metal part) -->
    <rect x="0" y="10" width="2" height="3" fill="url(#ferruleGrad)"/>
    
    <!-- Brush Bristles -->
    <rect x="0" y="13" width="2" height="4" fill="url(#bristleGrad)" rx="1"/>
    
    <!-- Paint on Brush -->
    <circle cx="1" cy="15" r="0.8" fill="#6366f1"/>
  </g>
  
  <!-- Color Swatches -->
  <g transform="translate(6, 32)">
    <rect x="0" y="0" width="4" height="4" fill="#ef4444" rx="1"/>
    <rect x="5" y="0" width="4" height="4" fill="#f59e0b" rx="1"/>
    <rect x="10" y="0" width="4" height="4" fill="#10b981" rx="1"/>
    <rect x="15" y="0" width="4" height="4" fill="#3b82f6" rx="1"/>
    <rect x="20" y="0" width="4" height="4" fill="#8b5cf6" rx="1"/>
    <rect x="25" y="0" width="4" height="4" fill="#ec4899" rx="1"/>
    <rect x="30" y="0" width="4" height="4" fill="#06b6d4" rx="1"/>
    <rect x="35" y="0" width="4" height="4" fill="#84cc16" rx="1"/>
  </g>
  
  <!-- Color Wheel -->
  <g transform="translate(35, 32)">
    <circle cx="0" cy="0" r="6" fill="url(#colorWheelGrad)"/>
    <circle cx="0" cy="0" r="4" fill="white" opacity="0.9"/>
    <circle cx="0" cy="0" r="2" fill="url(#centerColorGrad)"/>
  </g>
  
  <!-- Paint Drops -->
  <g transform="translate(8, 20)">
    <path d="M0 0 Q-1 -2 0 -4 Q1 -2 0 0" fill="#6366f1" opacity="0.8"/>
  </g>
  
  <g transform="translate(38, 18)">
    <path d="M0 0 Q-1 -2 0 -4 Q1 -2 0 0" fill="#f59e0b" opacity="0.8"/>
  </g>
  
  <defs>
    <linearGradient id="colorBg" x1="0%" y1="0%" x2="100%" y2="100%">
      <stop offset="0%" style="stop-color:#fbbf24;stop-opacity:1" />
      <stop offset="100%" style="stop-color:#f59e0b;stop-opacity:1" />
    </linearGradient>
    
    <linearGradient id="thumbGrad" x1="0%" y1="0%" x2="100%" y2="100%">
      <stop offset="0%" style="stop-color:#f3f4f6;stop-opacity:1" />
      <stop offset="100%" style="stop-color:#e5e7eb;stop-opacity:1" />
    </linearGradient>
    
    <linearGradient id="handleGrad" x1="0%" y1="0%" x2="100%" y2="100%">
      <stop offset="0%" style="stop-color:#92400e;stop-opacity:1" />
      <stop offset="100%" style="stop-color:#78350f;stop-opacity:1" />
    </linearGradient>
    
    <linearGradient id="ferruleGrad" x1="0%" y1="0%" x2="100%" y2="100%">
      <stop offset="0%" style="stop-color:#d1d5db;stop-opacity:1" />
      <stop offset="100%" style="stop-color:#9ca3af;stop-opacity:1" />
    </linearGradient>
    
    <linearGradient id="bristleGrad" x1="0%" y1="0%" x2="100%" y2="100%">
      <stop offset="0%" style="stop-color:#fbbf24;stop-opacity:1" />
      <stop offset="100%" style="stop-color:#d97706;stop-opacity:1" />
    </linearGradient>
    
    <linearGradient id="colorWheelGrad" x1="0%" y1="0%" x2="100%" y2="0%">
      <stop offset="0%" style="stop-color:#ef4444;stop-opacity:1" />
      <stop offset="16.66%" style="stop-color:#f59e0b;stop-opacity:1" />
      <stop offset="33.33%" style="stop-color:#84cc16;stop-opacity:1" />
      <stop offset="50%" style="stop-color:#06b6d4;stop-opacity:1" />
      <stop offset="66.66%" style="stop-color:#3b82f6;stop-opacity:1" />
      <stop offset="83.33%" style="stop-color:#8b5cf6;stop-opacity:1" />
      <stop offset="100%" style="stop-color:#ec4899;stop-opacity:1" />
    </linearGradient>
    
    <linearGradient id="centerColorGrad" x1="0%" y1="0%" x2="100%" y2="100%">
      <stop offset="0%" style="stop-color:#6366f1;stop-opacity:1" />
      <stop offset="100%" style="stop-color:#8b5cf6;stop-opacity:1" />
    </linearGradient>
  </defs>
</svg>