<svg width="48" height="48" viewBox="0 0 48 48" fill="none" xmlns="http://www.w3.org/2000/svg">
  <!-- Background Circle -->
  <circle cx="24" cy="24" r="24" fill="url(#orderBg)"/>
  
  <!-- Order Process Flow -->
  <g transform="translate(6, 10)">
    <!-- Step 1: Order -->
    <g transform="translate(0, 0)">
      <circle cx="6" cy="6" r="6" fill="white" opacity="0.9"/>
      <circle cx="6" cy="6" r="4" fill="url(#step1Grad)"/>
      <text x="6" y="8" font-family="Arial" font-size="4" font-weight="bold" fill="white" text-anchor="middle">1</text>
      <rect x="3" y="15" width="6" height="3" fill="white" opacity="0.8" rx="1"/>
      <text x="6" y="17" font-family="Arial" font-size="2" fill="url(#step1Grad)" text-anchor="middle">ORDER</text>
    </g>
    
    <!-- Arrow 1 -->
    <path d="M12 6 L18 6 M16 4 L18 6 L16 8" stroke="white" stroke-width="1.5" fill="none" opacity="0.8"/>
    
    <!-- Step 2: Ship -->
    <g transform="translate(18, 0)">
      <circle cx="6" cy="6" r="6" fill="white" opacity="0.9"/>
      <circle cx="6" cy="6" r="4" fill="url(#step2Grad)"/>
      <text x="6" y="8" font-family="Arial" font-size="4" font-weight="bold" fill="white" text-anchor="middle">2</text>
      <rect x="3" y="15" width="6" height="3" fill="white" opacity="0.8" rx="1"/>
      <text x="6" y="17" font-family="Arial" font-size="2" fill="url(#step2Grad)" text-anchor="middle">SHIP</text>
    </g>
    
    <!-- Arrow 2 -->
    <path d="M30 6 L36 6 M34 4 L36 6 L34 8" stroke="white" stroke-width="1.5" fill="none" opacity="0.8"/>
    
    <!-- Step 3: Track -->
    <g transform="translate(36, 0)">
      <circle cx="0" cy="6" r="6" fill="white" opacity="0.9"/>
      <circle cx="0" cy="6" r="4" fill="url(#step3Grad)"/>
      <text x="0" y="8" font-family="Arial" font-size="4" font-weight="bold" fill="white" text-anchor="middle">3</text>
      <rect x="-3" y="15" width="6" height="3" fill="white" opacity="0.8" rx="1"/>
      <text x="0" y="17" font-family="Arial" font-size="2" fill="url(#step3Grad)" text-anchor="middle">TRACK</text>
    </g>
  </g>
  
  <!-- Detailed Process Icons -->
  <!-- Shopping Cart -->
  <g transform="translate(8, 25)">
    <rect x="0" y="2" width="6" height="4" fill="white" opacity="0.8" rx="1"/>
    <circle cx="1.5" cy="7" r="1" fill="url(#cartGrad)"/>
    <circle cx="4.5" cy="7" r="1" fill="url(#cartGrad)"/>
    <path d="M-1 0 L1 0 L2 4 L6 4" stroke="url(#cartGrad)" stroke-width="1" fill="none"/>
  </g>
  
  <!-- Delivery Box -->
  <g transform="translate(18, 25)">
    <rect x="0" y="0" width="8" height="6" fill="white" opacity="0.8" rx="1"/>
    <rect x="0" y="0" width="8" height="6" fill="none" stroke="url(#boxGrad)" stroke-width="1" rx="1"/>
    <line x1="0" y1="3" x2="8" y2="3" stroke="url(#boxGrad)" stroke-width="1"/>
    <line x1="4" y1="0" x2="4" y2="6" stroke="url(#boxGrad)" stroke-width="1"/>
    
    <!-- Shipping Label -->
    <rect x="1" y="1" width="3" height="1.5" fill="url(#labelGrad)" rx="0.2"/>
  </g>
  
  <!-- GPS Tracking -->
  <g transform="translate(32, 25)">
    <circle cx="4" cy="3" r="4" fill="white" opacity="0.8"/>
    <circle cx="4" cy="3" r="2.5" fill="url(#gpsGrad)"/>
    <circle cx="4" cy="3" r="1" fill="white"/>
    
    <!-- GPS Signal -->
    <path d="M4 0 Q6 1 4 3 Q2 1 4 0" stroke="url(#signalGrad)" stroke-width="1" fill="none"/>
    <circle cx="4" cy="0.5" r="0.5" fill="url(#signalGrad)"/>
  </g>
  
  <!-- Progress Indicators -->
  <g transform="translate(6, 35)">
    <rect x="0" y="0" width="8" height="2" fill="url(#progressGrad)" rx="1"/>
    <rect x="10" y="0" width="8" height="2" fill="url(#progressGrad)" rx="1"/>
    <rect x="20" y="0" width="8" height="2" fill="url(#progressGrad)" rx="1"/>
    <rect x="30" y="0" width="6" height="2" fill="url(#progressGrad)" rx="1"/>
  </g>
  
  <!-- Status Checkmarks -->
  <g transform="translate(9, 32)">
    <circle cx="0" cy="0" r="1.5" fill="url(#checkGrad)"/>
    <path d="M-0.5 0 L0 0.5 L0.5 -0.5" stroke="white" stroke-width="0.8" fill="none"/>
  </g>
  
  <g transform="translate(21, 32)">
    <circle cx="0" cy="0" r="1.5" fill="url(#checkGrad)"/>
    <path d="M-0.5 0 L0 0.5 L0.5 -0.5" stroke="white" stroke-width="0.8" fill="none"/>
  </g>
  
  <g transform="translate(33, 32)">
    <circle cx="0" cy="0" r="1.5" fill="url(#checkGrad)"/>
    <path d="M-0.5 0 L0 0.5 L0.5 -0.5" stroke="white" stroke-width="0.8" fill="none"/>
  </g>
  
  <defs>
    <linearGradient id="orderBg" x1="0%" y1="0%" x2="100%" y2="100%">
      <stop offset="0%" style="stop-color:#fbbf24;stop-opacity:1" />
      <stop offset="100%" style="stop-color:#f59e0b;stop-opacity:1" />
    </linearGradient>
    
    <linearGradient id="step1Grad" x1="0%" y1="0%" x2="100%" y2="100%">
      <stop offset="0%" style="stop-color:#3b82f6;stop-opacity:1" />
      <stop offset="100%" style="stop-color:#1d4ed8;stop-opacity:1" />
    </linearGradient>
    
    <linearGradient id="step2Grad" x1="0%" y1="0%" x2="100%" y2="100%">
      <stop offset="0%" style="stop-color:#f59e0b;stop-opacity:1" />
      <stop offset="100%" style="stop-color:#d97706;stop-opacity:1" />
    </linearGradient>
    
    <linearGradient id="step3Grad" x1="0%" y1="0%" x2="100%" y2="100%">
      <stop offset="0%" style="stop-color:#10b981;stop-opacity:1" />
      <stop offset="100%" style="stop-color:#059669;stop-opacity:1" />
    </linearGradient>
    
    <linearGradient id="cartGrad" x1="0%" y1="0%" x2="100%" y2="100%">
      <stop offset="0%" style="stop-color:#6366f1;stop-opacity:1" />
      <stop offset="100%" style="stop-color:#4f46e5;stop-opacity:1" />
    </linearGradient>
    
    <linearGradient id="boxGrad" x1="0%" y1="0%" x2="100%" y2="100%">
      <stop offset="0%" style="stop-color:#92400e;stop-opacity:1" />
      <stop offset="100%" style="stop-color:#78350f;stop-opacity:1" />
    </linearGradient>
    
    <linearGradient id="labelGrad" x1="0%" y1="0%" x2="100%" y2="100%">
      <stop offset="0%" style="stop-color:#ef4444;stop-opacity:1" />
      <stop offset="100%" style="stop-color:#dc2626;stop-opacity:1" />
    </linearGradient>
    
    <linearGradient id="gpsGrad" x1="0%" y1="0%" x2="100%" y2="100%">
      <stop offset="0%" style="stop-color:#8b5cf6;stop-opacity:1" />
      <stop offset="100%" style="stop-color:#7c3aed;stop-opacity:1" />
    </linearGradient>
    
    <linearGradient id="signalGrad" x1="0%" y1="0%" x2="100%" y2="100%">
      <stop offset="0%" style="stop-color:#06b6d4;stop-opacity:1" />
      <stop offset="100%" style="stop-color:#0891b2;stop-opacity:1" />
    </linearGradient>
    
    <linearGradient id="progressGrad" x1="0%" y1="0%" x2="100%" y2="100%">
      <stop offset="0%" style="stop-color:#22c55e;stop-opacity:1" />
      <stop offset="100%" style="stop-color:#16a34a;stop-opacity:1" />
    </linearGradient>
    
    <linearGradient id="checkGrad" x1="0%" y1="0%" x2="100%" y2="100%">
      <stop offset="0%" style="stop-color:#10b981;stop-opacity:1" />
      <stop offset="100%" style="stop-color:#059669;stop-opacity:1" />
    </linearGradient>
  </defs>
</svg>