<?xml version="1.0" encoding="UTF-8"?>
<svg version="1.1" xmlns="http://www.w3.org/2000/svg" width="508" height="106">
<path d="M0 0 C2.4375 0.4375 2.4375 0.4375 3.80859375 2 C5.34517068 3.6865502 5.34517068 3.6865502 7.59375 3.37109375 C8.3671875 3.20738281 9.140625 3.04367188 9.9375 2.875 C12.34375 2.51171875 12.34375 2.51171875 14.4375 2.4375 C16.94813345 4.63430427 17.38210537 6.27131612 18.4375 9.4375 C19.8296875 9.375625 19.8296875 9.375625 21.25 9.3125 C24.4375 9.4375 24.4375 9.4375 27.4375 11.4375 C27.84593923 14.14953652 27.57086867 16.6812142 27.4375 19.4375 C29.7475 20.0975 32.0575 20.7575 34.4375 21.4375 C35.90476798 25.25239674 34.87086419 27.72761622 33.4375 31.4375 C34.4275 32.2728125 34.4275 32.2728125 35.4375 33.125 C37.4375 35.4375 37.4375 35.4375 37.875 38 C37.4375 40.4375 37.4375 40.4375 35.875 41.80859375 C34.1884498 43.34517068 34.1884498 43.34517068 34.50390625 45.59375 C34.74947266 46.75390625 34.74947266 46.75390625 35 47.9375 C35.36328125 50.34375 35.36328125 50.34375 35.4375 52.4375 C33.24069573 54.94813345 31.60368388 55.38210537 28.4375 56.4375 C28.293125 57.736875 28.14875 59.03625 28 60.375 C27.5625 64.3125 27.5625 64.3125 26.4375 65.4375 C23.76691149 65.57865161 21.11317762 65.47997107 18.4375 65.4375 C17.7775 67.7475 17.1175 70.0575 16.4375 72.4375 C12.62260326 73.90476798 10.14738378 72.87086419 6.4375 71.4375 C5.6021875 72.4275 5.6021875 72.4275 4.75 73.4375 C2.4375 75.4375 2.4375 75.4375 -0.125 75.875 C-2.5625 75.4375 -2.5625 75.4375 -3.93359375 73.875 C-5.47017068 72.1884498 -5.47017068 72.1884498 -7.71875 72.50390625 C-8.87890625 72.74947266 -8.87890625 72.74947266 -10.0625 73 C-12.46875 73.36328125 -12.46875 73.36328125 -14.5625 73.4375 C-17.07313345 71.24069573 -17.50710537 69.60368388 -18.5625 66.4375 C-21.58984375 66.19335938 -21.58984375 66.19335938 -24.6171875 65.94921875 C-26.5625 65.4375 -26.5625 65.4375 -28.5625 62.4375 C-28.1875 59.25 -28.1875 59.25 -27.5625 56.4375 C-29.8725 55.7775 -32.1825 55.1175 -34.5625 54.4375 C-35.72087626 50.38318308 -35.39941257 48.21937881 -33.5625 44.4375 C-34.2225 43.880625 -34.8825 43.32375 -35.5625 42.75 C-37.5625 40.4375 -37.5625 40.4375 -38 37.875 C-37.5625 35.4375 -37.5625 35.4375 -36.015625 34.078125 C-34.32441225 32.52023987 -34.32441225 32.52023987 -34.48828125 30.17578125 C-34.67970703 28.97501953 -34.67970703 28.97501953 -34.875 27.75 C-34.99488281 26.94175781 -35.11476563 26.13351563 -35.23828125 25.30078125 C-35.34527344 24.68589844 -35.45226562 24.07101563 -35.5625 23.4375 C-29.8125 19.4375 -29.8125 19.4375 -27.5625 19.4375 C-27.624375 18.15875 -27.68625 16.88 -27.75 15.5625 C-27.85546875 13.3828125 -27.85546875 13.3828125 -27.5625 11.4375 C-24.5625 9.4375 -24.5625 9.4375 -21.375 9.8125 C-20.446875 10.01875 -19.51875 10.225 -18.5625 10.4375 C-17.9025 8.1275 -17.2425 5.8175 -16.5625 3.4375 C-12.50818308 2.27912374 -10.34437881 2.60058743 -6.5625 4.4375 C-5.7271875 3.4475 -5.7271875 3.4475 -4.875 2.4375 C-2.5625 0.4375 -2.5625 0.4375 0 0 Z " fill="#DA7B2E" transform="translate(48.5625,13.5625)"/>
<path d="M0 0 C1.67542976 0.28604898 3.34385343 0.61781233 5 1 C6.12029814 6.48946087 5.79217969 9.83430559 4 15 C2.68 14.67 1.36 14.34 0 14 C-0.309375 12.865625 -0.61875 11.73125 -0.9375 10.5625 C-1.62924531 7.21224901 -1.62924531 7.21224901 -3 6 C-6 5.83333333 -6 5.83333333 -9 6 C-10.66342837 7.66342837 -10.36048097 9.7825709 -10.5625 12.0625 C-10.64628906 12.98160156 -10.73007812 13.90070312 -10.81640625 14.84765625 C-10.90728516 15.91306641 -10.90728516 15.91306641 -11 17 C-9.68 16.67 -8.36 16.34 -7 16 C-6.67 14.68 -6.34 13.36 -6 12 C-4.68 12.33 -3.36 12.66 -2 13 C-1.80341192 14.41543415 -1.61812454 15.83244031 -1.4375 17.25 C-1.28087891 18.43335938 -1.28087891 18.43335938 -1.12109375 19.640625 C-0.99972651 22.00532874 -1.30366743 23.7511037 -2 26 C-3.32 26 -4.64 26 -6 26 C-6 24.68 -6 23.36 -6 22 C-7.65 21.67 -9.3 21.34 -11 21 C-10.85970581 23.1462026 -10.71261836 25.29196218 -10.5625 27.4375 C-10.48128906 28.63246094 -10.40007812 29.82742187 -10.31640625 31.05859375 C-10.32343886 33.88570244 -10.32343886 33.88570244 -9 35 C-4.93552787 35.3617845 -4.93552787 35.3617845 -1.1875 34 C0.70103144 30.81931546 0.69956547 27.66530121 1 24 C2.65 24.33 4.3 24.66 6 25 C7.88178944 30.9589999 8.19671115 34.14210361 6 40 C4.68 40 3.36 40 2 40 C2 39.34 2 38.68 2 38 C1.17556396 38.48895752 1.17556396 38.48895752 0.33447266 38.98779297 C-2.4149079 40.17990045 -4.36260339 40.22897778 -7.3515625 40.1953125 C-8.36734375 40.18886719 -9.383125 40.18242188 -10.4296875 40.17578125 C-11.48414063 40.15902344 -12.53859375 40.14226562 -13.625 40.125 C-14.6871875 40.11597656 -15.749375 40.10695312 -16.84375 40.09765625 C-19.56268765 40.07344179 -22.28122977 40.0379309 -25 40 C-25.66 40 -26.32 40 -27 40 C-31.33333333 40 -35.66666667 40 -40 40 C-40.12117188 39.33613281 -40.24234375 38.67226562 -40.3671875 37.98828125 C-41.42518652 31.22314518 -41.42518652 31.22314518 -44 25 C-45.65 24.67 -47.3 24.34 -49 24 C-48.67 27.96 -48.34 31.92 -48 36 C-47.01 36 -46.02 36 -45 36 C-45.33 37.32 -45.66 38.64 -46 40 C-51.61 40 -57.22 40 -63 40 C-63.495 38.515 -63.495 38.515 -64 37 C-62.02 36.505 -62.02 36.505 -60 36 C-59.94601013 33.72942623 -59.90721258 31.45848712 -59.875 29.1875 C-59.85179687 27.92292969 -59.82859375 26.65835938 -59.8046875 25.35546875 C-59.72418082 21.8661976 -59.72418082 21.8661976 -62 19 C-61.34 18.67 -60.68 18.34 -60 18 C-60 13.71 -60 9.42 -60 5 C-61.32 5 -62.64 5 -64 5 C-63.34 3.68 -62.68 2.36 -62 1 C-58.27098186 0.91263264 -54.54222835 0.85948518 -50.8125 0.8125 C-49.75740234 0.78736328 -48.70230469 0.76222656 -47.61523438 0.73632812 C-46.08286133 0.72182617 -46.08286133 0.72182617 -44.51953125 0.70703125 C-43.58214111 0.6913208 -42.64475098 0.67561035 -41.67895508 0.65942383 C-37.66020874 1.17032797 -34.99830379 2.89077356 -32.3125 5.875 C-31.879375 6.57625 -31.44625 7.2775 -31 8 C-30.505 8.7425 -30.01 9.485 -29.5 10.25 C-28.8761095 13.68139777 -29.58623045 14.25945167 -31.5 17.0625 C-32.0053125 17.71347656 -32.510625 18.36445312 -33.03125 19.03515625 C-33.51078125 20.00775391 -33.51078125 20.00775391 -34 21 C-33.20486867 22.96137182 -33.20486867 22.96137182 -32 25 C-31.5859375 27.796875 -31.5859375 27.796875 -31.375 30.75 C-31.30023438 31.73484375 -31.22546875 32.7196875 -31.1484375 33.734375 C-31.09945312 34.48203125 -31.05046875 35.2296875 -31 36 C-28.03 36 -25.06 36 -22 36 C-21.94616152 33.54137599 -21.90640962 31.0839245 -21.875 28.625 C-21.85824219 27.92632812 -21.84148437 27.22765625 -21.82421875 26.5078125 C-21.80655733 24.67102514 -21.89696739 22.83398037 -22 21 C-22.66 20.34 -23.32 19.68 -24 19 C-23.34 18.34 -22.68 17.68 -22 17 C-21.75660449 14.10116917 -21.75660449 14.10116917 -21.875 10.875 C-21.89304687 9.77929688 -21.91109375 8.68359375 -21.9296875 7.5546875 C-21.95289063 6.71164063 -21.97609375 5.86859375 -22 5 C-23.32 4.67 -24.64 4.34 -26 4 C-25.67 3.01 -25.34 2.02 -25 1 C-23.91730835 1.00785522 -23.91730835 1.00785522 -22.81274414 1.01586914 C-19.56267151 1.03657358 -16.31261272 1.04963918 -13.0625 1.0625 C-11.35803711 1.07506836 -11.35803711 1.07506836 -9.61914062 1.08789062 C-8.53955078 1.09111328 -7.45996094 1.09433594 -6.34765625 1.09765625 C-5.34742432 1.10289307 -4.34719238 1.10812988 -3.31665039 1.11352539 C-1.03792772 1.26181095 -1.03792772 1.26181095 0 0 Z M-49 6 C-49.0989294 8.16480797 -49.129711 10.33293785 -49.125 12.5 C-49.12757813 13.6859375 -49.13015625 14.871875 -49.1328125 16.09375 C-49.33210219 18.89259422 -49.33210219 18.89259422 -48 20 C-45.54190002 20.2500773 -45.54190002 20.2500773 -43 20 C-40.74924955 18.16888152 -40.74924955 18.16888152 -40.734375 15.46875 C-40.73953125 14.4890625 -40.7446875 13.509375 -40.75 12.5 C-40.74484375 11.5203125 -40.7396875 10.540625 -40.734375 9.53125 C-40.74924955 6.83111848 -40.74924955 6.83111848 -43 5 C-46.29009793 4.55239094 -46.29009793 4.55239094 -49 6 Z M-56 10 C-57.01202288 17.17757765 -56.88826175 23.81191259 -56 31 C-55.67 31 -55.34 31 -55 31 C-55 24.07 -55 17.14 -55 10 C-55.33 10 -55.66 10 -56 10 Z M-38 10 C-38 11.98 -38 13.96 -38 16 C-37.34 14.68 -36.68 13.36 -36 12 C-36.66 11.34 -37.32 10.68 -38 10 Z M-18 10 C-19.01202288 17.17757765 -18.88826175 23.81191259 -18 31 C-17.67 31 -17.34 31 -17 31 C-17 24.07 -17 17.14 -17 10 C-17.33 10 -17.66 10 -18 10 Z M-38 28 C-38 30.31 -38 32.62 -38 35 C-37.67 35 -37.34 35 -37 35 C-37 32.69 -37 30.38 -37 28 C-37.33 28 -37.66 28 -38 28 Z " fill="#010101" transform="translate(418,49)"/>
<path d="M0 0 C2.4375 0.4375 2.4375 0.4375 3.80859375 2 C5.34517068 3.6865502 5.34517068 3.6865502 7.59375 3.37109375 C8.3671875 3.20738281 9.140625 3.04367188 9.9375 2.875 C12.34375 2.51171875 12.34375 2.51171875 14.4375 2.4375 C16.94813345 4.63430427 17.38210537 6.27131612 18.4375 9.4375 C19.8296875 9.375625 19.8296875 9.375625 21.25 9.3125 C24.4375 9.4375 24.4375 9.4375 27.4375 11.4375 C27.84593923 14.14953652 27.57086867 16.6812142 27.4375 19.4375 C29.7475 20.0975 32.0575 20.7575 34.4375 21.4375 C35.90476798 25.25239674 34.87086419 27.72761622 33.4375 31.4375 C34.4275 32.2728125 34.4275 32.2728125 35.4375 33.125 C37.4375 35.4375 37.4375 35.4375 37.875 38 C37.4375 40.4375 37.4375 40.4375 35.875 41.80859375 C34.1884498 43.34517068 34.1884498 43.34517068 34.50390625 45.59375 C34.74947266 46.75390625 34.74947266 46.75390625 35 47.9375 C35.36328125 50.34375 35.36328125 50.34375 35.4375 52.4375 C33.24069573 54.94813345 31.60368388 55.38210537 28.4375 56.4375 C28.293125 57.736875 28.14875 59.03625 28 60.375 C27.5625 64.3125 27.5625 64.3125 26.4375 65.4375 C23.76691149 65.57865161 21.11317762 65.47997107 18.4375 65.4375 C17.7775 67.7475 17.1175 70.0575 16.4375 72.4375 C12.62260326 73.90476798 10.14738378 72.87086419 6.4375 71.4375 C5.6021875 72.4275 5.6021875 72.4275 4.75 73.4375 C2.4375 75.4375 2.4375 75.4375 -0.125 75.875 C-2.5625 75.4375 -2.5625 75.4375 -3.93359375 73.875 C-5.47017068 72.1884498 -5.47017068 72.1884498 -7.71875 72.50390625 C-8.87890625 72.74947266 -8.87890625 72.74947266 -10.0625 73 C-12.46875 73.36328125 -12.46875 73.36328125 -14.5625 73.4375 C-17.07313345 71.24069573 -17.50710537 69.60368388 -18.5625 66.4375 C-21.58984375 66.19335938 -21.58984375 66.19335938 -24.6171875 65.94921875 C-26.5625 65.4375 -26.5625 65.4375 -28.5625 62.4375 C-28.1875 59.25 -28.1875 59.25 -27.5625 56.4375 C-29.8725 55.7775 -32.1825 55.1175 -34.5625 54.4375 C-35.72087626 50.38318308 -35.39941257 48.21937881 -33.5625 44.4375 C-34.2225 43.880625 -34.8825 43.32375 -35.5625 42.75 C-37.5625 40.4375 -37.5625 40.4375 -38 37.875 C-37.5625 35.4375 -37.5625 35.4375 -36.015625 34.078125 C-34.32441225 32.52023987 -34.32441225 32.52023987 -34.48828125 30.17578125 C-34.67970703 28.97501953 -34.67970703 28.97501953 -34.875 27.75 C-34.99488281 26.94175781 -35.11476563 26.13351563 -35.23828125 25.30078125 C-35.34527344 24.68589844 -35.45226562 24.07101563 -35.5625 23.4375 C-29.8125 19.4375 -29.8125 19.4375 -27.5625 19.4375 C-27.624375 18.15875 -27.68625 16.88 -27.75 15.5625 C-27.85546875 13.3828125 -27.85546875 13.3828125 -27.5625 11.4375 C-24.5625 9.4375 -24.5625 9.4375 -21.375 9.8125 C-20.446875 10.01875 -19.51875 10.225 -18.5625 10.4375 C-17.9025 8.1275 -17.2425 5.8175 -16.5625 3.4375 C-12.50818308 2.27912374 -10.34437881 2.60058743 -6.5625 4.4375 C-5.7271875 3.4475 -5.7271875 3.4475 -4.875 2.4375 C-2.5625 0.4375 -2.5625 0.4375 0 0 Z M10.4375 5.4375 C8.66559091 6.79194301 8.66559091 6.79194301 7.4375 8.4375 C7.9325 8.9325 7.9325 8.9325 8.4375 9.4375 C7.47070312 9.45167969 6.50390625 9.46585938 5.5078125 9.48046875 C-5.37437772 9.87912324 -13.21090493 11.98407005 -21.5625 19.4375 C-27.04347727 27.22500566 -29.12371278 35.02291383 -27.5625 44.4375 C-24.86405395 52.91156743 -19.39709146 59.64844408 -11.5625 63.875 C-5.24491211 66.4569707 1.74991953 65.75469749 8.4375 65.4375 C8.1075 66.4275 7.7775 67.4175 7.4375 68.4375 C10.08488916 69.8981285 11.33198334 70.4375 14.4375 70.4375 C15.0975 68.1275 15.7575 65.8175 16.4375 63.4375 C18.3865625 63.4684375 18.3865625 63.4684375 20.375 63.5 C21.72915633 63.52149454 23.08506083 63.50898199 24.4375 63.4375 C26.40572886 61.46927114 26.09998381 58.08941291 26.4375 55.4375 C28.4175 54.7775 30.3975 54.1175 32.4375 53.4375 C32.18188677 51.0943787 31.84479228 48.75906597 31.4375 46.4375 C30.4475 45.9425 30.4475 45.9425 29.4375 45.4375 C28.4475 45.9325 28.4475 45.9325 27.4375 46.4375 C27.4375 41.1575 27.4375 35.8775 27.4375 30.4375 C28.7575 30.4375 30.0775 30.4375 31.4375 30.4375 C31.7675 28.1275 32.0975 25.8175 32.4375 23.4375 C30.1275 22.7775 27.8175 22.1175 25.4375 21.4375 C25.47005208 19.38671875 25.50260417 17.3359375 25.53515625 15.28515625 C25.64311184 13.42017859 25.64311184 13.42017859 24.4375 12.4375 C22.91821962 12.36570036 21.39582518 12.35357993 19.875 12.375 C19.04871094 12.38402344 18.22242188 12.39304687 17.37109375 12.40234375 C16.41396484 12.41974609 16.41396484 12.41974609 15.4375 12.4375 C14.9425 9.4675 14.9425 9.4675 14.4375 6.4375 C12.60049211 5.66507731 12.60049211 5.66507731 10.4375 5.4375 Z " fill="#090611" transform="translate(48.5625,13.5625)"/>
<path d="M0 0 C3.72901814 -0.08736736 7.45777165 -0.14051482 11.1875 -0.1875 C12.24259766 -0.21263672 13.29769531 -0.23777344 14.38476562 -0.26367188 C15.91713867 -0.27817383 15.91713867 -0.27817383 17.48046875 -0.29296875 C18.41785889 -0.3086792 19.35524902 -0.32438965 20.32104492 -0.34057617 C24.33979126 0.17032797 27.00169621 1.89077356 29.6875 4.875 C30.120625 5.57625 30.55375 6.2775 31 7 C31.495 7.7425 31.99 8.485 32.5 9.25 C33.1238905 12.68139777 32.41376955 13.25945167 30.5 16.0625 C29.9946875 16.71347656 29.489375 17.36445312 28.96875 18.03515625 C28.48921875 19.00775391 28.48921875 19.00775391 28 20 C28.79513133 21.96137182 28.79513133 21.96137182 30 24 C30.4140625 26.796875 30.4140625 26.796875 30.625 29.75 C30.69976562 30.73484375 30.77453125 31.7196875 30.8515625 32.734375 C30.90054688 33.48203125 30.94953125 34.2296875 31 35 C33.97 35 36.94 35 40 35 C40.05398987 32.72942623 40.09278742 30.45848712 40.125 28.1875 C40.14820313 26.92292969 40.17140625 25.65835938 40.1953125 24.35546875 C40.27581918 20.8661976 40.27581918 20.8661976 38 18 C38.66 17.67 39.32 17.34 40 17 C40 12.71 40 8.42 40 4 C38.68 3.67 37.36 3.34 36 3 C36.33 2.01 36.66 1.02 37 0 C39.79224073 -0.08071788 42.58216566 -0.14035408 45.375 -0.1875 C46.1690625 -0.21263672 46.963125 -0.23777344 47.78125 -0.26367188 C49.85586148 -0.29004405 51.93100865 -0.15486462 54 0 C54.66 0.99 55.32 1.98 56 3 C54.68 3.33 53.36 3.66 52 4 C51.94613371 6.12472576 51.90726929 8.24983652 51.875 10.375 C51.85179687 11.55835938 51.82859375 12.74171875 51.8046875 13.9609375 C51.67133771 17.11153817 51.67133771 17.11153817 54 19 C53.34 19.66 52.68 20.32 52 21 C51.75622117 24.35744112 51.75622117 24.35744112 51.875 28.125 C51.89304688 29.40632813 51.91109375 30.68765625 51.9296875 32.0078125 C51.95289063 32.99523437 51.97609375 33.98265625 52 35 C53.32 35.33 54.64 35.66 56 36 C55.67 36.99 55.34 37.98 55 39 C44 39 33 39 22 39 C21.87882812 38.33613281 21.75765625 37.67226562 21.6328125 36.98828125 C20.57481348 30.22314518 20.57481348 30.22314518 18 24 C16.35 23.67 14.7 23.34 13 23 C13.33 26.96 13.66 30.92 14 35 C14.99 35 15.98 35 17 35 C16.67 36.32 16.34 37.64 16 39 C10.39 39 4.78 39 -1 39 C-1.495 37.515 -1.495 37.515 -2 36 C-0.02 35.505 -0.02 35.505 2 35 C2.05398987 32.72942623 2.09278742 30.45848712 2.125 28.1875 C2.14820312 26.92292969 2.17140625 25.65835938 2.1953125 24.35546875 C2.27581918 20.8661976 2.27581918 20.8661976 0 18 C0.66 17.67 1.32 17.34 2 17 C2 12.71 2 8.42 2 4 C0.68 4 -0.64 4 -2 4 C-1.34 2.68 -0.68 1.36 0 0 Z M13 5 C12.9010706 7.16480797 12.870289 9.33293785 12.875 11.5 C12.87242187 12.6859375 12.86984375 13.871875 12.8671875 15.09375 C12.66789781 17.89259422 12.66789781 17.89259422 14 19 C16.45809998 19.2500773 16.45809998 19.2500773 19 19 C21.25075045 17.16888152 21.25075045 17.16888152 21.265625 14.46875 C21.26046875 13.4890625 21.2553125 12.509375 21.25 11.5 C21.25515625 10.5203125 21.2603125 9.540625 21.265625 8.53125 C21.25075045 5.83111848 21.25075045 5.83111848 19 4 C15.70990207 3.55239094 15.70990207 3.55239094 13 5 Z M6 9 C4.98797712 16.17757765 5.11173825 22.81191259 6 30 C6.33 30 6.66 30 7 30 C7 23.07 7 16.14 7 9 C6.67 9 6.34 9 6 9 Z M24 9 C24 10.98 24 12.96 24 15 C24.66 13.68 25.32 12.36 26 11 C25.34 10.34 24.68 9.68 24 9 Z M44 9 C42.98797712 16.17757765 43.11173825 22.81191259 44 30 C44.33 30 44.66 30 45 30 C45 23.07 45 16.14 45 9 C44.67 9 44.34 9 44 9 Z M24 27 C24 29.31 24 31.62 24 34 C24.33 34 24.66 34 25 34 C25 31.69 25 29.38 25 27 C24.67 27 24.34 27 24 27 Z " fill="#010101" transform="translate(120,50)"/>
<path d="M0 0 C2.7885289 -0.22107787 5.34653181 -0.28107535 8.125 -0.1875 C8.87910156 -0.17396484 9.63320312 -0.16042969 10.41015625 -0.14648438 C12.27374127 -0.11109985 14.13695978 -0.05729167 16 0 C16.33 1.32 16.66 2.64 17 4 C16.01 4 15.02 4 14 4 C13.67 8.62 13.34 13.24 13 18 C16.3 18 19.6 18 23 18 C22.67 13.38 22.34 8.76 22 4 C21.01 4 20.02 4 19 4 C19.33 2.68 19.66 1.36 20 0 C25.61 0 31.22 0 37 0 C37.495 1.485 37.495 1.485 38 3 C36.68 3.33 35.36 3.66 34 4 C33.94613371 6.12472576 33.90726929 8.24983652 33.875 10.375 C33.85179687 11.55835938 33.82859375 12.74171875 33.8046875 13.9609375 C33.67133771 17.11153817 33.67133771 17.11153817 36 19 C35.34 19.66 34.68 20.32 34 21 C33.75622117 24.35744112 33.75622117 24.35744112 33.875 28.125 C33.89304688 29.40632813 33.91109375 30.68765625 33.9296875 32.0078125 C33.95289063 32.99523437 33.97609375 33.98265625 34 35 C35.32 35.33 36.64 35.66 38 36 C37.67 36.99 37.34 37.98 37 39 C31.39 39 25.78 39 20 39 C19.67 37.68 19.34 36.36 19 35 C19.99 35 20.98 35 22 35 C22.33 30.71 22.66 26.42 23 22 C19.7 22 16.4 22 13 22 C13.33 26.29 13.66 30.58 14 35 C14.99 35 15.98 35 17 35 C16.67 36.32 16.34 37.64 16 39 C10.39 39 4.78 39 -1 39 C-1.495 37.515 -1.495 37.515 -2 36 C-0.02 35.505 -0.02 35.505 2 35 C2.05398987 32.72942623 2.09278742 30.45848712 2.125 28.1875 C2.14820313 26.92292969 2.17140625 25.65835938 2.1953125 24.35546875 C2.27581918 20.8661976 2.27581918 20.8661976 0 18 C0.66 17.67 1.32 17.34 2 17 C2 12.71 2 8.42 2 4 C0.68 3.67 -0.64 3.34 -2 3 C-1.34 2.01 -0.68 1.02 0 0 Z M6 9 C6 15.93 6 22.86 6 30 C6.33 30 6.66 30 7 30 C7 23.07 7 16.14 7 9 C6.67 9 6.34 9 6 9 Z M26 10 C26 16.6 26 23.2 26 30 C26.33 30 26.66 30 27 30 C27 23.4 27 16.8 27 10 C26.67 10 26.34 10 26 10 Z " fill="#010101" transform="translate(210,50)"/>
<path d="M0 0 C4.0609444 2.56768233 8.20017873 5.57122338 9.74609375 10.265625 C9.82988281 10.83796875 9.91367187 11.4103125 10 12 C9.278125 11.34 8.55625 10.68 7.8125 10 C4.78402067 7.8464147 3.60296594 7.58823246 0 8 C-0.66 9.65 -1.32 11.3 -2 13 C-2.66 13 -3.32 13 -4 13 C-4 13.99 -4 14.98 -4 16 C-3.34 16 -2.68 16 -2 16 C-2 19.3 -2 22.6 -2 26 C-4.31 24.02 -6.62 22.04 -9 20 C-8.34 18.68 -7.68 17.36 -7 16 C-6.83275263 12.83304044 -6.83275263 12.83304044 -7 10 C-8.9914056 9.61866701 -10.99279077 9.28674418 -13 9 C-14.38177162 10.1551251 -14.38177162 10.1551251 -14.125 13.3125 C-14.18638134 16.80349888 -14.18638134 16.80349888 -13.25 19.1875 C-13.12625 20.0846875 -13.12625 20.0846875 -13 21 C-14.9375 23.25 -14.9375 23.25 -17 25 C-14.50638429 23.79618552 -12.31856917 22.54571278 -10 21 C-9.34 22.32 -8.68 23.64 -8 25 C-9.65 26.98 -11.3 28.96 -13 31 C-10.03 28.525 -10.03 28.525 -7 26 C-3.125 27.875 -3.125 27.875 -2 29 C-1.95907063 31.33297433 -1.95758277 33.66705225 -2 36 C-1.34 36 -0.68 36 0 36 C0 29.07 0 22.14 0 15 C2.64 15 5.28 15 8 15 C8.20453151 18.37409559 8.32801449 21.74658992 8.4375 25.125 C8.49615234 26.07632813 8.55480469 27.02765625 8.61523438 28.0078125 C8.78458958 34.97556963 8.78458958 34.97556963 6.48095703 37.98339844 C2.21496268 41.6842066 -0.99647654 43.38480753 -6.78125 43.26953125 C-11.64603493 42.67856266 -15.41007964 40.68489348 -18.765625 37.12890625 C-23.21514731 31.415806 -25.46592426 26.64700507 -25.33203125 19.34375 C-24.87197788 16.09631445 -23.61618903 13.63412964 -21.97265625 10.82421875 C-20.90187499 9.0098408 -20.90187499 9.0098408 -20.51171875 6.8359375 C-20.34285156 6.23007812 -20.17398437 5.62421875 -20 5 C-17.75 3.9375 -17.75 3.9375 -15 3 C-13.9171875 2.195625 -13.9171875 2.195625 -12.8125 1.375 C-8.49099391 -0.73773631 -4.69551797 -1.10278782 0 0 Z " fill="#E0E0E0" transform="translate(51,30)"/>
<path d="M0 0 C3.54138618 -0.11681812 7.0822724 -0.187455 10.625 -0.25 C11.62402344 -0.28351562 12.62304688 -0.31703125 13.65234375 -0.3515625 C19.78595078 -0.43280233 23.35780063 -0.14320074 28 4 C29.75 6.5 29.75 6.5 31 9 C31.39832031 9.6290625 31.79664063 10.258125 32.20703125 10.90625 C33 13 33 13 32.27734375 15 C27.16254569 22.63491722 27.16254569 22.63491722 23 25 C19.96695638 25.59842513 17.10105592 25.81486233 14 26 C13.67 28.97 13.34 31.94 13 35 C14.65 35 16.3 35 18 35 C17.67 36.32 17.34 37.64 17 39 C11.06 39 5.12 39 -1 39 C-1.495 37.515 -1.495 37.515 -2 36 C-0.02 35.505 -0.02 35.505 2 35 C2.05398987 32.72942623 2.09278742 30.45848712 2.125 28.1875 C2.14820313 26.92292969 2.17140625 25.65835938 2.1953125 24.35546875 C2.27581918 20.8661976 2.27581918 20.8661976 0 18 C0.66 17.67 1.32 17.34 2 17 C2 12.71 2 8.42 2 4 C0.68 4 -0.64 4 -2 4 C-1.34 2.68 -0.68 1.36 0 0 Z M13 5 C12.87346802 7.49238569 12.81480175 9.94470441 12.8125 12.4375 C12.80025391 13.13166016 12.78800781 13.82582031 12.77539062 14.54101562 C12.77010158 16.36220901 12.87830793 18.1828692 13 20 C13.66 20.66 14.32 21.32 15 22 C17.78237655 21.59471099 17.78237655 21.59471099 20 20 C20.09975032 17.48863896 20.13882183 15.01096585 20.125 12.5 C20.12886719 11.79746094 20.13273437 11.09492187 20.13671875 10.37109375 C20.44390931 6.89571192 20.44390931 6.89571192 19 4 C15.71105107 3.59371033 15.71105107 3.59371033 13 5 Z M6 9 C4.98797712 16.17757765 5.11173825 22.81191259 6 30 C6.33 30 6.66 30 7 30 C7 23.07 7 16.14 7 9 C6.67 9 6.34 9 6 9 Z M24 11 C25 15 25 15 25 15 Z " fill="#010101" transform="translate(322,50)"/>
<path d="M0 0 C0.76828125 0.165 1.5365625 0.33 2.328125 0.5 C7.15736387 1.15759848 11.88406734 1.06656543 16.75 1 C18.64056856 0.97455493 20.53120292 0.95350005 22.421875 0.9375 C23.25299805 0.92589844 24.08412109 0.91429687 24.94042969 0.90234375 C27 1 27 1 29 2 C29 1.34 29 0.68 29 0 C31.475 0.495 31.475 0.495 34 1 C34.05383848 3.45862401 34.09359038 5.9160755 34.125 8.375 C34.14175781 9.07367188 34.15851563 9.77234375 34.17578125 10.4921875 C34.19344267 12.32897486 34.10303261 14.16601963 34 16 C33.34 16.66 32.68 17.32 32 18 C29.875 17.625 29.875 17.625 28 17 C28.0928125 15.39125 28.0928125 15.39125 28.1875 13.75 C27.99354778 9.87095557 27.79409267 8.59451462 25 6 C23.68 5.67 22.36 5.34 21 5 C21.495 11.93 21.495 11.93 22 19 C22.66 19 23.32 19 24 19 C24 19.66 24 20.32 24 21 C23.34 21 22.68 21 22 21 C22 25.62 22 30.24 22 35 C23.32 35.33 24.64 35.66 26 36 C25.67 37.32 25.34 38.64 25 40 C19.39 40 13.78 40 8 40 C7.67 38.68 7.34 37.36 7 36 C7.99 36 8.98 36 10 36 C10.02699725 33.72923158 10.04639453 31.45837179 10.0625 29.1875 C10.07410156 27.92292969 10.08570313 26.65835938 10.09765625 25.35546875 C10.16159116 22.00394763 10.16159116 22.00394763 9 19 C9.66 19 10.32 19 11 19 C11 14.38 11 9.76 11 5 C9.35 5.33 7.7 5.66 6 6 C4.6728739 9.9813783 4.93084087 13.85045227 5 18 C0.125 17.125 0.125 17.125 -1 16 C-1.28878033 13.88227757 -1.50650378 11.7546438 -1.6875 9.625 C-1.79449219 8.46226563 -1.90148437 7.29953125 -2.01171875 6.1015625 C-2 3 -2 3 0 0 Z M14 18 C15 21 15 21 15 21 Z " fill="#010101" transform="translate(251,49)"/>
<path d="M0 0 C1.32 0.66 2.64 1.32 4 2 C4.17835515 6.54805635 3.99785435 9.8794254 2 14 C0.68 14 -0.64 14 -2 14 C-0.44393191 16.72311916 0.95876294 18.95876294 3.1875 21.1875 C5.86272 25.33870345 5.93091227 29.195546 5 34 C2.47323961 37.34625024 0.96066458 38.67977847 -3 40 C-4.40824893 40.08021999 -5.81997231 40.10765977 -7.23046875 40.09765625 C-8.03291016 40.09443359 -8.83535156 40.09121094 -9.66210938 40.08789062 C-10.49548828 40.07951172 -11.32886719 40.07113281 -12.1875 40.0625 C-13.4549707 40.05573242 -13.4549707 40.05573242 -14.74804688 40.04882812 C-16.83206155 40.03705403 -18.91603977 40.0191189 -21 40 C-22.37685291 30.40193843 -22.37685291 30.40193843 -20 25 C-17.375 23.5625 -17.375 23.5625 -15 23 C-14.76729995 20.65673014 -14.76729995 20.65673014 -17.4375 18.5 C-18.283125 17.675 -19.12875 16.85 -20 16 C-21.76833979 12.46332043 -21.04403161 8.72018859 -20 5 C-17.30939751 2.17141789 -15.40931429 1.1509187 -11.51953125 0.734375 C-7.4994311 0.66311769 -3.87789218 0.90096604 0 2 C0 1.34 0 0.68 0 0 Z M-10 5 C-10.66 6.32 -11.32 7.64 -12 9 C-8.82460444 12.42578949 -8.82460444 12.42578949 -5 15 C-3.68 14.01 -2.36 13.02 -1 12 C-1.27034634 9.56282742 -1.27034634 9.56282742 -2 7 C-5.22791555 4.8480563 -6.28400809 4.79913557 -10 5 Z M-11 19 C-11 19.66 -11 20.32 -11 21 C-10.01 20.67 -9.02 20.34 -8 20 C-8.99 19.67 -9.98 19.34 -11 19 Z M-16 25 C-16.41953254 30.00593542 -16.41953254 30.00593542 -14.375 34.4375 C-11.34990088 36.42769679 -9.55600891 36.46382725 -6 36 C-3.7544296 34.12422973 -3.7544296 34.12422973 -3.4375 31.1875 C-4.08336376 27.52760535 -4.55304189 27.19968196 -7.4375 25.125 C-11.31691381 22.63277052 -11.91734331 22.89282236 -16 25 Z M-1 27 C0 29 0 29 0 29 Z " fill="#010101" transform="translate(480,49)"/>
<path d="M0 0 C1.32 0.66 2.64 1.32 4 2 C4.17835515 6.54805635 3.99785435 9.8794254 2 14 C0.68 14 -0.64 14 -2 14 C-0.44393191 16.72311916 0.95876294 18.95876294 3.1875 21.1875 C5.86272 25.33870345 5.93091227 29.195546 5 34 C2.47323961 37.34625024 0.96066458 38.67977847 -3 40 C-4.40824893 40.08021999 -5.81997231 40.10765977 -7.23046875 40.09765625 C-8.03291016 40.09443359 -8.83535156 40.09121094 -9.66210938 40.08789062 C-10.49548828 40.07951172 -11.32886719 40.07113281 -12.1875 40.0625 C-13.4549707 40.05573242 -13.4549707 40.05573242 -14.74804688 40.04882812 C-16.83206155 40.03705403 -18.91603977 40.0191189 -21 40 C-22.37685291 30.40193843 -22.37685291 30.40193843 -20 25 C-17.375 23.5625 -17.375 23.5625 -15 23 C-14.76729995 20.65673014 -14.76729995 20.65673014 -17.4375 18.5 C-18.283125 17.675 -19.12875 16.85 -20 16 C-21.76833979 12.46332043 -21.04403161 8.72018859 -20 5 C-17.30939751 2.17141789 -15.40931429 1.1509187 -11.51953125 0.734375 C-7.4994311 0.66311769 -3.87789218 0.90096604 0 2 C0 1.34 0 0.68 0 0 Z M-10 5 C-10.66 6.32 -11.32 7.64 -12 9 C-8.82460444 12.42578949 -8.82460444 12.42578949 -5 15 C-3.68 14.01 -2.36 13.02 -1 12 C-1.27034634 9.56282742 -1.27034634 9.56282742 -2 7 C-5.22791555 4.8480563 -6.28400809 4.79913557 -10 5 Z M-11 19 C-11 19.66 -11 20.32 -11 21 C-10.01 20.67 -9.02 20.34 -8 20 C-8.99 19.67 -9.98 19.34 -11 19 Z M-16 25 C-16.41953254 30.00593542 -16.41953254 30.00593542 -14.375 34.4375 C-11.34990088 36.42769679 -9.55600891 36.46382725 -6 36 C-3.7544296 34.12422973 -3.7544296 34.12422973 -3.4375 31.1875 C-4.08336376 27.52760535 -4.55304189 27.19968196 -7.4375 25.125 C-11.31691381 22.63277052 -11.91734331 22.89282236 -16 25 Z M-1 27 C0 29 0 29 0 29 Z " fill="#010101" transform="translate(450,49)"/>
<path d="M0 0 C1.32 0.66 2.64 1.32 4 2 C4.17835515 6.54805635 3.99785435 9.8794254 2 14 C0.68 14 -0.64 14 -2 14 C-0.44393191 16.72311916 0.95876294 18.95876294 3.1875 21.1875 C5.86272 25.33870345 5.93091227 29.195546 5 34 C2.47323961 37.34625024 0.96066458 38.67977847 -3 40 C-4.40824893 40.08021999 -5.81997231 40.10765977 -7.23046875 40.09765625 C-8.03291016 40.09443359 -8.83535156 40.09121094 -9.66210938 40.08789062 C-10.49548828 40.07951172 -11.32886719 40.07113281 -12.1875 40.0625 C-13.4549707 40.05573242 -13.4549707 40.05573242 -14.74804688 40.04882812 C-16.83206155 40.03705403 -18.91603977 40.0191189 -21 40 C-22.37685291 30.40193843 -22.37685291 30.40193843 -20 25 C-17.375 23.5625 -17.375 23.5625 -15 23 C-14.76729995 20.65673014 -14.76729995 20.65673014 -17.4375 18.5 C-18.283125 17.675 -19.12875 16.85 -20 16 C-21.76833979 12.46332043 -21.04403161 8.72018859 -20 5 C-17.30939751 2.17141789 -15.40931429 1.1509187 -11.51953125 0.734375 C-7.4994311 0.66311769 -3.87789218 0.90096604 0 2 C0 1.34 0 0.68 0 0 Z M-10 5 C-10.66 6.32 -11.32 7.64 -12 9 C-8.82460444 12.42578949 -8.82460444 12.42578949 -5 15 C-3.68 14.01 -2.36 13.02 -1 12 C-1.27034634 9.56282742 -1.27034634 9.56282742 -2 7 C-5.22791555 4.8480563 -6.28400809 4.79913557 -10 5 Z M-11 19 C-11 19.66 -11 20.32 -11 21 C-10.01 20.67 -9.02 20.34 -8 20 C-8.99 19.67 -9.98 19.34 -11 19 Z M-16 25 C-16.41953254 30.00593542 -16.41953254 30.00593542 -14.375 34.4375 C-11.34990088 36.42769679 -9.55600891 36.46382725 -6 36 C-3.7544296 34.12422973 -3.7544296 34.12422973 -3.4375 31.1875 C-4.08336376 27.52760535 -4.55304189 27.19968196 -7.4375 25.125 C-11.31691381 22.63277052 -11.91734331 22.89282236 -16 25 Z M-1 27 C0 29 0 29 0 29 Z " fill="#010101" transform="translate(201,49)"/>
<path d="M0 0 C1.32 0.66 2.64 1.32 4 2 C4.17835515 6.54805635 3.99785435 9.8794254 2 14 C0.68 14 -0.64 14 -2 14 C-0.44393191 16.72311916 0.95876294 18.95876294 3.1875 21.1875 C5.86272 25.33870345 5.93091227 29.195546 5 34 C2.47323961 37.34625024 0.96066458 38.67977847 -3 40 C-4.40824893 40.08021999 -5.81997231 40.10765977 -7.23046875 40.09765625 C-8.03291016 40.09443359 -8.83535156 40.09121094 -9.66210938 40.08789062 C-10.49548828 40.07951172 -11.32886719 40.07113281 -12.1875 40.0625 C-13.4549707 40.05573242 -13.4549707 40.05573242 -14.74804688 40.04882812 C-16.83206155 40.03705403 -18.91603977 40.0191189 -21 40 C-22.37685291 30.40193843 -22.37685291 30.40193843 -20 25 C-17.375 23.5625 -17.375 23.5625 -15 23 C-14.76729995 20.65673014 -14.76729995 20.65673014 -17.4375 18.5 C-18.283125 17.675 -19.12875 16.85 -20 16 C-21.76833979 12.46332043 -21.04403161 8.72018859 -20 5 C-17.30939751 2.17141789 -15.40931429 1.1509187 -11.51953125 0.734375 C-7.4994311 0.66311769 -3.87789218 0.90096604 0 2 C0 1.34 0 0.68 0 0 Z M-10 5 C-10.66 6.32 -11.32 7.64 -12 9 C-8.82460444 12.42578949 -8.82460444 12.42578949 -5 15 C-3.68 14.01 -2.36 13.02 -1 12 C-1.27034634 9.56282742 -1.27034634 9.56282742 -2 7 C-5.22791555 4.8480563 -6.28400809 4.79913557 -10 5 Z M-11 19 C-11 19.66 -11 20.32 -11 21 C-10.01 20.67 -9.02 20.34 -8 20 C-8.99 19.67 -9.98 19.34 -11 19 Z M-16 25 C-16.41953254 30.00593542 -16.41953254 30.00593542 -14.375 34.4375 C-11.34990088 36.42769679 -9.55600891 36.46382725 -6 36 C-3.7544296 34.12422973 -3.7544296 34.12422973 -3.4375 31.1875 C-4.08336376 27.52760535 -4.55304189 27.19968196 -7.4375 25.125 C-11.31691381 22.63277052 -11.91734331 22.89282236 -16 25 Z M-1 27 C0 29 0 29 0 29 Z " fill="#010101" transform="translate(111,49)"/>
<path d="M0 0 C7.90211944 -0.5746996 13.34215406 1.53492991 19.875 5.9375 C24.92564984 10.83960131 26.14060712 15.79154594 26.375 22.625 C26.28167885 28.99416817 25.10151075 34.01438582 21 39 C16.23916861 42.45745624 11.92006002 44.31714607 6 44 C6.763125 43.401875 7.52625 42.80375 8.3125 42.1875 C9.199375 41.465625 10.08625 40.74375 11 40 C11.53987549 39.56067139 12.07975098 39.12134277 12.63598633 38.66870117 C14.45931284 36.43808783 14.42511067 34.97134791 14.51171875 32.11328125 C14.54716797 31.17548828 14.58261719 30.23769531 14.61914062 29.27148438 C14.64169922 28.29501953 14.66425781 27.31855469 14.6875 26.3125 C14.72166016 25.32443359 14.75582031 24.33636719 14.79101562 23.31835938 C14.87350538 20.87901947 14.94265068 18.44003937 15 16 C12.36 16 9.72 16 7 16 C7 22.93 7 29.86 7 37 C6.34 37 5.68 37 5 37 C4.9175 35.88625 4.835 34.7725 4.75 33.625 C4.42126213 29.94246056 4.42126213 29.94246056 1.9375 28.5625 C1.298125 28.376875 0.65875 28.19125 0 28 C-0.928125 28.99 -0.928125 28.99 -1.875 30 C-4 32 -4 32 -6 32 C-4 28 -4 28 -2 24 C-5.00259517 23.66781808 -5.00259517 23.66781808 -6.6875 25.5 C-7.120625 25.995 -7.55375 26.49 -8 27 C-8.99 26.67 -9.98 26.34 -11 26 C-10.319375 25.4225 -9.63875 24.845 -8.9375 24.25 C-8.298125 23.5075 -7.65875 22.765 -7 22 C-7.20376178 20.09415804 -7.20376178 20.09415804 -8 18 C-8.1875 14.375 -8.1875 14.375 -8 11 C-7.34 10.34 -6.68 9.68 -6 9 C-0.43181818 9.56818182 -0.43181818 9.56818182 1 11 C1.2632246 14.94836905 1.08997373 17.60379269 -1 21 C0.65 22.65 2.3 24.3 4 26 C4.495 21.545 4.495 21.545 5 17 C4.34 17 3.68 17 3 17 C3 16.01 3 15.02 3 14 C3.66 14 4.32 14 5 14 C5.144375 13.195625 5.28875 12.39125 5.4375 11.5625 C6 9 6 9 7 8 C10.16620913 7.65770712 11.60483847 7.74367901 14.3125 9.5 C14.869375 9.995 15.42625 10.49 16 11 C15.06725891 9.87105124 14.12859878 8.74699124 13.1875 7.625 C12.66542969 6.99851562 12.14335938 6.37203125 11.60546875 5.7265625 C8.09786626 1.95439631 4.94563455 1.55988316 0 1 C0 0.67 0 0.34 0 0 Z " fill="#C5BDCE" transform="translate(44,29)"/>
<path d="M0 0 C2.4375 -0.375 2.4375 -0.375 5 0 C5.68255859 0.77150391 5.68255859 0.77150391 6.37890625 1.55859375 C7.90732338 3.25003824 7.90732338 3.25003824 10.15625 2.93359375 C10.9296875 2.76988281 11.703125 2.60617188 12.5 2.4375 C14.90625 2.07421875 14.90625 2.07421875 17 2 C19.51063345 4.19680427 19.94460537 5.83381612 21 9 C22.3921875 8.938125 22.3921875 8.938125 23.8125 8.875 C27 9 27 9 30 11 C30.40843923 13.71203652 30.13336867 16.2437142 30 19 C32.31 19.66 34.62 20.32 37 21 C38.46726798 24.81489674 37.43336419 27.29011622 36 31 C36.66 31.556875 37.32 32.11375 38 32.6875 C40 35 40 35 40.4375 37.5625 C40 40 40 40 38.4375 41.37109375 C36.7509498 42.90767068 36.7509498 42.90767068 37.06640625 45.15625 C37.31197266 46.31640625 37.31197266 46.31640625 37.5625 47.5 C37.92578125 49.90625 37.92578125 49.90625 38 52 C35.80319573 54.51063345 34.16618388 54.94460537 31 56 C30.855625 57.299375 30.71125 58.59875 30.5625 59.9375 C30.125 63.875 30.125 63.875 29 65 C26.32941149 65.14115161 23.67567762 65.04247107 21 65 C20.34 67.31 19.68 69.62 19 72 C15.18510326 73.46726798 12.70988378 72.43336419 9 71 C8.443125 71.66 7.88625 72.32 7.3125 73 C5 75 5 75 2.4375 75.4375 C0 75 0 75 -1.359375 73.453125 C-2.91726013 71.76191225 -2.91726013 71.76191225 -5.26171875 71.92578125 C-6.06222656 72.05339844 -6.86273438 72.18101563 -7.6875 72.3125 C-8.49574219 72.43238281 -9.30398437 72.55226563 -10.13671875 72.67578125 C-11.05904297 72.83626953 -11.05904297 72.83626953 -12 73 C-11.21625 72.4225 -10.4325 71.845 -9.625 71.25 C-6.69177764 69.03031695 -6.69177764 69.03031695 -5 65 C0.28 65 5.56 65 11 65 C11.33 65.99 11.66 66.98 12 68 C14.50447516 69.21869929 14.50447516 69.21869929 17 70 C17.33 68.02 17.66 66.04 18 64 C17.34 63.67 16.68 63.34 16 63 C16.99 63 17.98 63 19 63 C19.33 62.34 19.66 61.68 20 61 C20 61.66 20 62.32 20 63 C22.31 62.67 24.62 62.34 27 62 C27.33 59.69 27.66 57.38 28 55 C30.31 54.34 32.62 53.68 35 53 C34.34 50.69 33.68 48.38 33 46 C32.01 46 31.02 46 30 46 C30 40.72 30 35.44 30 30 C31.32 30 32.64 30 34 30 C34.33 27.69 34.66 25.38 35 23 C32.36 22.67 29.72 22.34 27 22 C27 19.03 27 16.06 27 13 C24.03 12.67 21.06 12.34 18 12 C17.34 10.02 16.68 8.04 16 6 C14.35 6.33 12.7 6.66 11 7 C11.33 7.99 11.66 8.98 12 10 C7.05 10 2.1 10 -3 10 C-3 9.34 -3 8.68 -3 8 C0.3 7.67 3.6 7.34 7 7 C6.01 6.01 5.02 5.02 4 4 C4 3.34 4 2.68 4 2 C2.02 2.33 0.04 2.66 -2 3 C-1.34 2.01 -0.68 1.02 0 0 Z " fill="#0D030F" transform="translate(46,14)"/>
<path d="M0 0 C2.79224073 -0.08071788 5.58216566 -0.14035408 8.375 -0.1875 C9.1690625 -0.21263672 9.963125 -0.23777344 10.78125 -0.26367188 C12.85586148 -0.29004405 14.93100865 -0.15486462 17 0 C17.66 0.99 18.32 1.98 19 3 C17.68 3.33 16.36 3.66 15 4 C14.94613371 6.12472576 14.90726929 8.24983652 14.875 10.375 C14.85179687 11.55835938 14.82859375 12.74171875 14.8046875 13.9609375 C14.67133771 17.11153817 14.67133771 17.11153817 17 19 C16.34 19.66 15.68 20.32 15 21 C14.75622117 24.35744112 14.75622117 24.35744112 14.875 28.125 C14.90207031 30.04699219 14.90207031 30.04699219 14.9296875 32.0078125 C14.95289063 32.99523437 14.97609375 33.98265625 15 35 C16.32 35.33 17.64 35.66 19 36 C18.67 36.99 18.34 37.98 18 39 C12.06 39 6.12 39 0 39 C-0.495 37.515 -0.495 37.515 -1 36 C0.98 35.505 0.98 35.505 3 35 C3.05398987 32.72942623 3.09278742 30.45848712 3.125 28.1875 C3.14820313 26.92292969 3.17140625 25.65835938 3.1953125 24.35546875 C3.27581918 20.8661976 3.27581918 20.8661976 1 18 C1.66 17.67 2.32 17.34 3 17 C3 12.71 3 8.42 3 4 C1.68 3.67 0.36 3.34 -1 3 C-0.67 2.01 -0.34 1.02 0 0 Z M7 9 C5.98797712 16.17757765 6.11173825 22.81191259 7 30 C7.33 30 7.66 30 8 30 C8 23.07 8 16.14 8 9 C7.67 9 7.34 9 7 9 Z " fill="#010101" transform="translate(287,50)"/>
<path d="M0 0 C3.82075603 0.67924552 5.16126424 2.30236307 7.58032227 5.24072266 C9.95516701 9.59515366 9.16108269 14.14870661 8.6875 18.9375 C8.61273438 19.95521484 8.53796875 20.97292969 8.4609375 22.02148438 C8.27339976 24.51808052 8.05665461 27.00841181 7.8125 29.5 C7.1525 29.5 6.4925 29.5 5.8125 29.5 C5.8125 22.57 5.8125 15.64 5.8125 8.5 C3.1725 8.5 0.5325 8.5 -2.1875 8.5 C-2.1875 15.43 -2.1875 22.36 -2.1875 29.5 C-2.8475 29.5 -3.5075 29.5 -4.1875 29.5 C-4.27 28.38625 -4.3525 27.2725 -4.4375 26.125 C-4.76623787 22.44246056 -4.76623787 22.44246056 -7.25 21.0625 C-7.889375 20.876875 -8.52875 20.69125 -9.1875 20.5 C-10.115625 21.49 -10.115625 21.49 -11.0625 22.5 C-13.1875 24.5 -13.1875 24.5 -15.1875 24.5 C-13.1875 20.5 -13.1875 20.5 -11.1875 16.5 C-14.19009517 16.16781808 -14.19009517 16.16781808 -15.875 18 C-16.308125 18.495 -16.74125 18.99 -17.1875 19.5 C-18.1775 19.17 -19.1675 18.84 -20.1875 18.5 C-19.506875 17.9225 -18.82625 17.345 -18.125 16.75 C-17.485625 16.0075 -16.84625 15.265 -16.1875 14.5 C-16.39126178 12.59415804 -16.39126178 12.59415804 -17.1875 10.5 C-17.375 6.875 -17.375 6.875 -17.1875 3.5 C-16.5275 2.84 -15.8675 2.18 -15.1875 1.5 C-9.61931818 2.06818182 -9.61931818 2.06818182 -8.1875 3.5 C-7.9242754 7.44836905 -8.09752627 10.10379269 -10.1875 13.5 C-8.5375 15.15 -6.8875 16.8 -5.1875 18.5 C-4.8575 15.53 -4.5275 12.56 -4.1875 9.5 C-4.8475 9.5 -5.5075 9.5 -6.1875 9.5 C-6.1875 8.51 -6.1875 7.52 -6.1875 6.5 C-5.5275 6.5 -4.8675 6.5 -4.1875 6.5 C-4.043125 5.695625 -3.89875 4.89125 -3.75 4.0625 C-3.0092168 0.68782098 -3.0092168 0.68782098 0 0 Z " fill="#232224" transform="translate(53.1875,36.5)"/>
<path d="M0 0 C0 0.66 0 1.32 0 2 C2.475 2.495 2.475 2.495 5 3 C1.95666885 3.91230293 -0.52868324 4.00070647 -3.6875 3.8125 C-9.08721595 3.74039697 -13.419944 5.14137735 -18 8 C-18.33 8.66 -18.66 9.32 -19 10 C-18.34 10.33 -17.68 10.66 -17 11 C-18.423125 11.0928125 -18.423125 11.0928125 -19.875 11.1875 C-20.90625 11.455625 -21.9375 11.72375 -23 12 C-24.36784258 14.25141979 -24.36784258 14.25141979 -25 17 C-25.50466797 18.16208984 -25.50466797 18.16208984 -26.01953125 19.34765625 C-28.36358629 25.68874539 -27.74057535 32.2038775 -25 38.3125 C-21.68360944 44.22187582 -17.21146445 47.53389666 -11.125 50.3125 C-6.78063277 51.26826079 -2.43115133 51.66722579 2 52 C2 52.99 2 53.98 2 55 C-7.68656405 55.74896114 -14.29658668 54.41166136 -22.03515625 48.42578125 C-28.40614798 42.62290343 -31.16423679 36.25769567 -31.625 27.6875 C-31.34588202 19.7419415 -28.67668283 12.7583869 -23.06640625 7.0234375 C-15.80608616 1.27745318 -9.12633872 -0.49579707 0 0 Z " fill="#CE913B" transform="translate(52,24)"/>
<path d="M0 0 C1.05584551 1.58376826 2.10125188 3.17785442 3.04296875 4.83203125 C7.4703174 12.49300656 12.71069535 16.95494931 21 20 C19.75368556 23.84280285 18.63951308 26.07319896 15 28 C12.875 28 12.875 28 11 27 C9.75 24.4375 9.75 24.4375 9 22 C6.98177083 21.83723958 4.96354167 21.67447917 2.9453125 21.51171875 C1 21 1 21 -1 18 C-0.625 14.8125 -0.625 14.8125 0 12 C-0.66 12 -1.32 12 -2 12 C-2 11.34 -2 10.68 -2 10 C-3.32 9.67 -4.64 9.34 -6 9 C-6 7.35 -6 5.7 -6 4 C-5.34 4 -4.68 4 -4 4 C-3.67 3.01 -3.34 2.02 -3 1 C-2.01 0.67 -1.02 0.34 0 0 Z " fill="#200C11" transform="translate(21,58)"/>
<path d="M0 0 C1.84276141 0.55282842 3.67482878 1.14160959 5.5 1.75 C7.18076231 1.11971413 8.84795544 0.45211894 10.5 -0.25 C11.49 -0.25 12.48 -0.25 13.5 -0.25 C15.6875 2.75 15.6875 2.75 17.5 5.75 C13.87 5.75 10.24 5.75 6.5 5.75 C6.17 6.74 5.84 7.73 5.5 8.75 C3.3203125 10.03125 3.3203125 10.03125 0.625 11.25 C-2.71350001 12.76838484 -4.95896439 14.13288547 -7.5 16.75 C-8.16 16.75 -8.82 16.75 -9.5 16.75 C-10.49 19.225 -10.49 19.225 -11.5 21.75 C-14.19461986 17.70807022 -13.73200889 15.5448504 -13.5 10.75 C-12.5 9.75 -12.5 9.75 -8.9375 9.6875 C-7.803125 9.708125 -6.66875 9.72875 -5.5 9.75 C-5.561875 8.656875 -5.62375 7.56375 -5.6875 6.4375 C-5.5 2.75 -5.5 2.75 -4.3125 0.75 C-2.5 -0.25 -2.5 -0.25 0 0 Z " fill="#0D030D" transform="translate(36.5,16.25)"/>
<path d="M0 0 C0.33 1.32 0.66 2.64 1 4 C1.99 3.67 2.98 3.34 4 3 C6.1519437 6.22791555 6.20086443 7.28400809 6 11 C4.02 11.66 2.04 12.32 0 13 C-0.144375 14.134375 -0.28875 15.26875 -0.4375 16.4375 C-1 20 -1 20 -2 21 C-4.67058851 21.14115161 -7.32432238 21.04247107 -10 21 C-10.66 23.31 -11.32 25.62 -12 28 C-16.75 27.25 -16.75 27.25 -19 25 C-18.67 24.34 -18.34 23.68 -18 23 C-18.99 22.67 -19.98 22.34 -21 22 C-20.443125 21.79246094 -19.88625 21.58492187 -19.3125 21.37109375 C-12.28927678 18.53570465 -5.99326109 15.16619642 -2.61328125 8.1015625 C-1.63095046 5.41997178 -0.75669322 2.75296941 0 0 Z " fill="#24080B" transform="translate(75,56)"/>
<path d="M0 0 C0.33 1.98 0.66 3.96 1 6 C1.95712891 5.98259766 1.95712891 5.98259766 2.93359375 5.96484375 C3.75988281 5.95582031 4.58617188 5.94679688 5.4375 5.9375 C6.26121094 5.92589844 7.08492187 5.91429687 7.93359375 5.90234375 C10 6 10 6 11 7 C11.14115161 9.67058851 11.04247107 12.32432238 11 15 C13.31 15.66 15.62 16.32 18 17 C17.67 19.31 17.34 21.62 17 24 C15.68 24 14.36 24 13 24 C12.67 24.99 12.34 25.98 12 27 C11.79246094 26.28714844 11.58492187 25.57429688 11.37109375 24.83984375 C9.20701933 18.11219817 6.9220757 13.08878772 1 9 C-2.25901437 7.40141777 -5.54848658 6.1180959 -9 5 C-8.01 4.34 -7.02 3.68 -6 3 C-6 2.01 -6 1.02 -6 0 C-3.50907189 -1.24546405 -2.58919267 -0.7767578 0 0 Z " fill="#2E090D" transform="translate(63,20)"/>
<path d="M0 0 C2.45657845 3.68486768 2.07631341 5.65013547 2 10 C2.2475 10.721875 2.495 11.44375 2.75 12.1875 C2.87375 13.0846875 2.87375 13.0846875 3 14 C1.0625 16.25 1.0625 16.25 -1 18 C-0.34 18.33 0.32 18.66 1 19 C0.67 19.99 0.34 20.98 0 22 C-0.33 21.34 -0.66 20.68 -1 20 C-2.32 20.33 -3.64 20.66 -5 21 C-5.33 20.01 -5.66 19.02 -6 18 C-6.66 18.99 -7.32 19.98 -8 21 C-9.74033467 17.51933065 -9.46436493 13.80538011 -9 10 C-7.90799175 7.10546285 -6.56490849 4.68968647 -5 2 C-3.68 2 -2.36 2 -1 2 C-0.67 1.34 -0.34 0.68 0 0 Z " fill="#D7D7D6" transform="translate(35,37)"/>
<path d="M0 0 C6.67654824 3.90853592 10.45570491 8.75809364 12.62109375 16.20703125 C14.16738518 23.61756 12.41123251 28.65619036 9.03515625 35.19140625 C8.54015625 36.18140625 8.54015625 36.18140625 8.03515625 37.19140625 C7.37515625 37.19140625 6.71515625 37.19140625 6.03515625 37.19140625 C6.45084417 34.69727874 6.80525689 32.59923538 8.0546875 30.3828125 C10.23028839 25.52021448 9.71705491 19.14274889 8.53515625 14.02734375 C6.24452654 8.11856029 2.27699993 4.61305821 -3.27734375 1.87890625 C-8.38730435 -0.19384267 -12.82840394 -1.11732403 -18.13671875 1.09765625 C-19.51173919 1.80022144 -20.86984513 2.53753282 -22.203125 3.31640625 C-23.96484375 4.19140625 -23.96484375 4.19140625 -26.96484375 4.19140625 C-25.96484375 1.19140625 -25.96484375 1.19140625 -24.25 0.0234375 C-15.75678549 -3.87239552 -8.44160742 -4.2729124 0 0 Z " fill="#1F0C07" transform="translate(59.96484375,29.80859375)"/>
<path d="M0 0 C0.66 0 1.32 0 2 0 C1.46276275 2.68618627 0.65913857 4.69535733 -0.5625 7.1875 C-2.81055689 12.44415044 -2.94050857 17.19519445 -1.12109375 22.62109375 C1.55819545 28.57212224 4.35352802 31.75850683 10 35 C16.20843435 37.06947812 23.63665572 37.01868288 29.625 34.4375 C30.40875 33.963125 31.1925 33.48875 32 33 C32.99 33.33 33.98 33.66 35 34 C29.68053463 38.83587761 24.23652989 40.48230407 17.0390625 40.24609375 C10.15531099 39.41529615 4.52833759 36.20978645 0 31 C-4.00393322 25.23676279 -5.80862334 19.79066527 -5.5078125 12.76171875 C-4.63842102 8.03356663 -2.47659969 4.07754449 0 0 Z " fill="#281508" transform="translate(29,36)"/>
<path d="M0 0 C2.4375 -0.375 2.4375 -0.375 5 0 C5.45503906 0.51433594 5.91007812 1.02867188 6.37890625 1.55859375 C7.90732338 3.25003824 7.90732338 3.25003824 10.15625 2.93359375 C10.9296875 2.76988281 11.703125 2.60617188 12.5 2.4375 C14.90625 2.07421875 14.90625 2.07421875 17 2 C19.51063345 4.19680427 19.94460537 5.83381612 21 9 C21.928125 8.95875 22.85625 8.9175 23.8125 8.875 C27 9 27 9 30 11 C30.40843923 13.71203652 30.13336867 16.2437142 30 19 C30.66 19 31.32 19 32 19 C32 19.66 32 20.32 32 21 C30.35 21.33 28.7 21.66 27 22 C27 19.03 27 16.06 27 13 C24.03 12.67 21.06 12.34 18 12 C17.34 10.02 16.68 8.04 16 6 C14.35 6.33 12.7 6.66 11 7 C11.33 7.99 11.66 8.98 12 10 C7.05 10 2.1 10 -3 10 C-3 9.34 -3 8.68 -3 8 C0.3 7.67 3.6 7.34 7 7 C6.01 6.01 5.02 5.02 4 4 C4 3.34 4 2.68 4 2 C2.02 2.33 0.04 2.66 -2 3 C-1.34 2.01 -0.68 1.02 0 0 Z " fill="#0B040A" transform="translate(46,14)"/>
<path d="M0 0 C1.43229167 1.26953125 2.86458333 2.5390625 4.296875 3.80859375 C6.22072255 5.15440454 7.72067066 5.48970239 10 6 C11.59586121 6.65789642 13.17936107 7.34647343 14.75 8.0625 C15.54921875 8.42472656 16.3484375 8.78695312 17.171875 9.16015625 C17.77515625 9.43730469 18.3784375 9.71445313 19 10 C17.74155722 13.88019859 16.57583797 15.9411842 13 18 C12.01 18 11.02 18 10 18 C9.86464844 17.44570312 9.72929688 16.89140625 9.58984375 16.3203125 C8.90600079 14.01899667 8.22491825 12.06968946 7 10 C3.45136841 8.38864654 3.45136841 8.38864654 0 8 C0 5.36 0 2.72 0 0 Z " fill="#22080E" transform="translate(23,68)"/>
<path d="M0 0 C5.56818182 0.56818182 5.56818182 0.56818182 7 2 C7.26905199 6.03577989 6.93896871 8.48561922 5 12 C5 12.99 5 13.98 5 15 C4.01 14.67 3.02 14.34 2 14 C0.68 15.32 -0.64 16.64 -2 18 C-2.99 17.67 -3.98 17.34 -5 17 C-4.319375 16.4225 -3.63875 15.845 -2.9375 15.25 C-2.298125 14.5075 -1.65875 13.765 -1 13 C-1.20376178 11.09415804 -1.20376178 11.09415804 -2 9 C-2.1875 5.375 -2.1875 5.375 -2 2 C-1.34 1.34 -0.68 0.68 0 0 Z " fill="#161616" transform="translate(38,38)"/>
<path d="M0 0 C0.33 0.99 0.66 1.98 1 3 C3.64 3 6.28 3 9 3 C9 3.33 9 3.66 9 4 C6.36 4 3.72 4 1 4 C1 10.93 1 17.86 1 25 C0.34 25 -0.32 25 -1 25 C-1.0825 23.88625 -1.165 22.7725 -1.25 21.625 C-1.57873787 17.94246056 -1.57873787 17.94246056 -4.0625 16.5625 C-4.701875 16.376875 -5.34125 16.19125 -6 16 C-6.928125 16.99 -6.928125 16.99 -7.875 18 C-10 20 -10 20 -12 20 C-10.50163895 16.88801935 -8.80066242 13.9465385 -7 11 C-3.125 12.875 -3.125 12.875 -2 14 C-1.67 11.03 -1.34 8.06 -1 5 C-1.66 5 -2.32 5 -3 5 C-3 4.01 -3 3.02 -3 2 C-2.01 1.34 -1.02 0.68 0 0 Z " fill="#080909" transform="translate(50,41)"/>
<path d="M0 0 C7.90211944 -0.5746996 13.34215406 1.53492991 19.875 5.9375 C22.13762116 8.13357348 23.59207459 10.18414919 25 13 C25 13.66 25 14.32 25 15 C24.01 15.33 23.02 15.66 22 16 C21.67 15.01 21.34 14.02 21 13 C19.02 13.99 19.02 13.99 17 15 C16.649375 13.96875 16.29875 12.9375 15.9375 11.875 C14.0116019 7.42644664 11.14091618 4.4963568 7 2 C4.55392435 1.27805146 2.57445602 1.10507984 0 1 C0 0.67 0 0.34 0 0 Z " fill="#B6B1BB" transform="translate(44,29)"/>
<path d="M0 0 C0.33 0 0.66 0 1 0 C1 4.29 1 8.58 1 13 C1.99 13 2.98 13 4 13 C4 16.3 4 19.6 4 23 C2.44424022 23.84584998 0.8800388 24.67618399 -0.6875 25.5 C-1.55761719 25.9640625 -2.42773438 26.428125 -3.32421875 26.90625 C-6.11788829 28.04818792 -8.01629113 28.21504208 -11 28 C-10.236875 27.401875 -9.47375 26.80375 -8.6875 26.1875 C-6.08429709 24.1719574 -6.08429709 24.1719574 -4.375 22.25 C-3 21 -3 21 0 21 C0 14.07 0 7.14 0 0 Z " fill="#ABA6AD" transform="translate(61,45)"/>
<path d="M0 0 C0.33 1.32 0.66 2.64 1 4 C-1.31 4.33 -3.62 4.66 -6 5 C-6 8.96 -6 12.92 -6 17 C-6.66 17 -7.32 17 -8 17 C-8 16.01 -8 15.02 -8 14 C-9.98 14.66 -11.96 15.32 -14 16 C-14.33 17.65 -14.66 19.3 -15 21 C-17 18 -17 18 -16.9375 16 C-15.60308537 13.15324879 -13.77302075 12.35269305 -11 11 C-10.34 11 -9.68 11 -9 11 C-9.061875 9.72125 -9.12375 8.4425 -9.1875 7.125 C-9.29296875 4.9453125 -9.29296875 4.9453125 -9 3 C-6 1 -6 1 -2.8125 1.375 C-1.884375 1.58125 -0.95625 1.7875 0 2 C0 1.34 0 0.68 0 0 Z " fill="#080109" transform="translate(30,22)"/>
<path d="M0 0 C0.928125 0.474375 1.85625 0.94875 2.8125 1.4375 C8.25257975 3.91753636 14.15580165 3.59419777 20 3 C23.48706685 1.59501588 23.48706685 1.59501588 26 0 C26.99 0.33 27.98 0.66 29 1 C23.67463614 5.84123987 18.25350792 7.45388932 11.0546875 7.2578125 C5.83672398 6.60308704 1.55521509 4.90526703 -2 1 C-1.34 0.67 -0.68 0.34 0 0 Z " fill="#311A0A" transform="translate(35,69)"/>
<path d="M0 0 C0.33 1.98 0.66 3.96 1 6 C1.66 6 2.32 6 3 6 C4.7143618 7.95927063 6.38405168 9.95880212 8 12 C7.34 12.66 6.68 13.32 6 14 C5.5875 13.60167969 5.175 13.20335937 4.75 12.79296875 C0.39728536 8.7997417 -3.37029996 6.77780001 -9 5 C-8.01 4.34 -7.02 3.68 -6 3 C-6 2.01 -6 1.02 -6 0 C-3.50907189 -1.24546405 -2.58919267 -0.7767578 0 0 Z " fill="#2E0E0B" transform="translate(63,20)"/>
<path d="M0 0 C3.54739469 3.54739469 3.90520719 8.0204743 4.375 12.875 C4.27023365 17.7513975 2.20276508 21.73601299 0 26 C-0.33 26.66 -0.66 27.32 -1 28 C-1.66 28 -2.32 28 -3 28 C-2.58397753 25.50386521 -2.2347499 23.41148177 -0.97265625 21.19921875 C0.27842612 18.37046625 0.23027043 16.14585939 0.1875 13.0625 C0.18105469 12.04285156 0.17460938 11.02320313 0.16796875 9.97265625 C0.07484106 7.01767609 0.07484106 7.01767609 -0.57421875 4.24609375 C-1 2 -1 2 0 0 Z " fill="#391E13" transform="translate(69,39)"/>
<path d="M0 0 C0 0.99 0 1.98 0 3 C0.66 3.33 1.32 3.66 2 4 C1.690625 4.61875 1.38125 5.2375 1.0625 5.875 C-0.4039278 10.18802294 -0.66619026 14.4759996 -1 19 C-1.33 19 -1.66 19 -2 19 C-2 15.7 -2 12.4 -2 9 C-3.65 8.67 -5.3 8.34 -7 8 C-7.1875 5.125 -7.1875 5.125 -7 2 C-4 0 -4 0 0 0 Z " fill="#28090B" transform="translate(22,36)"/>
<path d="M0 0 C2 3 2 3 2 5 C1 7 1 7 -2 8.25 C-5.12301033 9.61507126 -5.12301033 9.61507126 -5.58203125 11.9296875 C-5.79379538 13.94683057 -5.90197461 15.97414186 -6 18 C-7 19 -7 19 -8.84765625 19.09765625 C-10.8984375 19.06510417 -12.94921875 19.03255208 -15 19 C-15.33 20.65 -15.66 22.3 -16 24 C-16.33 24 -16.66 24 -17 24 C-17 22.02 -17 20.04 -17 18 C-14.36 17.34 -11.72 16.68 -9 16 C-8.67 13.69 -8.34 11.38 -8 9 C-5.69 8.34 -3.38 7.68 -1 7 C-0.67 4.69 -0.34 2.38 0 0 Z " fill="#040108" transform="translate(82,60)"/>
<path d="M0 0 C2.475 0.495 2.475 0.495 5 1 C5 3.31 5 5.62 5 8 C5.66 8 6.32 8 7 8 C7 11.3 7 14.6 7 18 C4.69 16.02 2.38 14.04 0 12 C0.66 10.68 1.32 9.36 2 8 C2.33361919 4.91608998 2.33361919 4.91608998 2 2 C1.34 1.34 0.68 0.68 0 0 Z " fill="#E3E3E3" transform="translate(42,38)"/>
<path d="M0 0 C0.66 0.99 1.32 1.98 2 3 C3.99954746 3.04254356 6.00041636 3.04080783 8 3 C8.99 3.66 9.98 4.32 11 5 C11.40843923 7.71203652 11.13336867 10.2437142 11 13 C11.66 13 12.32 13 13 13 C13 13.66 13 14.32 13 15 C11.35 15.33 9.7 15.66 8 16 C8 13.03 8 10.06 8 7 C5.03 6.67 2.06 6.34 -1 6 C-0.67 4.02 -0.34 2.04 0 0 Z " fill="#030107" transform="translate(65,20)"/>
<path d="M0 0 C5.28 0 10.56 0 16 0 C13.41073669 2.58926331 11.97294721 2.37398043 8.375 2.625 C7.37210938 2.69976562 6.36921875 2.77453125 5.3359375 2.8515625 C4.56507812 2.90054688 3.79421875 2.94953125 3 3 C2.67 3.99 2.34 4.98 2 6 C-0.06640625 6.73046875 -0.06640625 6.73046875 -2.5625 7.1875 C-3.38878906 7.34605469 -4.21507812 7.50460938 -5.06640625 7.66796875 C-6.02353516 7.83232422 -6.02353516 7.83232422 -7 8 C-6.21625 7.4225 -5.4325 6.845 -4.625 6.25 C-1.69177764 4.03031695 -1.69177764 4.03031695 0 0 Z " fill="#110208" transform="translate(41,79)"/>
<path d="M0 0 C0.66 0 1.32 0 2 0 C3.20568053 4.67201205 3.09382426 9.21496292 3 14 C1.02 14.99 1.02 14.99 -1 16 C-1.02685095 13.52076199 -1.04676547 11.0418116 -1.0625 8.5625 C-1.07506836 7.50192383 -1.07506836 7.50192383 -1.08789062 6.41992188 C-1.09653588 4.61306441 -1.05220011 2.80612397 -1 1 C-0.67 0.67 -0.34 0.34 0 0 Z " fill="#CFCBD0" transform="translate(63,42)"/>
<path d="M0 0 C1.11808343 3.3542503 1.3996679 5.70666377 0 9 C-3.500279 11.41965596 -6.72121879 13 -11 13 C-11 12.34 -11 11.68 -11 11 C-11.66 10.67 -12.32 10.34 -13 10 C-12.37351563 9.80664062 -11.74703125 9.61328125 -11.1015625 9.4140625 C-10.28429688 9.15367188 -9.46703125 8.89328125 -8.625 8.625 C-7.81289063 8.36976562 -7.00078125 8.11453125 -6.1640625 7.8515625 C-3.83540815 7.10145717 -3.83540815 7.10145717 -2 5 C-2.33 4.34 -2.66 3.68 -3 3 C-2.01 3 -1.02 3 0 3 C0 2.01 0 1.02 0 0 Z " fill="#CD7B35" transform="translate(65,65)"/>
<path d="M0 0 C0.66 0 1.32 0 2 0 C2.33 2.31 2.66 4.62 3 7 C4.11375 7.2475 5.2275 7.495 6.375 7.75 C10 9 10 9 11.5 10.9375 C12 13 12 13 11 16 C10.34 14.35 9.68 12.7 9 11 C6.98177083 10.83723958 4.96354167 10.67447917 2.9453125 10.51171875 C1 10 1 10 -1 7 C-0.625 3.3125 -0.625 3.3125 0 0 Z " fill="#03010A" transform="translate(21,69)"/>
<path d="M0 0 C0.04241723 2.33294775 0.04092937 4.66702567 0 7 C-1 8 -1 8 -4.5625 8.0625 C-5.696875 8.041875 -6.83125 8.02125 -8 8 C-6.78549285 4.35647855 -4.23741046 0 0 0 Z " fill="#4E4477" transform="translate(74,69)"/>
<path d="M0 0 C1.15224028 0.92961422 2.29659176 1.8690125 3.4375 2.8125 C4.07558594 3.33457031 4.71367187 3.85664062 5.37109375 4.39453125 C7 6 7 6 8 9 C5.66705225 9.04241723 3.33297433 9.04092937 1 9 C0 8 0 8 -0.09765625 6.15234375 C-0.06510417 4.1015625 -0.03255208 2.05078125 0 0 Z " fill="#5F5482" transform="translate(23,68)"/>
<path d="M0 0 C6.59635818 -0.47973514 11.23534724 0.72299823 17 4 C17.66 4.66 18.32 5.32 19 6 C16.60744429 6.85448418 15.416649 7.15624337 13 6.25 C11 5 11 5 9.1875 3.4375 C6.22474713 1.49054811 3.4849683 1.33509311 0 1 C0 0.67 0 0.34 0 0 Z " fill="#ADA9AF" transform="translate(44,29)"/>
<path d="M0 0 C2.33294775 -0.04241723 4.66702567 -0.04092937 7 0 C8 1 8 1 8.0625 4.5625 C8.041875 5.696875 8.02125 6.83125 8 8 C4.27382578 6.75794193 2.60708543 4.8889325 0 2 C0 1.34 0 0.68 0 0 Z " fill="#524478" transform="translate(66,26)"/>
<path d="M0 0 C1.134375 0.020625 2.26875 0.04125 3.4375 0.0625 C2.19544193 3.78867422 0.3264325 5.45541457 -2.5625 8.0625 C-3.2225 8.0625 -3.8825 8.0625 -4.5625 8.0625 C-4.60491723 5.72955225 -4.60342937 3.39547433 -4.5625 1.0625 C-3.5625 0.0625 -3.5625 0.0625 0 0 Z " fill="#60578B" transform="translate(27.5625,25.9375)"/>
<path d="M0 0 C0.99 0 1.98 0 3 0 C5.1875 3 5.1875 3 7 6 C3.37 6 -0.26 6 -4 6 C-2.1875 3 -2.1875 3 0 0 Z " fill="#62548A" transform="translate(47,16)"/>
<path d="M0 0 C0 0.33 0 0.66 0 1 C-2.97 1 -5.94 1 -9 1 C-9 1.66 -9 2.32 -9 3 C-10.26691507 3.67408308 -11.53870749 4.33900497 -12.8125 5 C-13.52019531 5.37125 -14.22789063 5.7425 -14.95703125 6.125 C-17 7 -17 7 -20 7 C-19 4 -19 4 -17.28515625 2.83203125 C-11.35668627 0.1126452 -6.48611476 -0.48747418 0 0 Z " fill="#351D07" transform="translate(53,27)"/>
<path d="M0 0 C3.63 0 7.26 0 11 0 C9.35 1.98 7.7 3.96 6 6 C3.97945196 4.35830472 1.97956942 2.69088222 0 1 C0 0.67 0 0.34 0 0 Z " fill="#554C7D" transform="translate(43,81)"/>
<path d="M0 0 C0.75 1.5625 0.75 1.5625 1 4 C-0.13084437 6.50286409 -1.52139516 8.67007722 -3 11 C-3.66 10.67 -4.32 10.34 -5 10 C-4.67 8.02 -4.34 6.04 -4 4 C-4.66 4 -5.32 4 -6 4 C-5.67 3.34 -5.34 2.68 -5 2 C-4.01 2 -3.02 2 -2 2 C-1.34 1.34 -0.68 0.68 0 0 Z " fill="#BCB8C0" transform="translate(69,54)"/>
<path d="M0 0 C1.98 1.65 3.96 3.3 6 5 C4.71937515 6.7074998 3.38232443 8.37373596 2 10 C1.34 10 0.68 10 0 10 C0 6.7 0 3.4 0 0 Z " fill="#5B4C86" transform="translate(78,46)"/>
<path d="M0 0 C0 3.63 0 7.26 0 11 C-1.65 9.68 -3.3 8.36 -5 7 C-4.53479806 4.30182875 -3.4249099 0 0 0 Z " fill="#685D8E" transform="translate(19,46)"/>
<path d="M0 0 C0.99 0.33 1.98 0.66 3 1 C-0.90454883 4.66790951 -3.65839089 5.72370987 -9 6 C-11.34260643 5.7397104 -13.6817571 5.42579972 -16 5 C-16 4.67 -16 4.34 -16 4 C-15.09636719 3.87882812 -14.19273438 3.75765625 -13.26171875 3.6328125 C-12.08222656 3.46523437 -10.90273438 3.29765625 -9.6875 3.125 C-8.51574219 2.96257812 -7.34398437 2.80015625 -6.13671875 2.6328125 C-2.85469105 2.17699379 -2.85469105 2.17699379 0 0 Z " fill="#331D16" transform="translate(61,69)"/>
<path d="M0 0 C1 1 1 1 1.0625 4.5625 C1.041875 5.696875 1.02125 6.83125 1 8 C-1 5 -1 5 -2 3 C-5.60992379 3.65585189 -5.60992379 3.65585189 -9 5 C-8.1875 2.5625 -8.1875 2.5625 -7 0 C-3.86350275 -1.04549908 -3.0051095 -1.00170317 0 0 Z " fill="#190213" transform="translate(64,17)"/>
<path d="M0 0 C3.16115776 1.36983503 3.9927092 1.9890638 6 5 C5.01 5 4.02 5 3 5 C1.01669827 5.86649466 1.01669827 5.86649466 -1 7 C-2.33333333 7.66666667 -3.66666667 8.33333333 -5 9 C-3.50163895 5.88801935 -1.80066242 2.9465385 0 0 Z " fill="#121212" transform="translate(43,52)"/>
<path d="M0 0 C2.89932357 2.39509338 3.50168276 4.31245243 4 8 C1.03 7.505 1.03 7.505 -2 7 C-1.125 1.125 -1.125 1.125 0 0 Z " fill="#CE5CA0" transform="translate(18,59)"/>
<path d="M0 0 C1.5625 1.25 1.5625 1.25 3 3 C2.6875 5.1875 2.6875 5.1875 2 7 C0.35 7.33 -1.3 7.66 -3 8 C-2.25 2.25 -2.25 2.25 0 0 Z " fill="#B04193" transform="translate(78,59)"/>
<path d="M0 0 C-0.875 4.75 -0.875 4.75 -2 7 C-2.99 7 -3.98 7 -5 7 C-5.33 5.02 -5.66 3.04 -6 1 C-4 0 -4 0 0 0 Z " fill="#CE5BA1" transform="translate(22,36)"/>
<path d="M0 0 C0.598125 0.20625 1.19625 0.4125 1.8125 0.625 C2.1425 2.275 2.4725 3.925 2.8125 5.625 C-0.0625 5.3125 -0.0625 5.3125 -3.1875 4.625 C-3.8475 3.635 -4.5075 2.645 -5.1875 1.625 C-2.1875 -0.375 -2.1875 -0.375 0 0 Z " fill="#B04191" transform="translate(61.1875,19.375)"/>
<path d="M0 0 C3.68754757 0.49831724 5.60490662 1.10067643 8 4 C5.35261084 5.4606285 4.10551666 6 1 6 C0.67 4.02 0.34 2.04 0 0 Z " fill="#D25CA1" transform="translate(33,78)"/>
<path d="M0 0 C-0.33 1.98 -0.66 3.96 -1 6 C-5.75 5.25 -5.75 5.25 -8 3 C-3.375 0 -3.375 0 0 0 Z " fill="#B54095" transform="translate(64,78)"/>
<path d="M0 0 C1.65 0.33 3.3 0.66 5 1 C5.33 5.62 5.66 10.24 6 15 C5.01 15 4.02 15 3 15 C3 11.04 3 7.08 3 3 C1.68 2.67 0.36 2.34 -1 2 C-0.67 1.34 -0.34 0.68 0 0 Z " fill="#0B0106" transform="translate(15,44)"/>
<path d="M0 0 C2.97 0.495 2.97 0.495 6 1 C5.67 2.65 5.34 4.3 5 6 C4.01 6.33 3.02 6.66 2 7 C0.5393715 4.35261084 0 3.10551666 0 0 Z " fill="#B54396" transform="translate(75,36)"/>
<path d="M0 0 C1.65 0.33 3.3 0.66 5 1 C5.33 1.99 5.66 2.98 6 4 C3.35261084 5.4606285 2.10551666 6 -1 6 C-0.67 4.02 -0.34 2.04 0 0 Z " fill="#D55FA4" transform="translate(34,19)"/>
<path d="M0 0 C2.31 0 4.62 0 7 0 C7 0.66 7 1.32 7 2 C8.65 2.33 10.3 2.66 12 3 C8.87819599 3.96661363 6.47916205 3.98988909 3.25 3.5625 C2.05117188 3.40974609 2.05117188 3.40974609 0.828125 3.25390625 C0.22484375 3.17011719 -0.3784375 3.08632813 -1 3 C-0.67 2.01 -0.34 1.02 0 0 Z " fill="#DC953E" transform="translate(45,24)"/>
<path d="M0 0 C0.99 0.33 1.98 0.66 3 1 C1.71034824 2.37562854 0.37310707 3.70766393 -1 5 C-1.66 5 -2.32 5 -3 5 C-3.66 6.65 -4.32 8.3 -5 10 C-5.66 8.68 -6.32 7.36 -7 6 C-5.90716423 4.96704564 -4.80029421 3.94892165 -3.6875 2.9375 C-3.07261719 2.36902344 -2.45773438 1.80054687 -1.82421875 1.21484375 C-0.92123047 0.61349609 -0.92123047 0.61349609 0 0 Z " fill="#2B130C" transform="translate(30,28)"/>
<path d="M0 0 C0.99 0 1.98 0 3 0 C4.38671875 1.53125 4.38671875 1.53125 5.6875 3.5 C6.12449219 4.1496875 6.56148437 4.799375 7.01171875 5.46875 C7.33785156 5.9740625 7.66398437 6.479375 8 7 C4 7 4 7 2.3125 5.75 C0.87148345 3.8286446 0.40501203 2.34906978 0 0 Z " fill="#D9973F" transform="translate(26,65)"/>
<path d="M0 0 C1.65 0 3.3 0 5 0 C4.67 1.65 4.34 3.3 4 5 C2.68 5 1.36 5 0 5 C0 3.35 0 1.7 0 0 Z " fill="#DBDBD8" transform="translate(38,41)"/>
<path d="M0 0 C0.33 0 0.66 0 1 0 C1.3125 2.1875 1.3125 2.1875 1 5 C-1.5 7.8125 -1.5 7.8125 -4 10 C-4.8125 8.375 -4.8125 8.375 -5 6 C-3.54854104 3.70232365 -1.89569037 1.98596134 0 0 Z " fill="#03010C" transform="translate(85,49)"/>
<path d="M0 0 C0.66 0 1.32 0 2 0 C2 0.99 2 1.98 2 3 C2.66 3.33 3.32 3.66 4 4 C1.03 5.32 -1.94 6.64 -5 8 C-5 7.01 -5 6.02 -5 5 C-3.02 4.34 -1.04 3.68 1 3 C0.67 2.01 0.34 1.02 0 0 Z " fill="#2E0B0C" transform="translate(39,20)"/>
<path d="M0 0 C-1.41519715 2.0343459 -2.54982123 2.90410393 -4.98046875 3.421875 C-6.98176954 3.66273952 -8.9909944 3.83532741 -11 4 C-7.26280719 0.48264206 -5.13496308 -0.47767098 0 0 Z " fill="#B6B4BA" transform="translate(61,69)"/>
<path d="M0 0 C1.65 0 3.3 0 5 0 C5.66 1.32 6.32 2.64 7 4 C6.34 4.66 5.68 5.32 5 6 C3.2925002 4.71937515 1.62626404 3.38232443 0 2 C0 1.34 0 0.68 0 0 Z " fill="#D6D6D4" transform="translate(32,65)"/>
<path d="M0 0 C0.99 0.66 1.98 1.32 3 2 C1.63016497 5.16115776 1.0109362 5.9927092 -2 8 C-2.33 7.01 -2.66 6.02 -3 5 C-2.34 5 -1.68 5 -1 5 C-1.33 4.01 -1.66 3.02 -2 2 C-1.34 1.34 -0.68 0.68 0 0 Z " fill="#D1D1D1" transform="translate(40,51)"/>
<path d="M0 0 C1.9375 0.375 1.9375 0.375 4 1 C5.35439668 3.70879335 5.06501451 6.00933268 5 9 C4.34 8.01 3.68 7.02 3 6 C2.34 5.34 1.68 4.68 1 4 C0.375 1.875 0.375 1.875 0 0 Z " fill="#140517" transform="translate(77,56)"/>
<path d="M0 0 C2.475 0.495 2.475 0.495 5 1 C5.3125 4.25 5.3125 4.25 5 8 C2.5 10.4375 2.5 10.4375 0 12 C0.33 11.46375 0.66 10.9275 1 10.375 C2.24964598 7.4070908 2.27756584 5.19200721 2 2 C1.34 1.34 0.68 0.68 0 0 Z " fill="#CDCDCD" transform="translate(42,38)"/>
<path d="M0 0 C5.875 0.875 5.875 0.875 7 2 C7.04063832 3.66617115 7.042721 5.33388095 7 7 C6.34 7 5.68 7 5 7 C5 5.68 5 4.36 5 3 C4.360625 2.87625 3.72125 2.7525 3.0625 2.625 C2.381875 2.41875 1.70125 2.2125 1 2 C0.67 1.34 0.34 0.68 0 0 Z " fill="#282625" transform="translate(38,38)"/>
<path d="M0 0 C0.763125 0.20625 1.52625 0.4125 2.3125 0.625 C2.6425 1.945 2.9725 3.265 3.3125 4.625 C2.3225 4.955 1.3325 5.285 0.3125 5.625 C0.3125 4.635 0.3125 3.645 0.3125 2.625 C-2.6575 2.13 -2.6575 2.13 -5.6875 1.625 C-2.6875 -0.375 -2.6875 -0.375 0 0 Z " fill="#1B030F" transform="translate(80.6875,34.375)"/>
<path d="M0 0 C0.66 0.33 1.32 0.66 2 1 C1.45276317 4.37462715 0.9451 6.08235 -1 9 C-1.66 9 -2.32 9 -3 9 C-2.44271087 5.65626525 -1.64826111 2.96687001 0 0 Z " fill="#2E140B" transform="translate(69,58)"/>
<path d="M0 0 C1.9375 0.3125 1.9375 0.3125 4 1 C4.33 1.99 4.66 2.98 5 4 C3.02 4 1.04 4 -1 4 C-0.67 2.68 -0.34 1.36 0 0 Z " fill="#D0D0CE" transform="translate(52,39)"/>
<path d="M0 0 C0.99 0.33 1.98 0.66 3 1 C3 3.31 3 5.62 3 8 C2.01 8 1.02 8 0 8 C0 5.36 0 2.72 0 0 Z " fill="#1E0716" transform="translate(31,20)"/>
<path d="M0 0 C2 4 2 4 1.125 7.25 C0.75375 8.1575 0.3825 9.065 0 10 C-0.99 9.67 -1.98 9.34 -3 9 C-2.01 6.03 -1.02 3.06 0 0 Z " fill="#340A08" transform="translate(75,56)"/>
<path d="M0 0 C1.32 0 2.64 0 4 0 C4.33 1.32 4.66 2.64 5 4 C3.68 4.33 2.36 4.66 1 5 C0.34 3.68 -0.32 2.36 -1 1 C-0.67 0.67 -0.34 0.34 0 0 Z " fill="#C6C1C9" transform="translate(59,35)"/>
<path d="M0 0 C1.77706209 2.66559313 2.87548273 5.0280615 4 8 C1.00675737 6.9024777 0.15389099 6.32317108 -1.25 3.375 C-1.4975 2.59125 -1.745 1.8075 -2 1 C-1.34 0.67 -0.68 0.34 0 0 Z " fill="#2E0909" transform="translate(21,58)"/>
<path d="M0 0 C-0.33 0.66 -0.66 1.32 -1 2 C-3.06640625 2.6328125 -3.06640625 2.6328125 -5.5625 3.125 C-6.80193359 3.37636719 -6.80193359 3.37636719 -8.06640625 3.6328125 C-8.70449219 3.75398438 -9.34257813 3.87515625 -10 4 C-6.58908673 0.88145073 -4.68377325 -0.53528837 0 0 Z " fill="#040003" transform="translate(44,83)"/>
<path d="M0 0 C0.99 0 1.98 0 3 0 C2.6875 1.875 2.6875 1.875 2 4 C1.01 4.66 0.02 5.32 -1 6 C-1.33 5.34 -1.66 4.68 -2 4 C-1.0625 1.875 -1.0625 1.875 0 0 Z " fill="#E67F2D" transform="translate(66,67)"/>
</svg>
