<svg width="300" height="400" viewBox="0 0 300 400" fill="none" xmlns="http://www.w3.org/2000/svg">
  <!-- Background -->
  <rect width="300" height="400" fill="url(#posterBg)"/>
  
  <!-- Main Poster -->
  <g transform="translate(30, 30)">
    <!-- Poster Background -->
    <rect x="0" y="0" width="240" height="340" fill="white" rx="12" filter="url(#posterShadow)"/>
    
    <!-- Header Section -->
    <rect x="0" y="0" width="240" height="80" fill="url(#headerGrad)" rx="12"/>
    <rect x="0" y="68" width="240" height="12" fill="url(#headerGrad)"/>
    
    <!-- Main Title -->
    <text x="120" y="35" font-family="Inter" font-size="18" font-weight="800" fill="white" text-anchor="middle">BUSINESS</text>
    <text x="120" y="55" font-family="Inter" font-size="18" font-weight="800" fill="white" text-anchor="middle">CONFERENCE</text>
    <text x="120" y="72" font-family="Inter" font-size="10" font-weight="500" fill="white" text-anchor="middle" opacity="0.9">2024 SUMMIT</text>
    
    <!-- Date Badge -->
    <g transform="translate(180, 15)">
      <rect x="0" y="0" width="45" height="25" fill="white" opacity="0.9" rx="12"/>
      <text x="22.5" y="12" font-family="Inter" font-size="8" font-weight="700" fill="url(#headerGrad)" text-anchor="middle">DEC</text>
      <text x="22.5" y="22" font-family="Inter" font-size="8" font-weight="700" fill="url(#headerGrad)" text-anchor="middle">15-17</text>
    </g>
    
    <!-- Content Area -->
    <g transform="translate(20, 100)">
      <!-- Speaker Photos -->
      <g transform="translate(0, 0)">
        <circle cx="25" cy="25" r="20" fill="url(#speaker1Grad)"/>
        <circle cx="25" cy="25" r="15" fill="white" opacity="0.9"/>
        <circle cx="25" cy="25" r="12" fill="url(#speaker1Face)"/>
        
        <circle cx="75" cy="25" r="20" fill="url(#speaker2Grad)"/>
        <circle cx="75" cy="25" r="15" fill="white" opacity="0.9"/>
        <circle cx="75" cy="25" r="12" fill="url(#speaker2Face)"/>
        
        <circle cx="125" cy="25" r="20" fill="url(#speaker3Grad)"/>
        <circle cx="125" cy="25" r="15" fill="white" opacity="0.9"/>
        <circle cx="125" cy="25" r="12" fill="url(#speaker3Face)"/>
        
        <circle cx="175" cy="25" r="20" fill="url(#speaker4Grad)"/>
        <circle cx="175" cy="25" r="15" fill="white" opacity="0.9"/>
        <circle cx="175" cy="25" r="12" fill="url(#speaker4Face)"/>
      </g>
      
      <!-- Speaker Names -->
      <text x="100" y="65" font-family="Inter" font-size="8" font-weight="600" fill="#374151" text-anchor="middle">Featured Speakers</text>
      
      <!-- Event Details -->
      <rect x="0" y="80" width="200" height="60" fill="url(#detailsBg)" rx="8"/>
      
      <!-- Schedule Items -->
      <g transform="translate(15, 95)">
        <circle cx="5" cy="5" r="3" fill="url(#timeGrad)"/>
        <text x="15" y="8" font-family="Inter" font-size="9" font-weight="600" fill="white">9:00 AM - Opening Keynote</text>
        
        <circle cx="5" cy="18" r="3" fill="url(#timeGrad)"/>
        <text x="15" y="21" font-family="Inter" font-size="9" font-weight="600" fill="white">11:00 AM - Panel Discussion</text>
        
        <circle cx="5" cy="31" r="3" fill="url(#timeGrad)"/>
        <text x="15" y="34" font-family="Inter" font-size="9" font-weight="600" fill="white">2:00 PM - Networking</text>
        
        <circle cx="5" cy="44" r="3" fill="url(#timeGrad)"/>
        <text x="15" y="47" font-family="Inter" font-size="9" font-weight="600" fill="white">4:00 PM - Closing Ceremony</text>
      </g>
      
      <!-- Location -->
      <g transform="translate(0, 160)">
        <rect x="0" y="0" width="200" height="40" fill="white" stroke="url(#locationGrad)" stroke-width="2" rx="8"/>
        <g transform="translate(10, 15)">
          <circle cx="5" cy="5" r="4" fill="url(#locationGrad)"/>
          <path d="M3 5 L5 7 L7 3" stroke="white" stroke-width="1" fill="none"/>
          <text x="15" y="8" font-family="Inter" font-size="10" font-weight="600" fill="#374151">Grand Convention Center</text>
        </g>
        <text x="100" y="32" font-family="Inter" font-size="8" fill="#6b7280" text-anchor="middle">123 Business District, City Center</text>
      </g>
      
      <!-- Call to Action -->
      <rect x="0" y="210" width="200" height="35" fill="url(#ctaGrad)" rx="18"/>
      <text x="100" y="232" font-family="Inter" font-size="12" font-weight="700" fill="white" text-anchor="middle">REGISTER NOW</text>
    </g>
    
    <!-- Decorative Elements -->
    <g transform="translate(200, 280)">
      <circle cx="15" cy="15" r="15" fill="url(#decorGrad)" opacity="0.3"/>
      <circle cx="15" cy="15" r="8" fill="white" opacity="0.8"/>
      <rect x="11" y="11" width="8" height="8" fill="url(#decorGrad)" rx="2"/>
    </g>
    
    <g transform="translate(15, 320)">
      <rect x="0" y="0" width="25" height="15" fill="url(#decorGrad)" opacity="0.2" rx="7"/>
      <rect x="3" y="3" width="19" height="9" fill="white" opacity="0.8" rx="4"/>
      <rect x="6" y="6" width="13" height="3" fill="url(#decorGrad)" rx="1.5"/>
    </g>
  </g>
  
  <!-- Floating Elements -->
  <g transform="translate(260, 50)">
    <circle cx="0" cy="0" r="8" fill="white" opacity="0.8"/>
    <circle cx="0" cy="0" r="5" fill="url(#floatGrad)"/>
    <text x="0" y="2" font-family="Arial" font-size="6" font-weight="bold" fill="white" text-anchor="middle">★</text>
  </g>
  
  <g transform="translate(15, 100)">
    <rect x="0" y="0" width="12" height="12" fill="white" opacity="0.6" rx="6"/>
    <rect x="3" y="3" width="6" height="6" fill="url(#floatGrad)" rx="3"/>
  </g>
  
  <defs>
    <linearGradient id="posterBg" x1="0%" y1="0%" x2="100%" y2="100%">
      <stop offset="0%" style="stop-color:#f8fafc;stop-opacity:1" />
      <stop offset="100%" style="stop-color:#f1f5f9;stop-opacity:1" />
    </linearGradient>
    
    <linearGradient id="headerGrad" x1="0%" y1="0%" x2="100%" y2="100%">
      <stop offset="0%" style="stop-color:#6366f1;stop-opacity:1" />
      <stop offset="100%" style="stop-color:#4f46e5;stop-opacity:1" />
    </linearGradient>
    
    <linearGradient id="speaker1Grad" x1="0%" y1="0%" x2="100%" y2="100%">
      <stop offset="0%" style="stop-color:#ef4444;stop-opacity:1" />
      <stop offset="100%" style="stop-color:#dc2626;stop-opacity:1" />
    </linearGradient>
    
    <linearGradient id="speaker2Grad" x1="0%" y1="0%" x2="100%" y2="100%">
      <stop offset="0%" style="stop-color:#10b981;stop-opacity:1" />
      <stop offset="100%" style="stop-color:#059669;stop-opacity:1" />
    </linearGradient>
    
    <linearGradient id="speaker3Grad" x1="0%" y1="0%" x2="100%" y2="100%">
      <stop offset="0%" style="stop-color:#f59e0b;stop-opacity:1" />
      <stop offset="100%" style="stop-color:#d97706;stop-opacity:1" />
    </linearGradient>
    
    <linearGradient id="speaker4Grad" x1="0%" y1="0%" x2="100%" y2="100%">
      <stop offset="0%" style="stop-color:#8b5cf6;stop-opacity:1" />
      <stop offset="100%" style="stop-color:#7c3aed;stop-opacity:1" />
    </linearGradient>
    
    <linearGradient id="speaker1Face" x1="0%" y1="0%" x2="100%" y2="100%">
      <stop offset="0%" style="stop-color:#fecaca;stop-opacity:1" />
      <stop offset="100%" style="stop-color:#fca5a5;stop-opacity:1" />
    </linearGradient>
    
    <linearGradient id="speaker2Face" x1="0%" y1="0%" x2="100%" y2="100%">
      <stop offset="0%" style="stop-color:#bbf7d0;stop-opacity:1" />
      <stop offset="100%" style="stop-color:#86efac;stop-opacity:1" />
    </linearGradient>
    
    <linearGradient id="speaker3Face" x1="0%" y1="0%" x2="100%" y2="100%">
      <stop offset="0%" style="stop-color:#fed7aa;stop-opacity:1" />
      <stop offset="100%" style="stop-color:#fdba74;stop-opacity:1" />
    </linearGradient>
    
    <linearGradient id="speaker4Face" x1="0%" y1="0%" x2="100%" y2="100%">
      <stop offset="0%" style="stop-color:#ddd6fe;stop-opacity:1" />
      <stop offset="100%" style="stop-color:#c4b5fd;stop-opacity:1" />
    </linearGradient>
    
    <linearGradient id="detailsBg" x1="0%" y1="0%" x2="100%" y2="100%">
      <stop offset="0%" style="stop-color:#1f2937;stop-opacity:1" />
      <stop offset="100%" style="stop-color:#374151;stop-opacity:1" />
    </linearGradient>
    
    <linearGradient id="timeGrad" x1="0%" y1="0%" x2="100%" y2="100%">
      <stop offset="0%" style="stop-color:#fbbf24;stop-opacity:1" />
      <stop offset="100%" style="stop-color:#f59e0b;stop-opacity:1" />
    </linearGradient>
    
    <linearGradient id="locationGrad" x1="0%" y1="0%" x2="100%" y2="100%">
      <stop offset="0%" style="stop-color:#22c55e;stop-opacity:1" />
      <stop offset="100%" style="stop-color:#16a34a;stop-opacity:1" />
    </linearGradient>
    
    <linearGradient id="ctaGrad" x1="0%" y1="0%" x2="100%" y2="100%">
      <stop offset="0%" style="stop-color:#ef4444;stop-opacity:1" />
      <stop offset="100%" style="stop-color:#dc2626;stop-opacity:1" />
    </linearGradient>
    
    <linearGradient id="decorGrad" x1="0%" y1="0%" x2="100%" y2="100%">
      <stop offset="0%" style="stop-color:#8b5cf6;stop-opacity:1" />
      <stop offset="100%" style="stop-color:#7c3aed;stop-opacity:1" />
    </linearGradient>
    
    <linearGradient id="floatGrad" x1="0%" y1="0%" x2="100%" y2="100%">
      <stop offset="0%" style="stop-color:#fbbf24;stop-opacity:1" />
      <stop offset="100%" style="stop-color:#f59e0b;stop-opacity:1" />
    </linearGradient>
    
    <filter id="posterShadow" x="-20%" y="-20%" width="140%" height="140%">
      <feDropShadow dx="0" dy="8" stdDeviation="16" flood-color="#000000" flood-opacity="0.15"/>
    </filter>
  </defs>
</svg>