<svg width="300" height="200" viewBox="0 0 300 200" fill="none" xmlns="http://www.w3.org/2000/svg">
  <!-- Background -->
  <rect width="300" height="200" fill="url(#foldersBg)"/>
  
  <!-- Main Folder Stack -->
  <g transform="translate(50, 50)">
    <!-- Folder 3 (Back) -->
    <g transform="translate(10, 10)">
      <rect x="0" y="8" width="180" height="80" fill="url(#folder3Grad)" rx="8" filter="url(#folderShadow)"/>
      <rect x="0" y="8" width="50" height="15" fill="url(#tab3Grad)" rx="4"/>
      <text x="25" y="19" font-family="Inter" font-size="10" font-weight="600" fill="white" text-anchor="middle">REPORTS</text>
      
      <!-- Document Lines -->
      <rect x="15" y="35" width="120" height="3" fill="white" opacity="0.8" rx="1.5"/>
      <rect x="15" y="42" width="100" height="2" fill="white" opacity="0.6" rx="1"/>
      <rect x="15" y="48" width="140" height="2" fill="white" opacity="0.6" rx="1"/>
      <rect x="15" y="54" width="90" height="2" fill="white" opacity="0.6" rx="1"/>
    </g>
    
    <!-- Folder 2 (Middle) -->
    <g transform="translate(5, 5)">
      <rect x="0" y="8" width="180" height="80" fill="url(#folder2Grad)" rx="8" filter="url(#folderShadow)"/>
      <rect x="0" y="8" width="60" height="15" fill="url(#tab2Grad)" rx="4"/>
      <text x="30" y="19" font-family="Inter" font-size="10" font-weight="600" fill="white" text-anchor="middle">DESIGNS</text>
      
      <!-- Content Preview -->
      <rect x="15" y="30" width="40" height="30" fill="white" opacity="0.8" rx="4"/>
      <rect x="18" y="33" width="34" height="2" fill="url(#folder2Grad)" rx="1"/>
      <rect x="18" y="37" width="28" height="2" fill="url(#folder2Grad)" rx="1"/>
      <rect x="18" y="41" width="30" height="2" fill="url(#folder2Grad)" rx="1"/>
      
      <rect x="70" y="35" width="80" height="2" fill="white" opacity="0.7" rx="1"/>
      <rect x="70" y="41" width="60" height="2" fill="white" opacity="0.7" rx="1"/>
      <rect x="70" y="47" width="90" height="2" fill="white" opacity="0.7" rx="1"/>
      <rect x="70" y="53" width="50" height="2" fill="white" opacity="0.7" rx="1"/>
    </g>
    
    <!-- Folder 1 (Front) -->
    <g transform="translate(0, 0)">
      <rect x="0" y="8" width="180" height="80" fill="url(#folder1Grad)" rx="8" filter="url(#folderShadow)"/>
      <rect x="0" y="8" width="70" height="15" fill="url(#tab1Grad)" rx="4"/>
      <text x="35" y="19" font-family="Inter" font-size="10" font-weight="600" fill="white" text-anchor="middle">PROJECTS</text>
      
      <!-- Featured Content -->
      <rect x="15" y="30" width="50" height="35" fill="white" opacity="0.9" rx="4"/>
      
      <!-- Mini Charts/Graphics -->
      <g transform="translate(20, 35)">
        <rect x="0" y="20" width="8" height="5" fill="url(#chart1Grad)" rx="1"/>
        <rect x="10" y="15" width="8" height="10" fill="url(#chart2Grad)" rx="1"/>
        <rect x="20" y="18" width="8" height="7" fill="url(#chart3Grad)" rx="1"/>
        <rect x="30" y="12" width="8" height="13" fill="url(#chart4Grad)" rx="1"/>
        
        <!-- Title -->
        <rect x="5" y="5" width="30" height="3" fill="url(#folder1Grad)" rx="1.5"/>
        <rect x="8" y="10" width="20" height="2" fill="#94a3b8" rx="1"/>
      </g>
      
      <!-- Text Content -->
      <rect x="80" y="35" width="80" height="3" fill="white" opacity="0.8" rx="1.5"/>
      <rect x="80" y="42" width="70" height="2" fill="white" opacity="0.6" rx="1"/>
      <rect x="80" y="48" width="85" height="2" fill="white" opacity="0.6" rx="1"/>
      <rect x="80" y="54" width="60" height="2" fill="white" opacity="0.6" rx="1"/>
      <rect x="80" y="60" width="75" height="2" fill="white" opacity="0.6" rx="1"/>
      
      <!-- Status Indicator -->
      <circle cx="160" cy="40" r="6" fill="url(#statusGrad)"/>
      <path d="M157 40 L159 42 L163 38" stroke="white" stroke-width="2" fill="none"/>
    </g>
  </g>
  
  <!-- Floating Elements -->
  <g transform="translate(260, 30)">
    <rect x="0" y="0" width="25" height="20" fill="white" opacity="0.8" rx="3" filter="url(#floatShadow)"/>
    <rect x="2" y="2" width="21" height="2" fill="url(#floatGrad)" rx="1"/>
    <rect x="2" y="6" width="15" height="1.5" fill="#9ca3af" rx="0.75"/>
    <rect x="2" y="9" width="18" height="1.5" fill="#9ca3af" rx="0.75"/>
    <rect x="2" y="12" width="12" height="1.5" fill="#9ca3af" rx="0.75"/>
  </g>
  
  <g transform="translate(20, 150)">
    <circle cx="15" cy="15" r="15" fill="url(#circleGrad)" opacity="0.3"/>
    <rect x="8" y="8" width="14" height="14" fill="white" opacity="0.6" rx="2"/>
    <rect x="10" y="10" width="10" height="2" fill="url(#miniGrad)" rx="1"/>
    <rect x="10" y="14" width="7" height="1.5" fill="#94a3b8" rx="0.75"/>
    <rect x="10" y="17" width="8" height="1.5" fill="#94a3b8" rx="0.75"/>
  </g>
  
  <!-- Organization Icons -->
  <g transform="translate(250, 160)">
    <circle cx="0" cy="0" r="8" fill="white" opacity="0.8"/>
    <rect x="-4" y="-3" width="8" height="1.5" fill="url(#orgGrad)" rx="0.75"/>
    <rect x="-4" y="-1" width="8" height="1.5" fill="url(#orgGrad)" rx="0.75"/>
    <rect x="-4" y="1" width="6" height="1.5" fill="url(#orgGrad)" rx="0.75"/>
  </g>
  
  <defs>
    <linearGradient id="foldersBg" x1="0%" y1="0%" x2="100%" y2="100%">
      <stop offset="0%" style="stop-color:#f8fafc;stop-opacity:1" />
      <stop offset="100%" style="stop-color:#f1f5f9;stop-opacity:1" />
    </linearGradient>
    
    <linearGradient id="folder1Grad" x1="0%" y1="0%" x2="100%" y2="100%">
      <stop offset="0%" style="stop-color:#3b82f6;stop-opacity:1" />
      <stop offset="100%" style="stop-color:#1d4ed8;stop-opacity:1" />
    </linearGradient>
    
    <linearGradient id="folder2Grad" x1="0%" y1="0%" x2="100%" y2="100%">
      <stop offset="0%" style="stop-color:#10b981;stop-opacity:1" />
      <stop offset="100%" style="stop-color:#059669;stop-opacity:1" />
    </linearGradient>
    
    <linearGradient id="folder3Grad" x1="0%" y1="0%" x2="100%" y2="100%">
      <stop offset="0%" style="stop-color:#f59e0b;stop-opacity:1" />
      <stop offset="100%" style="stop-color:#d97706;stop-opacity:1" />
    </linearGradient>
    
    <linearGradient id="tab1Grad" x1="0%" y1="0%" x2="100%" y2="100%">
      <stop offset="0%" style="stop-color:#1e40af;stop-opacity:1" />
      <stop offset="100%" style="stop-color:#1e3a8a;stop-opacity:1" />
    </linearGradient>
    
    <linearGradient id="tab2Grad" x1="0%" y1="0%" x2="100%" y2="100%">
      <stop offset="0%" style="stop-color:#047857;stop-opacity:1" />
      <stop offset="100%" style="stop-color:#065f46;stop-opacity:1" />
    </linearGradient>
    
    <linearGradient id="tab3Grad" x1="0%" y1="0%" x2="100%" y2="100%">
      <stop offset="0%" style="stop-color:#b45309;stop-opacity:1" />
      <stop offset="100%" style="stop-color:#92400e;stop-opacity:1" />
    </linearGradient>
    
    <linearGradient id="chart1Grad" x1="0%" y1="0%" x2="100%" y2="100%">
      <stop offset="0%" style="stop-color:#ef4444;stop-opacity:1" />
      <stop offset="100%" style="stop-color:#dc2626;stop-opacity:1" />
    </linearGradient>
    
    <linearGradient id="chart2Grad" x1="0%" y1="0%" x2="100%" y2="100%">
      <stop offset="0%" style="stop-color:#8b5cf6;stop-opacity:1" />
      <stop offset="100%" style="stop-color:#7c3aed;stop-opacity:1" />
    </linearGradient>
    
    <linearGradient id="chart3Grad" x1="0%" y1="0%" x2="100%" y2="100%">
      <stop offset="0%" style="stop-color:#06b6d4;stop-opacity:1" />
      <stop offset="100%" style="stop-color:#0891b2;stop-opacity:1" />
    </linearGradient>
    
    <linearGradient id="chart4Grad" x1="0%" y1="0%" x2="100%" y2="100%">
      <stop offset="0%" style="stop-color:#84cc16;stop-opacity:1" />
      <stop offset="100%" style="stop-color:#65a30d;stop-opacity:1" />
    </linearGradient>
    
    <linearGradient id="statusGrad" x1="0%" y1="0%" x2="100%" y2="100%">
      <stop offset="0%" style="stop-color:#22c55e;stop-opacity:1" />
      <stop offset="100%" style="stop-color:#16a34a;stop-opacity:1" />
    </linearGradient>
    
    <linearGradient id="floatGrad" x1="0%" y1="0%" x2="100%" y2="100%">
      <stop offset="0%" style="stop-color:#6366f1;stop-opacity:1" />
      <stop offset="100%" style="stop-color:#4f46e5;stop-opacity:1" />
    </linearGradient>
    
    <linearGradient id="circleGrad" x1="0%" y1="0%" x2="100%" y2="100%">
      <stop offset="0%" style="stop-color:#ec4899;stop-opacity:1" />
      <stop offset="100%" style="stop-color:#db2777;stop-opacity:1" />
    </linearGradient>
    
    <linearGradient id="miniGrad" x1="0%" y1="0%" x2="100%" y2="100%">
      <stop offset="0%" style="stop-color:#f59e0b;stop-opacity:1" />
      <stop offset="100%" style="stop-color:#d97706;stop-opacity:1" />
    </linearGradient>
    
    <linearGradient id="orgGrad" x1="0%" y1="0%" x2="100%" y2="100%">
      <stop offset="0%" style="stop-color:#6366f1;stop-opacity:1" />
      <stop offset="100%" style="stop-color:#4f46e5;stop-opacity:1" />
    </linearGradient>
    
    <filter id="folderShadow" x="-20%" y="-20%" width="140%" height="140%">
      <feDropShadow dx="0" dy="4" stdDeviation="8" flood-color="#000000" flood-opacity="0.1"/>
    </filter>
    
    <filter id="floatShadow" x="-20%" y="-20%" width="140%" height="140%">
      <feDropShadow dx="0" dy="2" stdDeviation="4" flood-color="#000000" flood-opacity="0.1"/>
    </filter>
  </defs>
</svg>