<svg width="80" height="80" viewBox="0 0 80 80" fill="none" xmlns="http://www.w3.org/2000/svg">
  <!-- Background Circle -->
  <circle cx="40" cy="40" r="38" fill="url(#tshirtGrad)" stroke="white" stroke-width="2"/>
  
  <!-- T-Shirt -->
  <g transform="translate(25, 20)">
    <!-- T-Shirt Body -->
    <rect x="8" y="12" width="14" height="20" fill="white" opacity="0.9" rx="2"/>
    
    <!-- Sleeves -->
    <rect x="2" y="12" width="8" height="8" fill="white" opacity="0.8" rx="2"/>
    <rect x="20" y="12" width="8" height="8" fill="white" opacity="0.8" rx="2"/>
    
    <!-- Collar -->
    <path d="M12 12 Q15 8 18 12" stroke="white" stroke-width="2" fill="none"/>
    
    <!-- Design on T-Shirt -->
    <rect x="10" y="16" width="10" height="3" fill="url(#designGrad1)" rx="1.5"/>
    <rect x="12" y="21" width="6" height="2" fill="url(#designGrad2)" rx="1"/>
    <rect x="11" y="25" width="8" height="2" fill="url(#designGrad3)" rx="1"/>
    
    <!-- Print Quality Indicator -->
    <circle cx="25" cy="8" r="5" fill="url(#qualityGrad)"/>
    <text x="25" y="12" font-family="Arial" font-size="6" font-weight="bold" fill="white" text-anchor="middle">HD</text>
  </g>
  
  <!-- Printing Elements -->
  <g transform="translate(15, 60)">
    <rect x="0" y="0" width="8" height="2" fill="white" opacity="0.6" rx="1"/>
    <circle cx="4" cy="5" r="2" fill="url(#inkGrad)"/>
  </g>
  
  <g transform="translate(57, 60)">
    <rect x="0" y="0" width="8" height="2" fill="white" opacity="0.6" rx="1"/>
    <circle cx="4" cy="5" r="2" fill="url(#inkGrad)"/>
  </g>
  
  <!-- Color Dots -->
  <circle cx="20" cy="25" r="3" fill="#ef4444" opacity="0.8"/>
  <circle cx="60" cy="25" r="3" fill="#3b82f6" opacity="0.8"/>
  <circle cx="20" cy="55" r="3" fill="#10b981" opacity="0.8"/>
  <circle cx="60" cy="55" r="3" fill="#f59e0b" opacity="0.8"/>
  
  <defs>
    <linearGradient id="tshirtGrad" x1="0%" y1="0%" x2="100%" y2="100%">
      <stop offset="0%" style="stop-color:#8b5cf6;stop-opacity:1" />
      <stop offset="100%" style="stop-color:#ec4899;stop-opacity:1" />
    </linearGradient>
    
    <linearGradient id="designGrad1" x1="0%" y1="0%" x2="100%" y2="100%">
      <stop offset="0%" style="stop-color:#6366f1;stop-opacity:1" />
      <stop offset="100%" style="stop-color:#8b5cf6;stop-opacity:1" />
    </linearGradient>
    
    <linearGradient id="designGrad2" x1="0%" y1="0%" x2="100%" y2="100%">
      <stop offset="0%" style="stop-color:#f59e0b;stop-opacity:1" />
      <stop offset="100%" style="stop-color:#ef4444;stop-opacity:1" />
    </linearGradient>
    
    <linearGradient id="designGrad3" x1="0%" y1="0%" x2="100%" y2="100%">
      <stop offset="0%" style="stop-color:#10b981;stop-opacity:1" />
      <stop offset="100%" style="stop-color:#059669;stop-opacity:1" />
    </linearGradient>
    
    <linearGradient id="qualityGrad" x1="0%" y1="0%" x2="100%" y2="100%">
      <stop offset="0%" style="stop-color:#dc2626;stop-opacity:1" />
      <stop offset="100%" style="stop-color:#b91c1c;stop-opacity:1" />
    </linearGradient>
    
    <linearGradient id="inkGrad" x1="0%" y1="0%" x2="100%" y2="100%">
      <stop offset="0%" style="stop-color:#1f2937;stop-opacity:1" />
      <stop offset="100%" style="stop-color:#374151;stop-opacity:1" />
    </linearGradient>
  </defs>
</svg>