<svg width="80" height="80" viewBox="0 0 80 80" fill="none" xmlns="http://www.w3.org/2000/svg">
  <!-- Background Circle -->
  <circle cx="40" cy="40" r="38" fill="url(#oneStopGrad)" stroke="white" stroke-width="2"/>
  
  <!-- Shopping Bag -->
  <g transform="translate(25, 20)">
    <!-- Bag Body -->
    <rect x="5" y="10" width="20" height="25" fill="white" opacity="0.9" rx="2"/>
    <rect x="5" y="10" width="20" height="25" fill="none" stroke="white" stroke-width="2" rx="2"/>
    
    <!-- Bag Handles -->
    <path d="M10 10 Q10 5 15 5 Q20 5 20 10" stroke="white" stroke-width="2" fill="none"/>
    
    <!-- Items in Bag -->
    <rect x="8" y="15" width="14" height="3" fill="url(#itemGrad1)" rx="1.5"/>
    <rect x="8" y="20" width="10" height="3" fill="url(#itemGrad2)" rx="1.5"/>
    <rect x="8" y="25" width="12" height="3" fill="url(#itemGrad3)" rx="1.5"/>
    
    <!-- Checkmark -->
    <circle cx="22" cy="8" r="6" fill="url(#checkBg)"/>
    <path d="M19 8 L21 10 L25 6" stroke="white" stroke-width="2" fill="none"/>
  </g>
  
  <!-- Service Icons Around -->
  <g transform="translate(15, 55)">
    <circle cx="0" cy="0" r="4" fill="white" opacity="0.8"/>
    <rect x="-2" y="-1.5" width="4" height="1" fill="url(#miniGrad)" rx="0.5"/>
    <rect x="-2" y="0.5" width="4" height="1" fill="url(#miniGrad)" rx="0.5"/>
  </g>
  
  <g transform="translate(65, 55)">
    <circle cx="0" cy="0" r="4" fill="white" opacity="0.8"/>
    <rect x="-2" y="-1.5" width="4" height="1" fill="url(#miniGrad)" rx="0.5"/>
    <rect x="-2" y="0.5" width="4" height="1" fill="url(#miniGrad)" rx="0.5"/>
  </g>
  
  <g transform="translate(15, 25)">
    <circle cx="0" cy="0" r="3" fill="white" opacity="0.7"/>
    <circle cx="0" cy="0" r="1.5" fill="url(#miniGrad)"/>
  </g>
  
  <g transform="translate(65, 25)">
    <circle cx="0" cy="0" r="3" fill="white" opacity="0.7"/>
    <circle cx="0" cy="0" r="1.5" fill="url(#miniGrad)"/>
  </g>
  
  <defs>
    <linearGradient id="oneStopGrad" x1="0%" y1="0%" x2="100%" y2="100%">
      <stop offset="0%" style="stop-color:#10b981;stop-opacity:1" />
      <stop offset="100%" style="stop-color:#059669;stop-opacity:1" />
    </linearGradient>
    
    <linearGradient id="itemGrad1" x1="0%" y1="0%" x2="100%" y2="100%">
      <stop offset="0%" style="stop-color:#6366f1;stop-opacity:1" />
      <stop offset="100%" style="stop-color:#8b5cf6;stop-opacity:1" />
    </linearGradient>
    
    <linearGradient id="itemGrad2" x1="0%" y1="0%" x2="100%" y2="100%">
      <stop offset="0%" style="stop-color:#f59e0b;stop-opacity:1" />
      <stop offset="100%" style="stop-color:#ef4444;stop-opacity:1" />
    </linearGradient>
    
    <linearGradient id="itemGrad3" x1="0%" y1="0%" x2="100%" y2="100%">
      <stop offset="0%" style="stop-color:#8b5cf6;stop-opacity:1" />
      <stop offset="100%" style="stop-color:#ec4899;stop-opacity:1" />
    </linearGradient>
    
    <linearGradient id="checkBg" x1="0%" y1="0%" x2="100%" y2="100%">
      <stop offset="0%" style="stop-color:#22c55e;stop-opacity:1" />
      <stop offset="100%" style="stop-color:#16a34a;stop-opacity:1" />
    </linearGradient>
    
    <linearGradient id="miniGrad" x1="0%" y1="0%" x2="100%" y2="100%">
      <stop offset="0%" style="stop-color:#10b981;stop-opacity:1" />
      <stop offset="100%" style="stop-color:#059669;stop-opacity:1" />
    </linearGradient>
  </defs>
</svg>