<svg width="80" height="80" viewBox="0 0 80 80" fill="none" xmlns="http://www.w3.org/2000/svg">
  <!-- Background Circle -->
  <circle cx="40" cy="40" r="38" fill="url(#wearablesGrad)" stroke="white" stroke-width="2"/>
  
  <!-- Main Clothing Items -->
  <g transform="translate(15, 15)">
    <!-- Hoodie -->
    <g transform="translate(0, 0)">
      <!-- Hood -->
      <path d="M8 8 Q15 3 22 8 L22 15 Q15 12 8 15 Z" fill="white" opacity="0.9"/>
      
      <!-- Body -->
      <rect x="10" y="15" width="12" height="18" fill="white" opacity="0.9" rx="2"/>
      
      <!-- Sleeves -->
      <rect x="3" y="18" width="9" height="12" fill="white" opacity="0.8" rx="2"/>
      <rect x="20" y="18" width="9" height="12" fill="white" opacity="0.8" rx="2"/>
      
      <!-- Design -->
      <rect x="12" y="20" width="8" height="3" fill="url(#hoodieDesignGrad)" rx="1.5"/>
      <rect x="13" y="25" width="6" height="2" fill="url(#hoodieDesignGrad2)" rx="1"/>
      
      <!-- Drawstrings -->
      <circle cx="13" cy="17" r="1" fill="url(#stringGrad)"/>
      <circle cx="19" cy="17" r="1" fill="url(#stringGrad)"/>
    </g>
    
    <!-- Cap -->
    <g transform="translate(35, 5)">
      <!-- Cap Crown -->
      <ellipse cx="7" cy="8" rx="7" ry="5" fill="white" opacity="0.9"/>
      
      <!-- Visor -->
      <ellipse cx="7" cy="12" rx="9" ry="3" fill="white" opacity="0.8"/>
      
      <!-- Logo -->
      <circle cx="7" cy="8" r="2.5" fill="url(#capLogoGrad)"/>
      <rect x="6" y="7" width="2" height="1" fill="white" rx="0.5"/>
      <rect x="6" y="8.5" width="2" height="1" fill="white" rx="0.5"/>
    </g>
    
    <!-- Jacket -->
    <g transform="translate(25, 20)">
      <!-- Jacket Body -->
      <rect x="5" y="5" width="15" height="20" fill="white" opacity="0.9" rx="2"/>
      
      <!-- Collar -->
      <path d="M7 5 Q12.5 2 18 5 L18 8 Q12.5 6 7 8 Z" fill="white" opacity="0.8"/>
      
      <!-- Zipper -->
      <rect x="12" y="8" width="1" height="15" fill="url(#zipperGrad)" rx="0.5"/>
      
      <!-- Pockets -->
      <rect x="7" y="15" width="4" height="3" fill="none" stroke="url(#pocketGrad)" stroke-width="0.5" rx="1"/>
      <rect x="14" y="15" width="4" height="3" fill="none" stroke="url(#pocketGrad)" stroke-width="0.5" rx="1"/>
      
      <!-- Sleeves -->
      <rect x="0" y="8" width="7" height="12" fill="white" opacity="0.8" rx="2"/>
      <rect x="18" y="8" width="7" height="12" fill="white" opacity="0.8" rx="2"/>
    </g>
  </g>
  
  <!-- Fabric Swatches -->
  <g transform="translate(10, 60)">
    <rect x="0" y="0" width="6" height="6" fill="url(#fabric1Grad)" rx="1"/>
    <rect x="8" y="0" width="6" height="6" fill="url(#fabric2Grad)" rx="1"/>
    <rect x="16" y="0" width="6" height="6" fill="url(#fabric3Grad)" rx="1"/>
  </g>
  
  <!-- Accessories -->
  <g transform="translate(60, 60)">
    <!-- Watch -->
    <circle cx="0" cy="0" r="4" fill="white" opacity="0.8"/>
    <circle cx="0" cy="0" r="2.5" fill="url(#watchGrad)"/>
    <rect x="-0.5" y="-1" width="1" height="2" fill="white" rx="0.5"/>
  </g>
  
  <!-- Design Elements -->
  <circle cx="65" cy="25" r="3" fill="white" opacity="0.5"/>
  <rect x="10" y="25" width="4" height="4" fill="white" opacity="0.4" rx="2"/>
  
  <defs>
    <linearGradient id="wearablesGrad" x1="0%" y1="0%" x2="100%" y2="100%">
      <stop offset="0%" style="stop-color:#d97706;stop-opacity:1" />
      <stop offset="100%" style="stop-color:#b45309;stop-opacity:1" />
    </linearGradient>
    
    <linearGradient id="hoodieDesignGrad" x1="0%" y1="0%" x2="100%" y2="100%">
      <stop offset="0%" style="stop-color:#6366f1;stop-opacity:1" />
      <stop offset="100%" style="stop-color:#8b5cf6;stop-opacity:1" />
    </linearGradient>
    
    <linearGradient id="hoodieDesignGrad2" x1="0%" y1="0%" x2="100%" y2="100%">
      <stop offset="0%" style="stop-color:#f59e0b;stop-opacity:1" />
      <stop offset="100%" style="stop-color:#ef4444;stop-opacity:1" />
    </linearGradient>
    
    <linearGradient id="stringGrad" x1="0%" y1="0%" x2="100%" y2="100%">
      <stop offset="0%" style="stop-color:#6b7280;stop-opacity:1" />
      <stop offset="100%" style="stop-color:#4b5563;stop-opacity:1" />
    </linearGradient>
    
    <linearGradient id="capLogoGrad" x1="0%" y1="0%" x2="100%" y2="100%">
      <stop offset="0%" style="stop-color:#ef4444;stop-opacity:1" />
      <stop offset="100%" style="stop-color:#dc2626;stop-opacity:1" />
    </linearGradient>
    
    <linearGradient id="zipperGrad" x1="0%" y1="0%" x2="100%" y2="100%">
      <stop offset="0%" style="stop-color:#64748b;stop-opacity:1" />
      <stop offset="100%" style="stop-color:#475569;stop-opacity:1" />
    </linearGradient>
    
    <linearGradient id="pocketGrad" x1="0%" y1="0%" x2="100%" y2="100%">
      <stop offset="0%" style="stop-color:#9ca3af;stop-opacity:1" />
      <stop offset="100%" style="stop-color:#6b7280;stop-opacity:1" />
    </linearGradient>
    
    <linearGradient id="fabric1Grad" x1="0%" y1="0%" x2="100%" y2="100%">
      <stop offset="0%" style="stop-color:#3b82f6;stop-opacity:1" />
      <stop offset="100%" style="stop-color:#1d4ed8;stop-opacity:1" />
    </linearGradient>
    
    <linearGradient id="fabric2Grad" x1="0%" y1="0%" x2="100%" y2="100%">
      <stop offset="0%" style="stop-color:#10b981;stop-opacity:1" />
      <stop offset="100%" style="stop-color:#059669;stop-opacity:1" />
    </linearGradient>
    
    <linearGradient id="fabric3Grad" x1="0%" y1="0%" x2="100%" y2="100%">
      <stop offset="0%" style="stop-color:#f59e0b;stop-opacity:1" />
      <stop offset="100%" style="stop-color:#d97706;stop-opacity:1" />
    </linearGradient>
    
    <linearGradient id="watchGrad" x1="0%" y1="0%" x2="100%" y2="100%">
      <stop offset="0%" style="stop-color:#1f2937;stop-opacity:1" />
      <stop offset="100%" style="stop-color:#374151;stop-opacity:1" />
    </linearGradient>
  </defs>
</svg>