<svg width="80" height="80" viewBox="0 0 80 80" fill="none" xmlns="http://www.w3.org/2000/svg">
  <!-- Background Circle -->
  <circle cx="40" cy="40" r="38" fill="url(#serviceGrad1)" stroke="white" stroke-width="2"/>
  
  <!-- Layout Grid -->
  <g transform="translate(20, 20)">
    <!-- Grid Lines -->
    <line x1="0" y1="0" x2="40" y2="0" stroke="white" stroke-width="1" opacity="0.3"/>
    <line x1="0" y1="13" x2="40" y2="13" stroke="white" stroke-width="1" opacity="0.3"/>
    <line x1="0" y1="27" x2="40" y2="27" stroke="white" stroke-width="1" opacity="0.3"/>
    <line x1="0" y1="40" x2="40" y2="40" stroke="white" stroke-width="1" opacity="0.3"/>
    
    <line x1="0" y1="0" x2="0" y2="40" stroke="white" stroke-width="1" opacity="0.3"/>
    <line x1="13" y1="0" x2="13" y2="40" stroke="white" stroke-width="1" opacity="0.3"/>
    <line x1="27" y1="0" x2="27" y2="40" stroke="white" stroke-width="1" opacity="0.3"/>
    <line x1="40" y1="0" x2="40" y2="40" stroke="white" stroke-width="1" opacity="0.3"/>
    
    <!-- Layout Elements -->
    <rect x="2" y="2" width="36" height="9" fill="white" rx="2" opacity="0.9"/>
    <rect x="2" y="15" width="16" height="10" fill="white" rx="2" opacity="0.8"/>
    <rect x="22" y="15" width="16" height="10" fill="white" rx="2" opacity="0.8"/>
    <rect x="2" y="29" width="36" height="9" fill="white" rx="2" opacity="0.7"/>
    
    <!-- Design Elements -->
    <circle cx="8" cy="6.5" r="2" fill="url(#iconGrad)"/>
    <rect x="12" y="5" width="12" height="1.5" fill="#6366f1" rx="0.75"/>
    <rect x="12" y="7.5" width="8" height="1" fill="#8b5cf6" rx="0.5"/>
  </g>
  
  <!-- Corner Design Elements -->
  <circle cx="15" cy="15" r="3" fill="white" opacity="0.6"/>
  <circle cx="65" cy="15" r="3" fill="white" opacity="0.6"/>
  <circle cx="15" cy="65" r="3" fill="white" opacity="0.6"/>
  <circle cx="65" cy="65" r="3" fill="white" opacity="0.6"/>
  
  <defs>
    <linearGradient id="serviceGrad1" x1="0%" y1="0%" x2="100%" y2="100%">
      <stop offset="0%" style="stop-color:#6366f1;stop-opacity:1" />
      <stop offset="100%" style="stop-color:#8b5cf6;stop-opacity:1" />
    </linearGradient>
    
    <linearGradient id="iconGrad" x1="0%" y1="0%" x2="100%" y2="100%">
      <stop offset="0%" style="stop-color:#f59e0b;stop-opacity:1" />
      <stop offset="100%" style="stop-color:#ef4444;stop-opacity:1" />
    </linearGradient>
  </defs>
</svg>