<svg width="80" height="80" viewBox="0 0 80 80" fill="none" xmlns="http://www.w3.org/2000/svg">
  <!-- Background Circle -->
  <circle cx="40" cy="40" r="38" fill="url(#officeGrad)" stroke="white" stroke-width="2"/>
  
  <!-- Office Items -->
  <g transform="translate(25, 20)">
    <!-- Folder -->
    <rect x="0" y="8" width="18" height="12" fill="white" opacity="0.9" rx="2"/>
    <rect x="0" y="8" width="6" height="3" fill="url(#folderTabGrad)" rx="1"/>
    <rect x="2" y="12" width="14" height="1.5" fill="url(#folderLineGrad)" rx="0.75"/>
    <rect x="2" y="15" width="10" height="1.5" fill="url(#folderLineGrad)" rx="0.75"/>
    
    <!-- Pen Holder -->
    <rect x="22" y="10" width="8" height="15" fill="white" opacity="0.8" rx="1"/>
    
    <!-- Pens -->
    <rect x="24" y="5" width="1.5" height="20" fill="url(#pen1Grad)" rx="0.75"/>
    <rect x="26.5" y="7" width="1.5" height="18" fill="url(#pen2Grad)" rx="0.75"/>
    <rect x="29" y="6" width="1.5" height="19" fill="url(#pen3Grad)" rx="0.75"/>
    
    <!-- Pen Tips -->
    <circle cx="24.75" cy="3" r="1" fill="#1f2937"/>
    <circle cx="27.25" cy="5" r="1" fill="#1f2937"/>
    <circle cx="29.75" cy="4" r="1" fill="#1f2937"/>
    
    <!-- Paper Stack -->
    <rect x="5" y="25" width="12" height="10" fill="white" rx="1"/>
    <rect x="6" y="24" width="12" height="10" fill="white" opacity="0.8" rx="1"/>
    <rect x="7" y="23" width="12" height="10" fill="white" opacity="0.6" rx="1"/>
    
    <!-- Document Lines -->
    <rect x="8" y="27" width="8" height="0.5" fill="url(#docLineGrad)" rx="0.25"/>
    <rect x="8" y="29" width="6" height="0.5" fill="url(#docLineGrad)" rx="0.25"/>
    <rect x="8" y="31" width="7" height="0.5" fill="url(#docLineGrad)" rx="0.25"/>
    
    <!-- Paperclip -->
    <path d="M20 25 Q23 22 26 25 Q23 28 20 25" stroke="url(#clipGrad)" stroke-width="1.5" fill="none"/>
  </g>
  
  <!-- Business Elements -->
  <g transform="translate(15, 55)">
    <rect x="0" y="0" width="8" height="5" fill="white" opacity="0.7" rx="1"/>
    <rect x="1" y="1" width="6" height="0.8" fill="url(#businessGrad)" rx="0.4"/>
    <rect x="1" y="2.5" width="4" height="0.5" fill="#9ca3af" rx="0.25"/>
  </g>
  
  <g transform="translate(57, 55)">
    <rect x="0" y="0" width="8" height="5" fill="white" opacity="0.7" rx="1"/>
    <rect x="1" y="1" width="6" height="0.8" fill="url(#businessGrad)" rx="0.4"/>
    <rect x="1" y="2.5" width="4" height="0.5" fill="#9ca3af" rx="0.25"/>
  </g>
  
  <!-- Decorative Elements -->
  <circle cx="15" cy="25" r="3" fill="white" opacity="0.5"/>
  <rect x="62" y="22" width="6" height="6" fill="white" opacity="0.4" rx="3"/>
  <circle cx="65" cy="65" r="2" fill="white" opacity="0.6"/>
  
  <defs>
    <linearGradient id="officeGrad" x1="0%" y1="0%" x2="100%" y2="100%">
      <stop offset="0%" style="stop-color:#059669;stop-opacity:1" />
      <stop offset="100%" style="stop-color:#047857;stop-opacity:1" />
    </linearGradient>
    
    <linearGradient id="folderTabGrad" x1="0%" y1="0%" x2="100%" y2="100%">
      <stop offset="0%" style="stop-color:#3b82f6;stop-opacity:1" />
      <stop offset="100%" style="stop-color:#1d4ed8;stop-opacity:1" />
    </linearGradient>
    
    <linearGradient id="folderLineGrad" x1="0%" y1="0%" x2="100%" y2="100%">
      <stop offset="0%" style="stop-color:#6b7280;stop-opacity:1" />
      <stop offset="100%" style="stop-color:#4b5563;stop-opacity:1" />
    </linearGradient>
    
    <linearGradient id="pen1Grad" x1="0%" y1="0%" x2="100%" y2="100%">
      <stop offset="0%" style="stop-color:#ef4444;stop-opacity:1" />
      <stop offset="100%" style="stop-color:#dc2626;stop-opacity:1" />
    </linearGradient>
    
    <linearGradient id="pen2Grad" x1="0%" y1="0%" x2="100%" y2="100%">
      <stop offset="0%" style="stop-color:#3b82f6;stop-opacity:1" />
      <stop offset="100%" style="stop-color:#1d4ed8;stop-opacity:1" />
    </linearGradient>
    
    <linearGradient id="pen3Grad" x1="0%" y1="0%" x2="100%" y2="100%">
      <stop offset="0%" style="stop-color:#10b981;stop-opacity:1" />
      <stop offset="100%" style="stop-color:#059669;stop-opacity:1" />
    </linearGradient>
    
    <linearGradient id="docLineGrad" x1="0%" y1="0%" x2="100%" y2="100%">
      <stop offset="0%" style="stop-color:#6366f1;stop-opacity:1" />
      <stop offset="100%" style="stop-color:#4f46e5;stop-opacity:1" />
    </linearGradient>
    
    <linearGradient id="clipGrad" x1="0%" y1="0%" x2="100%" y2="100%">
      <stop offset="0%" style="stop-color:#64748b;stop-opacity:1" />
      <stop offset="100%" style="stop-color:#475569;stop-opacity:1" />
    </linearGradient>
    
    <linearGradient id="businessGrad" x1="0%" y1="0%" x2="100%" y2="100%">
      <stop offset="0%" style="stop-color:#059669;stop-opacity:1" />
      <stop offset="100%" style="stop-color:#047857;stop-opacity:1" />
    </linearGradient>
  </defs>
</svg>