<svg width="80" height="80" viewBox="0 0 80 80" fill="none" xmlns="http://www.w3.org/2000/svg">
  <!-- Background Circle -->
  <circle cx="40" cy="40" r="38" fill="url(#designGrad)" stroke="white" stroke-width="2"/>
  
  <!-- Design Tools -->
  <g transform="translate(20, 20)">
    <!-- Pen Tool -->
    <rect x="5" y="10" width="2" height="20" fill="white" rx="1"/>
    <circle cx="6" cy="8" r="3" fill="url(#penGrad)"/>
    <path d="M6 30 L15 35 L6 40 Z" fill="url(#tipGrad)"/>
    
    <!-- Ruler -->
    <rect x="15" y="5" width="20" height="3" fill="white" opacity="0.9" rx="1.5"/>
    <rect x="17" y="6" width="1" height="1" fill="url(#rulerGrad)"/>
    <rect x="20" y="6" width="1" height="1" fill="url(--rulerGrad)"/>
    <rect x="23" y="6" width="1" height="1" fill="url(#rulerGrad)"/>
    <rect x="26" y="6" width="1" height="1" fill="url(#rulerGrad)"/>
    <rect x="29" y="6" width="1" height="1" fill="url(#rulerGrad)"/>
    <rect x="32" y="6" width="1" height="1" fill="url(#rulerGrad)"/>
    
    <!-- Color Palette -->
    <g transform="translate(15, 15)">
      <rect x="0" y="0" width="20" height="12" fill="white" opacity="0.9" rx="2"/>
      <circle cx="3" cy="4" r="2" fill="#ef4444"/>
      <circle cx="8" cy="4" r="2" fill="#3b82f6"/>
      <circle cx="13" cy="4" r="2" fill="#10b981"/>
      <circle cx="17" cy="4" r="2" fill="#f59e0b"/>
      <circle cx="5" cy="8" r="2" fill="#8b5cf6"/>
      <circle cx="10" cy="8" r="2" fill="#ec4899"/>
      <circle cx="15" cy="8" r="2" fill="#06b6d4"/>
    </g>
    
    <!-- Design Elements -->
    <g transform="translate(25, 25)">
      <rect x="0" y="0" width="15" height="10" fill="white" opacity="0.8" rx="2"/>
      <rect x="2" y="2" width="11" height="1.5" fill="url(#elementGrad1)" rx="0.75"/>
      <rect x="2" y="5" width="8" height="1.5" fill="url(#elementGrad2)" rx="0.75"/>
      <circle cx="11" cy="6" r="2" fill="url(#elementGrad3)"/>
    </g>
  </g>
  
  <!-- Creative Spark -->
  <g transform="translate(55, 15)">
    <circle cx="0" cy="0" r="6" fill="url(#sparkGrad)"/>
    <path d="M-3 0 L0 -4 L3 0 L0 4 Z" fill="white"/>
    <path d="M0 -2 L2 0 L0 2 L-2 0 Z" fill="url(#innerSparkGrad)"/>
  </g>
  
  <!-- Floating Elements -->
  <circle cx="15" cy="55" r="2" fill="white" opacity="0.6"/>
  <rect x="62" y="62" width="4" height="4" fill="white" opacity="0.5" rx="2"/>
  <circle cx="70" cy="25" r="3" fill="white" opacity="0.4"/>
  
  <defs>
    <linearGradient id="designGrad" x1="0%" y1="0%" x2="100%" y2="100%">
      <stop offset="0%" style="stop-color:#ef4444;stop-opacity:1" />
      <stop offset="100%" style="stop-color:#dc2626;stop-opacity:1" />
    </linearGradient>
    
    <linearGradient id="penGrad" x1="0%" y1="0%" x2="100%" y2="100%">
      <stop offset="0%" style="stop-color:#1f2937;stop-opacity:1" />
      <stop offset="100%" style="stop-color:#374151;stop-opacity:1" />
    </linearGradient>
    
    <linearGradient id="tipGrad" x1="0%" y1="0%" x2="100%" y2="100%">
      <stop offset="0%" style="stop-color:#3b82f6;stop-opacity:1" />
      <stop offset="100%" style="stop-color:#1d4ed8;stop-opacity:1" />
    </linearGradient>
    
    <linearGradient id="rulerGrad" x1="0%" y1="0%" x2="100%" y2="100%">
      <stop offset="0%" style="stop-color:#6b7280;stop-opacity:1" />
      <stop offset="100%" style="stop-color:#4b5563;stop-opacity:1" />
    </linearGradient>
    
    <linearGradient id="elementGrad1" x1="0%" y1="0%" x2="100%" y2="100%">
      <stop offset="0%" style="stop-color:#6366f1;stop-opacity:1" />
      <stop offset="100%" style="stop-color:#8b5cf6;stop-opacity:1" />
    </linearGradient>
    
    <linearGradient id="elementGrad2" x1="0%" y1="0%" x2="100%" y2="100%">
      <stop offset="0%" style="stop-color:#f59e0b;stop-opacity:1" />
      <stop offset="100%" style="stop-color:#ef4444;stop-opacity:1" />
    </linearGradient>
    
    <linearGradient id="elementGrad3" x1="0%" y1="0%" x2="100%" y2="100%">
      <stop offset="0%" style="stop-color:#10b981;stop-opacity:1" />
      <stop offset="100%" style="stop-color:#059669;stop-opacity:1" />
    </linearGradient>
    
    <linearGradient id="sparkGrad" x1="0%" y1="0%" x2="100%" y2="100%">
      <stop offset="0%" style="stop-color:#fbbf24;stop-opacity:1" />
      <stop offset="100%" style="stop-color:#f59e0b;stop-opacity:1" />
    </linearGradient>
    
    <linearGradient id="innerSparkGrad" x1="0%" y1="0%" x2="100%" y2="100%">
      <stop offset="0%" style="stop-color:#fde047;stop-opacity:1" />
      <stop offset="100%" style="stop-color:#facc15;stop-opacity:1" />
    </linearGradient>
  </defs>
</svg>