<svg width="80" height="80" viewBox="0 0 80 80" fill="none" xmlns="http://www.w3.org/2000/svg">
  <!-- Background Circle -->
  <circle cx="40" cy="40" r="38" fill="url(#labelsGrad)" stroke="white" stroke-width="2"/>
  
  <!-- Main Label Sheet -->
  <g transform="translate(20, 15)">
    <!-- Label Sheet -->
    <rect x="5" y="5" width="30" height="35" fill="white" opacity="0.9" rx="3"/>
    
    <!-- Individual Labels -->
    <!-- Row 1 -->
    <rect x="8" y="8" width="8" height="5" fill="url(#label1Grad)" rx="2"/>
    <rect x="18" y="8" width="8" height="5" fill="url(#label2Grad)" rx="2"/>
    <rect x="28" y="8" width="5" height="5" fill="url(#label3Grad)" rx="2.5"/>
    
    <!-- Row 2 -->
    <rect x="8" y="16" width="12" height="4" fill="url(#label4Grad)" rx="2"/>
    <rect x="22" y="16" width="11" height="4" fill="url(#label5Grad)" rx="2"/>
    
    <!-- Row 3 -->
    <circle cx="12" cy="25" r="3" fill="url(#label6Grad)"/>
    <circle cx="20" cy="25" r="3" fill="url(#label7Grad)"/>
    <circle cx="28" cy="25" r="3" fill="url(#label8Grad)"/>
    
    <!-- Row 4 -->
    <rect x="8" y="32" width="6" height="6" fill="url(#label9Grad)" rx="1"/>
    <rect x="16" y="32" width="6" height="6" fill="url(#label10Grad)" rx="1"/>
    <rect x="24" y="32" width="9" height="6" fill="url(#label11Grad)" rx="1"/>
    
    <!-- Peeling Corner -->
    <path d="M33 8 L35 8 L33 10 Z" fill="url(#peelGrad)"/>
  </g>
  
  <!-- Scattered Stickers -->
  <g transform="translate(55, 25)">
    <circle cx="0" cy="0" r="4" fill="url(#stickerGrad1)"/>
    <text x="0" y="2" font-family="Arial" font-size="5" font-weight="bold" fill="white" text-anchor="middle">★</text>
  </g>
  
  <g transform="translate(15, 55)">
    <rect x="0" y="0" width="8" height="4" fill="url(#stickerGrad2)" rx="2"/>
    <text x="4" y="3" font-family="Arial" font-size="3" font-weight="bold" fill="white" text-anchor="middle">NEW</text>
  </g>
  
  <g transform="translate(60, 60)">
    <polygon points="0,-4 3.5,2 -3.5,2" fill="url(#stickerGrad3)"/>
    <text x="0" y="1" font-family="Arial" font-size="3" font-weight="bold" fill="white" text-anchor="middle">!</text>
  </g>
  
  <!-- Quality Indicators -->
  <g transform="translate(65, 45)">
    <circle cx="0" cy="0" r="5" fill="white" opacity="0.8"/>
    <path d="M-2 0 L-1 2 L2 -2" stroke="url(#checkGrad)" stroke-width="1.5" fill="none"/>
  </g>
  
  <g transform="translate(15, 30)">
    <circle cx="0" cy="0" r="3" fill="white" opacity="0.6"/>
    <circle cx="0" cy="0" r="1.5" fill="url(#dotGrad)"/>
  </g>
  
  <defs>
    <linearGradient id="labelsGrad" x1="0%" y1="0%" x2="100%" y2="100%">
      <stop offset="0%" style="stop-color:#ec4899;stop-opacity:1" />
      <stop offset="100%" style="stop-color:#db2777;stop-opacity:1" />
    </linearGradient>
    
    <linearGradient id="label1Grad" x1="0%" y1="0%" x2="100%" y2="100%">
      <stop offset="0%" style="stop-color:#ef4444;stop-opacity:1" />
      <stop offset="100%" style="stop-color:#dc2626;stop-opacity:1" />
    </linearGradient>
    
    <linearGradient id="label2Grad" x1="0%" y1="0%" x2="100%" y2="100%">
      <stop offset="0%" style="stop-color:#3b82f6;stop-opacity:1" />
      <stop offset="100%" style="stop-color:#1d4ed8;stop-opacity:1" />
    </linearGradient>
    
    <linearGradient id="label3Grad" x1="0%" y1="0%" x2="100%" y2="100%">
      <stop offset="0%" style="stop-color:#10b981;stop-opacity:1" />
      <stop offset="100%" style="stop-color:#059669;stop-opacity:1" />
    </linearGradient>
    
    <linearGradient id="label4Grad" x1="0%" y1="0%" x2="100%" y2="100%">
      <stop offset="0%" style="stop-color:#f59e0b;stop-opacity:1" />
      <stop offset="100%" style="stop-color:#d97706;stop-opacity:1" />
    </linearGradient>
    
    <linearGradient id="label5Grad" x1="0%" y1="0%" x2="100%" y2="100%">
      <stop offset="0%" style="stop-color:#8b5cf6;stop-opacity:1" />
      <stop offset="100%" style="stop-color:#7c3aed;stop-opacity:1" />
    </linearGradient>
    
    <linearGradient id="label6Grad" x1="0%" y1="0%" x2="100%" y2="100%">
      <stop offset="0%" style="stop-color:#06b6d4;stop-opacity:1" />
      <stop offset="100%" style="stop-color:#0891b2;stop-opacity:1" />
    </linearGradient>
    
    <linearGradient id="label7Grad" x1="0%" y1="0%" x2="100%" y2="100%">
      <stop offset="0%" style="stop-color:#84cc16;stop-opacity:1" />
      <stop offset="100%" style="stop-color:#65a30d;stop-opacity:1" />
    </linearGradient>
    
    <linearGradient id="label8Grad" x1="0%" y1="0%" x2="100%" y2="100%">
      <stop offset="0%" style="stop-color:#f97316;stop-opacity:1" />
      <stop offset="100%" style="stop-color:#ea580c;stop-opacity:1" />
    </linearGradient>
    
    <linearGradient id="label9Grad" x1="0%" y1="0%" x2="100%" y2="100%">
      <stop offset="0%" style="stop-color:#a855f7;stop-opacity:1" />
      <stop offset="100%" style="stop-color:#9333ea;stop-opacity:1" />
    </linearGradient>
    
    <linearGradient id="label10Grad" x1="0%" y1="0%" x2="100%" y2="100%">
      <stop offset="0%" style="stop-color:#14b8a6;stop-opacity:1" />
      <stop offset="100%" style="stop-color:#0d9488;stop-opacity:1" />
    </linearGradient>
    
    <linearGradient id="label11Grad" x1="0%" y1="0%" x2="100%" y2="100%">
      <stop offset="0%" style="stop-color:#6366f1;stop-opacity:1" />
      <stop offset="100%" style="stop-color:#4f46e5;stop-opacity:1" />
    </linearGradient>
    
    <linearGradient id="peelGrad" x1="0%" y1="0%" x2="100%" y2="100%">
      <stop offset="0%" style="stop-color:#f3f4f6;stop-opacity:1" />
      <stop offset="100%" style="stop-color:#e5e7eb;stop-opacity:1" />
    </linearGradient>
    
    <linearGradient id="stickerGrad1" x1="0%" y1="0%" x2="100%" y2="100%">
      <stop offset="0%" style="stop-color:#fbbf24;stop-opacity:1" />
      <stop offset="100%" style="stop-color:#f59e0b;stop-opacity:1" />
    </linearGradient>
    
    <linearGradient id="stickerGrad2" x1="0%" y1="0%" x2="100%" y2="100%">
      <stop offset="0%" style="stop-color:#22c55e;stop-opacity:1" />
      <stop offset="100%" style="stop-color:#16a34a;stop-opacity:1" />
    </linearGradient>
    
    <linearGradient id="stickerGrad3" x1="0%" y1="0%" x2="100%" y2="100%">
      <stop offset="0%" style="stop-color:#ef4444;stop-opacity:1" />
      <stop offset="100%" style="stop-color:#dc2626;stop-opacity:1" />
    </linearGradient>
    
    <linearGradient id="checkGrad" x1="0%" y1="0%" x2="100%" y2="100%">
      <stop offset="0%" style="stop-color:#10b981;stop-opacity:1" />
      <stop offset="100%" style="stop-color:#059669;stop-opacity:1" />
    </linearGradient>
    
    <linearGradient id="dotGrad" x1="0%" y1="0%" x2="100%" y2="100%">
      <stop offset="0%" style="stop-color:#ec4899;stop-opacity:1" />
      <stop offset="100%" style="stop-color:#db2777;stop-opacity:1" />
    </linearGradient>
  </defs>
</svg>