<svg width="80" height="80" viewBox="0 0 80 80" fill="none" xmlns="http://www.w3.org/2000/svg">
  <!-- Background Circle -->
  <circle cx="40" cy="40" r="38" fill="url(#qualityGrad)" stroke="white" stroke-width="2"/>
  
  <!-- Quality Badge -->
  <g transform="translate(25, 25)">
    <!-- Badge Base -->
    <polygon points="15,0 25,10 15,30 5,10" fill="white" opacity="0.9"/>
    
    <!-- Star -->
    <g transform="translate(15, 15)">
      <path d="M0,-8 L2.5,-2.5 L8,-2.5 L3.5,1 L5.5,7 L0,3.5 L-5.5,7 L-3.5,1 L-8,-2.5 L-2.5,-2.5 Z" 
            fill="url(#starGrad)" stroke="white" stroke-width="0.5"/>
    </g>
    
    <!-- Ribbon -->
    <rect x="12" y="25" width="6" height="8" fill="url(#ribbonGrad)" rx="1"/>
    <polygon points="12,33 15,30 18,33" fill="url(#ribbonGrad)"/>
  </g>
  
  <!-- Quality Indicators -->
  <g transform="translate(55, 20)">
    <circle cx="0" cy="0" r="4" fill="white" opacity="0.8"/>
    <path d="M-1.5 0 L-0.5 1.5 L1.5 -1" stroke="url(#checkGrad)" stroke-width="1.5" fill="none"/>
  </g>
  
  <g transform="translate(20, 55)">
    <circle cx="0" cy="0" r="4" fill="white" opacity="0.8"/>
    <path d="M-1.5 0 L-0.5 1.5 L1.5 -1" stroke="url(#checkGrad)" stroke-width="1.5" fill="none"/>
  </g>
  
  <g transform="translate(60, 60)">
    <circle cx="0" cy="0" r="4" fill="white" opacity="0.8"/>
    <path d="M-1.5 0 L-0.5 1.5 L1.5 -1" stroke="url(#checkGrad)" stroke-width="1.5" fill="none"/>
  </g>
  
  <!-- Text Placeholder -->
  <g transform="translate(40, 65)">
    <rect x="-12" y="-2" width="24" height="1.5" fill="white" opacity="0.7" rx="0.75"/>
    <text x="0" y="1" font-family="Inter" font-size="6" font-weight="600" fill="white" text-anchor="middle">PREMIUM</text>
  </g>
  
  <defs>
    <linearGradient id="qualityGrad" x1="0%" y1="0%" x2="100%" y2="100%">
      <stop offset="0%" style="stop-color:#f59e0b;stop-opacity:1" />
      <stop offset="100%" style="stop-color:#ef4444;stop-opacity:1" />
    </linearGradient>
    
    <linearGradient id="starGrad" x1="0%" y1="0%" x2="100%" y2="100%">
      <stop offset="0%" style="stop-color:#fbbf24;stop-opacity:1" />
      <stop offset="100%" style="stop-color:#f59e0b;stop-opacity:1" />
    </linearGradient>
    
    <linearGradient id="ribbonGrad" x1="0%" y1="0%" x2="100%" y2="100%">
      <stop offset="0%" style="stop-color:#dc2626;stop-opacity:1" />
      <stop offset="100%" style="stop-color:#b91c1c;stop-opacity:1" />
    </linearGradient>
    
    <linearGradient id="checkGrad" x1="0%" y1="0%" x2="100%" y2="100%">
      <stop offset="0%" style="stop-color:#10b981;stop-opacity:1" />
      <stop offset="100%" style="stop-color:#059669;stop-opacity:1" />
    </linearGradient>
  </defs>
</svg>